<svg class="icon" viewBox="0 0 3000 3000" xmlns="http://www.w3.org/2000/svg"><path d="M1171 1530a159 159 0 0 0-25 91c0 11 9 20 20 20h1c11-1 20-10 19-21 0-12 1-23 4-34 2-7 9-28 23-47 7-9 16-18 26-24a76 76 0 0 1 57-10 20 20 0 0 0 7-40 122 122 0 0 0-74 9c-19 9-40 10-59 2-27-10-76-23-107-32-16-4-23-22-15-36 8-15 18-29 30-42l72-78c7-8 8-21 0-29-9-8-22-7-30 1l-72 79a274 274 0 0 0 11 382l83 72c4 4 81 47 81 47a145 145 0 0 1-167 236l-521-393h-25c-94 0-182-46-234-125a89 89 0 0 0-74-39h-75c-62 0-112-50-112-112v-359c0-62 50-113 112-113h1046c156 0 282 127 282 283v392c0 95-77 172-172 172-72-5-139-35-190-85l-6-5a233 233 0 0 1-67-209c1-4 5-6 9-6 47 10 94 24 138 42 4 2 6 7 4 11Zm1702-595c62 0 112 51 112 113v359c0 62-50 112-112 112h-75c-30 0-57 15-74 39a282 282 0 0 1-234 125h-25l-520 393a145 145 0 0 1-168-236s77-43 81-47l83-72a273 273 0 0 0 11-382l-72-79c-8-8-21-9-30-1-8 8-7 21 0 29l72 78c12 13 22 27 30 42 8 14 1 32-15 36-31 9-80 22-107 32-19 8-40 7-59-2a116 116 0 0 0-74-9 20 20 0 1 0 7 40 76 76 0 0 1 56 10c11 6 20 15 27 24 14 19 21 40 23 47 3 11 4 22 4 34-1 11 8 20 19 21h1c11 0 20-9 20-20a159 159 0 0 0-25-91c-2-4 0-9 4-11 44-18 91-32 138-42 4 0 8 2 9 6a235 235 0 0 1-67 209l-6 5c-51 50-118 80-190 85-95 0-172-77-172-172v-392c0-156 126-283 282-283h1046ZM1500 740c-35 0-62-28-62-62V378a62 62 0 1 1 124 0v300c0 34-27 62-62 62Zm362 0a62 62 0 0 1-44-107l212-212a62 62 0 0 1 89 89l-212 212a62 62 0 0 1-45 18Zm-769-18L881 510a62 62 0 0 1 89-89l212 212a62 62 0 0 1-89 89Zm407 1538c35 0 62 28 62 62v300a62 62 0 0 1-124 0v-300c0-34 27-62 62-62Zm-362 0a62 62 0 0 1 44 107l-212 212a62 62 0 0 1-89-89l212-212c13-12 29-18 45-18Zm769 18 212 212a63 63 0 0 1-89 89l-212-212a62 62 0 0 1 89-89Z"/></svg>