<?xml version="1.0" encoding="UTF-8"?>
<svg width="100pt" height="100pt" version="1.1" viewBox="0 0 100 100" xmlns="http://www.w3.org/2000/svg">
 <path d="m12 19c-2.2148 0-4 1.7852-4 4v10h34.938l-10.938-14zm23 0l11 14h46v-10c0-2.2148-1.7852-4-4-4zm-20 5c1.1055 0 2 0.89453 2 2s-0.89453 2-2 2-2-0.89453-2-2 0.89453-2 2-2zm7 0c1.1055 0 2 0.89453 2 2s-0.89453 2-2 2-2-0.89453-2-2 0.89453-2 2-2zm7 0c1.1055 0 2 0.89453 2 2s-0.89453 2-2 2-2-0.89453-2-2 0.89453-2 2-2zm-21 11v42c0 2.2148 1.7852 4 4 4h76c2.2148 0 4-1.7852 4-4v-42z"/>
</svg>
