<svg xmlns="http://www.w3.org/2000/svg" width="270" height="270" viewBox="0 0 270 270" version="1.1"><path d="M 90.500 24.818 C 83.144 28.421, 78.904 32.759, 75.539 40.123 C 72.949 45.792, 71.827 55.559, 73.617 56.859 C 74.103 57.211, 74.559 59.277, 74.632 61.450 C 74.727 64.290, 75.448 65.989, 77.200 67.496 C 78.540 68.648, 79.474 70.078, 79.276 70.673 C 79.077 71.268, 81.032 73.619, 83.620 75.897 C 88.402 80.106, 97.397 83.652, 100.941 82.726 C 102.350 82.357, 103.070 83.382, 104.426 87.684 C 105.715 91.772, 107.764 94.832, 112.751 100.119 L 119.367 107.132 116.434 109.476 C 113.684 111.672, 113.500 112.265, 113.500 118.919 C 113.500 124.392, 113.803 125.903, 114.821 125.513 C 115.861 125.116, 116.005 126.126, 115.495 130.254 C 115.063 133.752, 115.415 138, 116.552 143 C 118.318 150.768, 119.305 153.054, 127.779 169 C 133.471 179.711, 135.370 185.440, 137.061 197.002 C 137.968 203.211, 137.962 205.341, 137.030 206.464 C 136.369 207.261, 136.118 208.382, 136.473 208.956 C 137.375 210.416, 143.545 210.263, 144.754 208.750 C 146.404 206.685, 147.322 196.093, 145.990 194.488 C 145.295 193.651, 145.091 191.862, 145.485 190.068 C 145.999 187.726, 146.902 186.845, 149.527 186.120 C 151.386 185.607, 154.586 183.556, 156.639 181.563 L 160.371 177.938 154.994 172.494 C 152.037 169.499, 149.412 167.255, 149.160 167.506 C 148.909 167.757, 150.352 170.078, 152.366 172.664 C 155.075 176.141, 155.699 177.573, 154.764 178.164 C 153.021 179.265, 151.969 177.638, 144.829 162.802 C 141.440 155.761, 138.231 150, 137.698 150 C 137.126 150, 136.966 151.951, 137.308 154.750 C 137.790 158.705, 137.346 157.910, 134.652 150 C 132.873 144.775, 130.592 139.255, 129.582 137.733 C 127.993 135.337, 127.966 135.050, 129.374 135.590 C 131.376 136.358, 131.415 135.132, 129.468 132.559 C 127.950 130.552, 127.547 126.345, 128.607 123.582 C 129.326 121.708, 132.268 121.526, 134.932 123.190 C 137.441 124.756, 138.735 123.646, 144.367 115.097 C 148.122 109.398, 149.198 108.411, 151.617 108.452 C 154.015 108.492, 154.883 107.720, 157.186 103.500 C 160.721 97.020, 167.367 76.844, 169.539 66 C 171.601 55.706, 172.056 39.891, 170.307 39.285 C 169.582 39.034, 168.862 40.366, 168.471 42.686 C 167.034 51.191, 160.680 73.993, 157.677 81.418 C 155.087 87.823, 154.047 89.368, 152.237 89.501 C 151.007 89.592, 150 89.291, 150 88.833 C 150 88.375, 150.604 88, 151.341 88 C 153.736 88, 162.290 56.715, 163.149 44.813 C 163.573 38.940, 161.578 38.983, 160.218 44.877 C 159.049 49.940, 147.826 81.588, 145.969 85.059 C 145.397 86.126, 144.301 87, 143.532 87 C 142.764 87, 141.842 87.924, 141.483 89.053 C 141.001 90.573, 140.504 90.833, 139.565 90.054 C 137.412 88.267, 129.743 89.049, 127.250 91.309 C 126.013 92.431, 125 93.756, 125 94.253 C 125 94.751, 127.025 97.183, 129.500 99.658 C 132.277 102.435, 133.956 104.989, 133.884 106.329 C 133.777 108.323, 133.727 108.340, 133.268 106.530 C 132.994 105.447, 129.889 101.397, 126.368 97.530 C 122.848 93.664, 119.712 89.375, 119.400 88 C 119.088 86.625, 117.970 82.825, 116.916 79.556 C 114.700 72.680, 114.475 68.486, 116.250 67.110 C 116.938 66.577, 119.525 64.337, 122 62.132 C 125.506 59.008, 126.235 57.855, 125.301 56.913 C 124.365 55.968, 123.317 56.393, 120.517 58.851 C 118.544 60.583, 116.568 62, 116.124 62 C 115.681 62, 114.739 59.412, 114.032 56.250 C 113.324 53.087, 112.535 49.825, 112.278 49 C 111.997 48.097, 112.148 47.898, 112.656 48.500 C 113.120 49.050, 116.104 50.850, 119.287 52.500 C 129.292 57.687, 131.586 62.053, 125.059 63.487 C 123.367 63.859, 122.254 64.602, 122.586 65.140 C 122.919 65.677, 124.537 65.821, 126.183 65.460 C 129.062 64.827, 129.130 64.892, 127.963 67.151 C 127.296 68.443, 125.830 70.511, 124.704 71.746 C 123.579 72.981, 123.004 74.331, 123.427 74.746 C 124.381 75.682, 129.342 69.870, 131.684 65.075 C 132.714 62.964, 133.588 58.353, 133.817 53.815 C 134.148 47.264, 133.844 45.338, 131.752 40.769 C 126.226 28.700, 117.701 22.912, 104.500 22.268 C 97.247 21.915, 95.940 22.153, 90.500 24.818 M 102.964 29.806 C 104.647 31.899, 107.255 36.520, 108.761 40.074 C 110.616 44.451, 111.988 46.441, 113.013 46.241 C 113.845 46.078, 117.175 47.540, 120.412 49.489 C 123.650 51.439, 126.396 52.914, 126.514 52.767 C 127.824 51.139, 129 47.561, 129 45.201 C 129 38.887, 121.295 34.104, 113.485 35.569 C 110.354 36.156, 110 35.997, 110 34 C 110 31.984, 110.348 31.837, 113.750 32.423 C 115.813 32.778, 118.850 33.298, 120.500 33.579 L 123.500 34.090 120.500 31.529 C 117.007 28.547, 109.300 26, 103.771 26 L 99.906 26 102.964 29.806 M 94.146 28.325 C 93.517 29.082, 92.716 31.794, 92.365 34.351 C 91.517 40.542, 89.713 40.335, 90.153 34.097 C 90.452 29.872, 90.281 29.312, 88.914 30.045 C 87.531 30.786, 79.987 38.586, 80.008 39.253 C 80.012 39.389, 83.057 39.542, 86.774 39.594 C 93.880 39.693, 103.633 41.574, 105.750 43.253 C 107.917 44.972, 107.124 42.702, 103.250 36.097 C 98.911 28.700, 95.940 26.163, 94.146 28.325 M 79.696 43.189 C 78.525 44.074, 78.132 45.180, 78.576 46.338 C 79.196 47.952, 79.536 47.860, 82.120 45.385 C 85.868 41.794, 87.176 43.163, 83.582 46.915 L 80.809 49.809 89.280 54.006 C 96.417 57.543, 98.086 58.025, 99.876 57.067 C 102.789 55.507, 106 57.307, 106 60.500 C 106 63.626, 102.795 65.496, 100 64 C 98.900 63.411, 98 62.331, 98 61.599 C 98 60.867, 94.737 58.816, 90.750 57.041 C 86.763 55.266, 82.717 53.115, 81.760 52.261 C 80.152 50.826, 79.898 50.999, 78.419 54.540 C 75.108 62.463, 79.698 68.061, 90.124 68.815 C 95.092 69.175, 96.451 68.946, 97.191 67.624 C 97.897 66.362, 98.547 66.222, 100.027 67.014 C 101.360 67.728, 103.332 67.693, 106.474 66.902 C 111.107 65.736, 111.544 65.029, 111.052 59.500 C 110.657 55.061, 107.756 46.331, 106.665 46.297 C 106.024 46.277, 102.723 45.524, 99.328 44.623 C 90.016 42.152, 81.856 41.556, 79.696 43.189 M 91.337 47.238 C 91.448 49.447, 92.057 50.582, 93.253 50.812 C 95.967 51.332, 96.563 48.173, 94.170 45.944 C 91.385 43.349, 91.147 43.457, 91.337 47.238 M 76.583 50.643 C 75.665 53.037, 76.381 53.221, 77.796 50.955 C 78.468 49.880, 78.611 49, 78.115 49 C 77.620 49, 76.930 49.739, 76.583 50.643 M 129.203 53.854 C 128.166 54.511, 128.217 54.935, 129.453 55.961 C 130.766 57.051, 131 56.925, 131 55.122 C 131 52.731, 130.987 52.722, 129.203 53.854 M 107.857 70.205 C 103.895 71.539, 103.556 75.315, 107.251 76.951 C 111.032 78.624, 112.264 77.364, 111.271 72.836 C 110.554 69.562, 110.315 69.378, 107.857 70.205 M 84.548 73.056 C 86.932 75.694, 94.340 79.488, 98.753 80.330 L 102.006 80.951 100.503 77.354 C 99.676 75.375, 99 73.586, 99 73.378 C 99 73.170, 96.554 73, 93.565 73 C 90.576 73, 86.885 72.527, 85.363 71.948 L 82.596 70.896 84.548 73.056 M 108.502 84.153 C 110.358 87.644, 113.551 92.075, 115.599 94 L 119.322 97.500 116.537 93.744 C 114.844 91.459, 113.554 88.226, 113.246 85.494 C 112.830 81.802, 112.376 81, 110.699 81 C 109.576 81, 107.863 80.281, 106.892 79.403 C 105.826 78.438, 106.463 80.318, 108.502 84.153 M 125 212.467 C 111.729 214.017, 103.257 215.810, 101.791 217.379 C 101.051 218.171, 98.641 218.457, 94.952 218.190 C 89.342 217.784, 87.121 218.769, 88.524 221.039 C 88.877 221.610, 89.241 224.963, 89.333 228.488 C 89.472 233.838, 89.210 234.974, 87.750 235.356 C 86.787 235.607, 86 236.702, 86 237.790 C 86 238.926, 85.149 239.989, 84 240.290 C 82.473 240.689, 82 241.654, 82 244.368 C 82 247.632, 82.308 248.006, 85.763 248.936 C 100.951 253.026, 179.823 253.087, 194.923 249.021 C 198.722 247.998, 199 247.680, 199 244.368 C 199 241.727, 198.516 240.686, 197.116 240.320 C 195.817 239.980, 195.392 239.215, 195.748 237.855 C 196.104 236.494, 195.680 235.729, 194.382 235.390 C 192.767 234.968, 192.521 233.995, 192.646 228.521 C 192.727 225.014, 193.091 221.662, 193.455 221.072 C 194.907 218.723, 192.698 217.785, 186.873 218.276 C 183.643 218.548, 181 218.425, 181 218.002 C 181 216.355, 171.616 214.253, 156.500 212.514 C 141.583 210.799, 139.317 210.795, 125 212.467"  fill-rule="evenodd"/></svg>