<?xml version="1.0" encoding="UTF-8"?>
<svg width="100pt" height="100pt" version="1.1" viewBox="0 0 100 100" xmlns="http://www.w3.org/2000/svg">
 <g>
  <path d="m18.75 47.918c-0.20703 0-0.625 0-0.83203 0.20703-0.83594 0.20703-1.25 1.043-1.25 1.875v14.582c0 9.375 9.375 18.75 18.75 18.75h6.25v-13.332l-21.461-21.457c-0.41406-0.41797-0.83203-0.625-1.457-0.625z"/>
  <path d="m82.082 48.125c-0.20703-0.20703-0.625-0.20703-0.83203-0.20703-0.625 0-1.043 0.20703-1.457 0.625l-25.625 25.625v-20.418c26.875-3.957 12.293-35.832 12.293-35.832-0.21094-0.625-1.043-1.25-1.8789-1.25-0.83203 0-1.668 0.625-1.875 1.457l-5.418 9.582-5.418-9.582c-0.20312-0.83203-1.0391-1.457-1.8711-1.457s-1.668 0.625-1.875 1.457l-5.418 9.582-5.418-9.582c-0.20703-0.83203-1.0391-1.457-1.8711-1.457s-1.668 0.625-1.875 1.457c0 0-14.582 31.875 12.293 35.832l-0.003907 29.375h18.75c9.375 0 18.75-9.375 18.75-18.75v-14.582c0-0.83203-0.41406-1.668-1.25-1.875z"/>
 </g>
</svg>
