<?xml version="1.0" encoding="UTF-8"?>
<svg width="100pt" height="100pt" version="1.1" viewBox="0 0 100 100" xmlns="http://www.w3.org/2000/svg">
 <path d="m40.438 71.031c-0.26562 0.51172-0.79688 0.83203-1.375 0.82812h-14.062v23.453c0 0.41406-0.16406 0.8125-0.45703 1.1055s-0.69141 0.45703-1.1055 0.45703h-3.125c-0.41406 0-0.8125-0.16406-1.1055-0.45703s-0.45703-0.69141-0.45703-1.1055v-23.453h-14.062c-0.57812 0.003906-1.1094-0.3125-1.375-0.82812-0.28125-0.5-0.25-1.1211 0.078125-1.5938l5.6719-8.5195h-2.8125c-0.5625-0.003907-1.0781-0.30469-1.3555-0.79297-0.27734-0.48438-0.27344-1.0859 0.011719-1.5664l5.1406-8.582-2.2344-0.003906c-0.53125 0.003906-1.0273-0.26562-1.3125-0.71875-0.28516-0.44531-0.32422-1.0039-0.10938-1.4844l14.062-31.266c0.25-0.5625 0.80859-0.92578 1.4219-0.92578s1.1719 0.36328 1.4219 0.92578l6.0625 13.461-2.125 3.5312c-0.87109 1.4492-0.89453 3.25-0.0625 4.7227 0.48047 0.84375 1.2109 1.5234 2.0938 1.9375l-4.9844 7.1289c-1.0039 1.4297-1.1211 3.3008-0.3125 4.8477 0.55859 1.0938 1.5312 1.9219 2.7031 2.2969l-5.3281 6.6758c-1.125 1.4102-1.3438 3.3359-0.56641 4.9609s2.4219 2.6641 4.2227 2.668h14.891l0.46875 0.70312c0.32812 0.47266 0.35938 1.0938 0.078125 1.5938zm56.172-1.5938-5.6719-8.5195h2.8125c0.5625-0.003907 1.0781-0.30469 1.3555-0.79297 0.27734-0.48438 0.27344-1.0859-0.011719-1.5664l-5.1406-8.582 2.2344-0.003906c0.53125 0.003906 1.0273-0.26562 1.3125-0.71875 0.28516-0.44531 0.32422-1.0039 0.10938-1.4844l-14.062-31.266c-0.25-0.5625-0.80859-0.92578-1.4219-0.92578s-1.1719 0.36328-1.4219 0.92578l-6.0625 13.461 2.125 3.5312c0.87109 1.4492 0.89453 3.25 0.0625 4.7227-0.48047 0.84375-1.2109 1.5234-2.0938 1.9375l4.9844 7.1289c1.0039 1.4375 1.1211 3.3086 0.3125 4.8633-0.5625 1.0859-1.5352 1.9102-2.7031 2.2812l5.3281 6.6758c1.1328 1.4062 1.3594 3.3398 0.57812 4.9688-0.78125 1.6289-2.4258 2.6641-4.2344 2.6602h-14.891l-0.46875 0.70312c-0.32812 0.47266-0.35938 1.0898-0.078125 1.5938 0.26562 0.51172 0.79688 0.83203 1.375 0.82812h14.062v23.453c0 0.41406 0.16406 0.8125 0.45703 1.1055s0.69141 0.45703 1.1055 0.45703h3.125c0.41406 0 0.8125-0.16406 1.1055-0.45703s0.45703-0.69141 0.45703-1.1055v-23.453h14.062c0.57812 0.003906 1.1094-0.3125 1.375-0.82812 0.28125-0.5 0.25-1.1211-0.078125-1.5938zm-20.387-6.3711-9.2188-11.531h4.8711c0.58203 0 1.1172-0.32422 1.3867-0.83984 0.26953-0.51562 0.22656-1.1406-0.10547-1.6172l-8.1211-11.609 3.7148-0.003906c0.5625 0 1.082-0.30078 1.3594-0.79297 0.27734-0.48828 0.26953-1.0898-0.019531-1.5742l-18.75-31.266c-0.30469-0.44531-0.80469-0.70703-1.3398-0.70703s-1.0352 0.26172-1.3398 0.70703l-18.75 31.266c-0.28906 0.48438-0.29688 1.0859-0.019531 1.5742 0.27734 0.49219 0.79688 0.79297 1.3594 0.79688h3.7188l-8.125 11.609c-0.33203 0.47656-0.37109 1.1016-0.10547 1.6172 0.26953 0.51563 0.80469 0.83984 1.3867 0.84375h4.875l-9.2188 11.531c-0.375 0.46875-0.44922 1.1094-0.1875 1.6523 0.25781 0.53906 0.80469 0.88281 1.4062 0.88672h20.312v29.703c0 0.41406 0.16406 0.8125 0.45703 1.1055s0.69141 0.45703 1.1055 0.45703h6.25c0.41406 0 0.8125-0.16406 1.1055-0.45703s0.45703-0.69141 0.45703-1.1055v-29.703h20.312c0.60156-0.003906 1.1484-0.34766 1.4102-0.88672 0.25781-0.54297 0.1875-1.1836-0.1875-1.6562z"/>
</svg>
