<?xml version="1.0" encoding="UTF-8"?>
<svg width="100pt" height="100pt" version="1.1" viewBox="0 0 100 100" xmlns="http://www.w3.org/2000/svg">
 <g>
  <path d="m51.898 85.898c0 0.10156-0.10156 0.19922-0.10156 0.30078 3.1992-0.10156 6.6016-0.80078 9.6016-1.8008-7.8008-6.8008-16-11.602-24.199-19.898-7.8008-8-15-18.5-21.5-26.102-0.39844 1.1992-0.69922 2.5-1 3.6992-0.10156 0.19922 0.19922 0.19922 0.19922 0.39844 0.10156 0.10156 0 0.30078-0.10156 0.39844 0.19922 0 0.39844 0 0.60156 0.19922 0.19922 0 0.39844 0 0.60156 0.10156 0.10156 0.10156 0.60156 0.30078 0.60156 0.5 0 0-0.30078 0.30078-0.30078 0.30078 0.39844 0.30078 0.89844 0.60156 1.3984 0.69922-0.10156 0-0.10156 0.10156-0.10156 0.19922 0 0.10156 0.10156 0.19922 0.10156 0.19922-0.19922 0.10156-0.39844 0.30078-0.5 0.5l0.30078 0.30078c0.39844 0.30078 0.89844 0.60156 1.3008 1 0.30078 0.19922 0.5 0.5 0.80078 0.69922 0.10156 0 0.10156 0.10156 0.19922 0.10156 0.19922 0.19922 0.5 0.39844 0.60156 0.60156l0.10156 0.10156c0.10156 0.10156 0.19922 0.19922 0.19922 0.39844 0.39844 0.80078 0.39844 1.8984 0.19922 2.8008 0.19922 0.60156 0.39844 1.1992 0.60156 1.8008 0.30078 0.19922 0.60156 0.5 0.80078 0.80078 0.19922 0.10156 0.39844 0.19922 0.5 0.30078 0.30078 0.19922 0.39844 0.60156 0.10156 0.39844v0.39844c-0.30078-0.19922 1.1016 1.5 1.1992 1.8008 0.19922 0.39844 0.60156 0.5 1 0.69922 0.60156 0.30078 1.1016 0.80078 1.3008 1.5-0.5 0-1.1016 0.10156-1.6016 0-0.69922-0.10156-1.1992-0.39844-1.6992-0.89844-0.10156-0.10156-0.30078-0.30078-0.5-0.30078-0.10156 0-0.19922 0.10156-0.30078 0.10156-0.30078 0.10156-0.5-0.10156-0.69922-0.30078-0.80078-0.69922-1.8984-1.1016-2.8984-1.3008-0.10156 0-0.19922 0-0.39844-0.10156-0.10156-0.10156-0.19922-0.19922-0.19922-0.30078v-0.19922c0-0.10156 0-0.10156-0.10156-0.19922-0.30078-0.30078-0.80078-0.5-1.1992-0.39844 0-0.30078 0-0.89844-0.39844-0.89844-0.10156 0-0.30078 0.10156-0.30078 0.30078-0.10156-0.39844-0.69922-0.69922-0.89844-1-0.19922-0.39844-0.39844-0.89844-0.60156-1.3008-0.10156-0.30078-0.19922-0.60156-0.39844-0.89844-0.10156-0.19922-0.19922-0.80078-0.30078-1l-0.30078-0.30078c0.10156 9.1016 3.6016 18.199 10.602 25.199 6.1016 6.1016 13.898 9.6016 21.898 10.398 0.5 0.10156 0.80078-0.5 1-0.89844v-0.10156c-0.10156 0-0.19922 0-0.19922-0.10156-0.10156-0.10156-0.10156-0.19922-0.10156-0.30078-0.39844-0.69922-0.80078-1.5-0.89844-2.3984h-0.30078-0.10156c-0.10156 0.10156-0.19922 0.30078-0.10156 0.5 0 0.10156 0.10156 0.10156 0.10156 0.19922 0.10156 0.5-0.69922-0.19922-0.80078-0.30078 0.10156 0 0.10156-0.10156 0-0.10156-0.10156-0.39844-0.19922-0.80078-0.19922-1.3008 0-0.10156-0.10156-0.19922-0.19922-0.30078-0.10156-0.10156-0.19922 0-0.30078 0-0.60156 0-0.39844-0.69922-0.60156-1 0.39844-0.19922 0.89844-0.19922 1.3008-0.19922 0.39844 0.10156 0.80078 0.39844 1.1992 0.39844 0.30078 0 0.60156 0 0.89844 0.10156 0.30078 0.10156 0.60156 0.19922 1 0.39844 0.60156 0.19922 1.3008 0.5 1.8984 0.69922 0.30078 0.10156 0.60156 0.19922 0.80078 0.5 0.19922 0.30078 0.10156 0.60156 0.10156 0.89844 0 0.60156 0.19922 1.1992 0.60156 1.6992 0.10156 0.10156 0.10156 0.19922 0.19922 0.19922 0.10156 0 0.19922-0.10156 0.30078-0.10156 0.19922 0 0.39844 0.30078 0.30078 0.39844 0-0.10156 0.19922-0.10156 0.30078 0 0.10156 0.19922-0.19922 0.39844-0.30078 0.5-0.007812 0.31641-0.007812 0.51562-0.10937 0.61328z"/>
  <path d="m82.602 65.699c-0.10156-0.10156 0.69922-1.6016 0.80078-1.8008 0.19922-0.60156 0.39844-1.1992 0.60156-1.6992v-0.19922c0-0.10156-0.10156-0.10156-0.10156-0.10156-0.19922-0.10156-0.30078-0.19922-0.5-0.30078 0.10156-0.10156 0.19922-0.30078 0.19922-0.39844-0.10156 0-0.10156-0.10156-0.19922-0.10156-0.30078-0.19922-0.5-0.30078-0.80078-0.5-0.5 0.10156-0.89844 0-1.3008-0.19922h-0.19922v-0.10156c-0.5-0.30078-1-0.60156-1.6016-0.80078-0.5-0.19922-0.60156-0.69922-0.39844-1-0.10156-0.10156-0.19922-0.19922-0.30078-0.30078-0.19922-0.10156-0.30078-0.19922-0.5-0.19922-1-0.60156-2-1.3008-3.1016-1.8008-0.39844-0.19922-0.5-0.69922-0.30078-1-0.19922-0.19922-0.39844-0.5-0.39844-0.80078 0-0.19922 0.10156-0.39844 0.30078-0.60156 0.19922-0.19922 0.30078-0.5 0.5-0.69922v-0.10156c-0.10156-1.6992-1-3.1016-1.6016-4.6016 0-0.10156-0.10156-0.19922-0.10156-0.19922-0.19922-0.19922-0.5-0.39844-0.69922-0.60156-0.80078-0.60156-1.6992-1.1016-2.6016-1.6992-0.10156 0.10156-0.10156 0.30078-0.10156 0.39844-0.89844 0-1.6992-0.80078-2.1016-1.6992-0.39844-0.80078-0.69922-1.8008-1.5-2.3984-0.30078-0.19922-0.69922-0.39844-1-0.69922-0.60156-0.5-0.69922-1.3984-1.3008-1.8984 0.80078 0 1.6016 0.30078 2.3008 0.80078 0.69922 0.39844 1.3008 1 1.8984 1.6016 0.30078 0.19922 0.60156 0.5 1 0.39844 2.8984 2.1992 5.8984 4.1992 9.1016 6 0.39844 1.1992 1 2.1992 1.8984 3 0.69922 0.69922 1.6992 1.1992 2.1992 2.1016 0.39844 0.60156 0.60156 0.80078 1.3008 0.80078 0.19922 0 0.80078 0.60156 0.69922 0.10156 0-0.10156 0-0.30078 0.10156-0.30078 0.10156 0 0.10156 0.19922 0.10156 0.30078 0 0.39844-0.19922 1.1016 0.30078 1.1992 0.39844 0.10156 0.30078-0.5 0.69922-0.5-0.19922 0.30078-0.19922 0.60156-0.10156 1h0.10156c1.8008-11.102-1.6016-22.801-10.102-31.398-4.8008-4.8008-10.699-8-16.898-9.5l-0.59375-0.19922c0.10156 0.5 0.30078 1.1016 0.39844 1.6016h0.19922c0 0.10156-0.10156 0.19922-0.10156 0.30078 0.10156-0.10156 0.69922 0 0.80078 0 0.19922 0.10156 0.39844 0.39844 0.60156 0.60156 0.30078 0.5-0.80078 1.1016-0.30078 1.1992-0.19922 0-0.30078-0.10156-0.5-0.10156 0 0.19922-0.10156 0.39844-0.19922 0.60156-0.19922 0.30078-0.5 0.5-0.60156 0.89844 0 0.10156-0.10156 0.30078-0.10156 0.39844 0.5 0.60156 0.89844 1.3008 1.1992 2.1016h0.19922c0.39844 0.10156 0.60156 0.39844 0.5 0.69922 0.19922 0.10156 0.30078 0.19922 0.5 0.30078 0.10156 0.10156 0.19922 0.10156 0.19922 0.19922 0.10156 0.19922 0 0.30078-0.19922 0.39844 0 0.10156 0 0.19922 0.10156 0.19922 0 0.30078 0 0.69922 0.10156 0.89844v0.10156c0.10156 0.10156 0.10156 0.19922 0.10156 0.30078h0.19922c0.39844 0.10156 0.60156 0.60156 0.5 0.89844v0.10156l0.10156 0.10156c0.30078 0.19922 0.60156 0.60156 0.69922 0.89844 0 0.19922 0.10156 0.30078 0 0.5-0.19922 0.30078-1.1016-0.10156-1.3008-0.19922-0.5-0.19922-1-0.5-1.3008-0.89844-0.10156-0.10156-0.19922-0.30078-0.39844-0.30078-0.19922-0.10156-0.39844-0.19922-0.60156-0.30078-0.39844-0.19922-0.69922-0.60156-1.1016-0.89844-0.19922-0.19922-0.5-0.39844-0.80078-0.69922-0.10156 0-0.10156 0-0.19922-0.10156-0.19922 0-0.39844-0.19922-0.39844-0.39844-0.10156-0.10156-0.30078-0.19922-0.39844-0.30078-0.39844-0.19922-0.60156-0.5-0.89844-0.80078h-0.10156v-0.10156c-0.19922-0.19922-0.30078-0.5-0.5-0.69922-0.19922 0-0.30078-0.19922-0.39844-0.30078-0.10156-0.10156-0.10156-0.30078-0.10156-0.39844 0 0 0-0.10156-0.10156-0.10156h-0.19922c0-0.19922-0.10156-0.30078-0.10156-0.5l-0.10156-0.10156c-0.10156-0.10156-0.19922-0.30078-0.19922-0.39844-0.39844-0.60156-0.80078-1.3008-1.1992-1.8008-0.19922-0.10156-0.39844-0.19922-0.39844-0.5-0.10156-0.19922-0.19922-0.39844-0.10156-0.60156-0.10156-0.60156-0.10156-1.1992 0-1.8008h-0.10156s0.10156 0 0.10156-0.10156c0.10156-0.60156 0.30078-1.1992 0.69922-1.6992 0.10156-0.19922 0.19922-0.39844 0.30078-0.39844-0.10156 0.10156-0.30078 0.10156-0.39844 0.19922v-0.19922c-6.1992-0.39844-12.398 0.69922-18.102 3.5-13.695-9.9961-24.598-14.695-28.098-11.098-3.5977 3.5 1.1016 14.402 11.199 28.102 5.8984 8 13.602 16.898 22.5 25.898 8.8984 8.8984 17.898 16.602 25.898 22.5 13.699 10 24.602 14.699 28.102 11.199 3.4023-3.5977-1.1992-14.5-11.297-28.199zm-47.203-43.098c0.19922 0.10156 0.30078 0.19922 0.5 0.30078 0.30078 0.19922 0.60156 0.39844 0.69922 0.80078-0.19922 0-0.30078 0.10156-0.39844 0.30078 0.10156 0.30078 0.30078 0.5 0.39844 0.69922 0.89844 1.3984 1.6992 2.8008 1.8984 4.5 0.39844 0.39844 0.80078 0.89844 1 1.5 0.19922 0.5 0.39844 0.89844 0.5 1v0.30078c0 0.19922 0.19922 0.39844 0.30078 0.60156 0.39844-0.10156 0.89844 0.10156 1.1016 0.5 0.30078 0.30078 0.5 0.69922 0.80078 1-1.1016 0.30078-2.1992-0.10156-3.1992-0.69922-0.30078-0.19922-0.69922-0.39844-1-0.19922 0 0-1.6992-1-1.8008-1.1016-0.60156-0.30078-1.3008-0.60156-2-0.69922-0.10156 0-0.10156 0-0.19922-0.10156-0.10156-0.10156-0.10156-0.10156-0.10156-0.19922-0.10156-0.30078-0.30078-0.5-0.60156-0.5-0.19922 0-0.39844 0-0.5-0.19922v-0.19922c0-0.19922-0.10156-0.39844-0.30078-0.39844-0.30078-0.10156-0.39844 0.10156-0.60156 0.10156-0.19922-0.10156-0.39844-0.39844-0.5-0.60156-0.5-0.80078-0.60156-1.6992-0.89844-2.5-0.30078-0.60156-0.69922-1.1992-1.1992-1.6992-0.10156-0.10156-0.30078-0.30078-0.30078-0.39844 0-0.10156 0-0.19922-0.10156-0.30078-0.19922-0.30078-0.80078-0.10156-0.89844-0.5-0.10156 0-0.19922 0.10156-0.19922 0.10156v-0.60156c0-0.10156 0-0.10156-0.10156-0.19922-0.10156-0.10156-0.30078 0-0.39844 0.10156 0.19922-0.30078 0.10156-0.69922 0.10156-1s0-0.60156 0.19922-0.80078c-1.1992 0.80078-2.1992 1.8008-3.1992 2.8008-0.5 0.5-1 1.1016-1.5 1.6992 6 8.8008 14.102 19 24.602 29.301 9.3008 9.0859 18.5 16.289 26.5 21.887 0.60156-0.5 1.1016-1 1.6992-1.5 0.5-0.5 1-1.1016 1.5-1.6016-0.10156 0.10156-0.19922 0-0.39844-0.19922-1-0.19922-2-0.89844-2.8984-1.3008-0.39844-0.19922-0.80078-0.39844-1-0.80078 0-0.10156-0.10156-0.10156-0.10156-0.19922-0.30078-0.10156-0.5-0.19922-0.5-0.19922-0.60156-0.39844-1.1992-0.69922-1.6992-1.1016l-0.10156-0.10156v-0.19922c0.30078-0.80078-0.19922-1.8008-1-2.1016-0.5-0.19922-1.1016-0.10156-1.6016-0.19922-0.5-0.10156-1-0.60156-0.89844-1.1016 0.10156-0.39844 0.5-0.5 0.80078-0.69922 0.19922-0.10156 0.30078-0.19922 0.5-0.30078-0.30078-0.5-0.60156-1-0.80078-1.5 0-0.10156-0.10156-0.10156-0.10156-0.19922-0.39844-0.39844-0.80078-0.89844-1.1016-1.3984-0.89844-1.1992-2.1016-2-3.1016-3.1016-0.10156-0.10156-0.10156-0.10156-0.10156-0.19922h-0.10156c-0.5-0.19922-0.80078-0.69922-1-1.1016-0.39844-0.5-0.89844-0.69922-1.3008-1.1992-0.30078-0.39844-0.60156-0.89844-0.89844-1.3008 0 0 0.80078 0.10156 0.89844 0.10156 1.1992 0.30078 2.1992 1.1992 3.1992 1.8008 1.1992 0.80078 2.3984 1.6016 3.6016 2.3984 0.39844 0.30078 0.89844 0.60156 1.3984 0.39844 0.10156 0.39844 0.60156 0.5 0.89844 0.69922 0.80078 0.39844 1.1992 1.5 1.6016 2.3008 0.5 1 1.3008 1.8008 2.3008 2.3008-0.10156 0-0.19922 0.10156-0.19922 0.19922 0.39844 0 0.80078 0.10156 1.1016 0.39844 0.19922 0.19922 0.5 0.5 0.80078 0.30078v0.89844c0.69922 0.5 1.1992 1.1016 1.8008 1.8008 0.5 0.60156 1 1.3984 1.6992 1.8008 0.39844-0.19922 0.60156-0.69922 0.89844-0.89844 0.5-0.69922 0.89844-1.3984 1.3984-2.1992 4.1016 6.8984 5.6016 12.199 3.6016 14.301-2 2-7 0.60156-13.602-3.1992-7.8008-4.5-17.898-12.5-28-22.602-10.102-10.102-18.102-20.199-22.602-28-3.7891-6.3945-5.1914-11.395-3.1914-13.395s7-0.60156 13.602 3.1992h0.10156c0.19922 0.10156 0.30078 0.19922 0.5 0.30078h0.10156c-0.10156 0.10156-0.10156 0.10156-0.10156 0.19922h0.39844l0.30078 0.30078c0.10156 0.10156 0.19922 0.10156 0.30078 0.10156-0.10156 0-0.10156 0.10156-0.10156 0.19922 0 0 0 0.10156 0.10156 0.10156l0.10156 0.10156c0.10156 0.10156 0.30078 0.19922 0.39844 0.19922 0.19922 0.10156 0.5 0.30078 0.5 0.5v0.19922c0.10156 0 0.10156 0.10156 0.19922 0.10156 0.69922 0.69531 1.1992 1.3945 1.5977 2.0977zm53.703 65.098c-6.1016 6.1016-29.301-9.8008-48.102-28.699-18.898-18.801-34.801-42-28.699-48.102 3.3008-3.3008 11.801-0.10156 21.801 6.6016l-0.90234 0.5c-10.102-6.3984-17.602-8.6016-20-6.1992-4.3008 4.3008 6.3008 23.898 28.699 46.301 22.402 22.398 42.102 32.898 46.301 28.699 2.3984-2.3984 0.19922-9.8984-6.1992-20l0.39844-1c6.8008 10.098 10 18.598 6.7031 21.898z"/>
 </g>
</svg>
