<?xml version="1.0" encoding="UTF-8" standalone="no"?>
<!DOCTYPE svg PUBLIC "-//W3C//DTD SVG 1.1//EN" "http://www.w3.org/Graphics/SVG/1.1/DTD/svg11.dtd">
<svg width="100%" height="100%" viewBox="0 0 300 300" version="1.1" xmlns="http://www.w3.org/2000/svg" xmlns:xlink="http://www.w3.org/1999/xlink" xml:space="preserve" xmlns:serif="http://www.serif.com/" style="fill-rule:evenodd;clip-rule:evenodd;stroke-linejoin:round;stroke-miterlimit:2;">
    <rect id="Artboard2" x="0" y="0" width="300" height="300" style="fill:#573e79;"/>
    <path d="M50.292,199.133c0,24.747 12.013,40.604 39.163,40.364c20.902,-0 38.922,-29.792 43.246,-44.689l0.481,0l-0.961,5.286c-0.721,3.604 -1.922,10.091 -1.922,14.416c-0,13.454 8.649,25.467 26.669,25.467c26.188,0 40.603,-15.857 44.928,-36.039c0.481,-2.643 -0.24,-5.045 -2.643,-5.045c-2.162,-0 -4.084,1.922 -5.766,4.565c-3.364,5.526 -8.409,14.175 -13.695,14.175c-3.604,0 -4.805,-2.402 -4.805,-6.727c0,-2.403 0.24,-5.286 0.961,-8.89l30.273,-141.753c0.48,-2.643 -0.721,-4.325 -3.364,-4.325l-2.402,0c-2.163,0 -5.526,0.721 -8.65,1.682c-10.571,3.364 -31.954,7.208 -47.091,7.929c-2.643,0.24 -4.565,1.922 -5.285,4.565l-0.481,2.883c-0.721,2.643 0.721,4.324 3.364,4.324l12.253,0l-9.61,45.41c-6.487,-2.163 -14.176,-4.085 -23.306,-4.085c-43.967,-0.48 -71.357,39.883 -71.357,80.487Zm49.013,5.526c0,-17.779 10.091,-73.519 30.753,-73.519c3.845,-0 8.41,2.162 12.013,4.324l-3.603,17.539c-8.169,35.078 -23.065,67.033 -31.955,66.792c-4.565,0 -7.208,-4.564 -7.208,-15.136Z" style="fill:#f7ede2;fill-rule:nonzero;"/>
    <path d="M202.617,227.964c-0,10.812 6.967,16.098 18.5,16.098c16.578,-0 28.591,-12.254 28.591,-28.591c-0,-10.812 -7.688,-17.059 -18.74,-17.059c-17.059,0 -28.351,13.215 -28.351,29.552Z" style="fill:#f7ede2;fill-rule:nonzero;"/>
</svg>
