<svg width="1373" height="1373" viewBox="0 0 1373 1373" fill="none" xmlns="http://www.w3.org/2000/svg">
<path d="M1305.28 390.227L1305.39 390.117L1297.27 373.976H1297.16C1264.6 310.289 1222.33 252.203 1171.38 201.308C1120.43 150.359 1062.29 108.029 998.765 75.527V75.4171L993.384 72.727C728.865 -59.6975 410.541 -8.03444 201.253 201.253C-8.03438 410.541 -59.6975 728.865 72.7269 993.384L75.4172 998.71H75.4721C108.029 1062.4 150.304 1120.43 201.253 1171.38C252.148 1222.27 310.234 1264.6 373.866 1297.16L379.247 1299.9C476.973 1348.82 582.056 1372.59 686.261 1372.59C864.089 1372.59 1039.39 1303.31 1171.32 1171.38C1377.7 965 1430.79 652.496 1305.17 390.227H1305.28ZM1146.07 226.618C1183.07 263.622 1215.24 304.525 1242.15 348.776C1241.32 348.447 1240.44 348.117 1239.62 347.788C1233.91 345.482 1228.2 343.286 1222.44 341.145C1221.94 340.98 1221.45 340.76 1220.9 340.541C1214.7 338.235 1208.44 336.093 1202.12 334.007C1200.48 333.458 1198.83 332.909 1197.18 332.36C1191.86 330.603 1186.48 328.956 1181.1 327.364C1179.94 327.035 1178.84 326.65 1177.69 326.321C1171.38 324.454 1165.01 322.697 1158.59 321.05C1157.05 320.666 1155.51 320.282 1153.97 319.897C1148.7 318.58 1143.38 317.262 1138.05 316.054C1136.57 315.725 1135.09 315.34 1133.6 315.011C1127.13 313.583 1120.65 312.266 1114.17 311.003C1112.91 310.783 1111.59 310.564 1110.33 310.289C1104.89 309.301 1099.4 308.313 1093.91 307.489C1092.21 307.215 1090.51 306.94 1088.8 306.666C1082.22 305.678 1075.63 304.744 1069.04 303.921H1068.71V303.701H1068.55V303.482C1067.67 296.783 1066.73 290.085 1065.75 283.442C1065.53 281.85 1065.25 280.258 1064.98 278.666C1064.1 273.011 1063.11 267.411 1062.07 261.811C1061.85 260.658 1061.63 259.45 1061.41 258.297C1060.15 251.763 1058.83 245.23 1057.35 238.697C1057.02 237.269 1056.69 235.897 1056.36 234.524C1055.15 229.089 1053.83 223.708 1052.46 218.328C1052.07 216.846 1051.75 215.418 1051.36 213.936C1049.66 207.512 1047.9 201.089 1046.04 194.72C1045.71 193.677 1045.43 192.634 1045.1 191.645C1043.46 186.155 1041.75 180.72 1040 175.285C1039.5 173.692 1038.95 172.1 1038.4 170.508C1036.32 164.194 1034.12 157.88 1031.82 151.622C1031.65 151.182 1031.49 150.743 1031.32 150.359C1029.18 144.539 1026.93 138.72 1024.62 132.955C1024.29 132.131 1024.02 131.308 1023.69 130.484C1067.94 157.386 1108.84 189.559 1145.85 226.563L1146.07 226.618ZM226.618 1146.07C189.669 1109.06 157.441 1068.16 130.539 1023.91C131.363 1024.24 132.131 1024.51 132.955 1024.84C138.774 1027.15 144.594 1029.46 150.469 1031.6C150.853 1031.76 151.292 1031.93 151.677 1032.04C157.935 1034.34 164.249 1036.48 170.563 1038.62C172.155 1039.17 173.802 1039.67 175.449 1040.22C180.83 1041.97 186.21 1043.62 191.645 1045.27C192.743 1045.6 193.842 1045.93 194.94 1046.26C201.308 1048.12 207.677 1049.88 214.046 1051.53C215.583 1051.91 217.12 1052.29 218.657 1052.68C223.928 1054 229.254 1055.31 234.579 1056.52C236.061 1056.85 237.544 1057.24 239.026 1057.57C245.505 1058.99 251.983 1060.31 258.462 1061.57C259.724 1061.79 260.987 1062.01 262.25 1062.29C267.74 1063.28 273.23 1064.26 278.775 1065.14C280.423 1065.42 282.124 1065.69 283.772 1065.91C290.36 1066.9 297.003 1067.83 303.646 1068.66H303.921V1068.87H304.085V1069.2C304.964 1075.85 305.897 1082.44 306.885 1089.08C307.16 1090.73 307.435 1092.37 307.654 1094.02C308.533 1099.62 309.521 1105.22 310.564 1110.77C310.784 1111.92 311.003 1113.13 311.223 1114.28C312.485 1120.87 313.858 1127.4 315.286 1133.93C315.56 1135.31 315.889 1136.62 316.219 1138C317.482 1143.49 318.799 1148.98 320.172 1154.47C320.501 1155.84 320.886 1157.21 321.215 1158.59C322.917 1165.06 324.674 1171.54 326.541 1177.97C326.815 1178.9 327.144 1179.83 327.419 1180.82C329.066 1186.42 330.823 1191.97 332.635 1197.57C333.129 1199.05 333.623 1200.59 334.117 1202.07C336.258 1208.44 338.454 1214.81 340.76 1221.12C340.87 1221.45 340.98 1221.72 341.09 1222.05C343.286 1228.04 345.592 1233.97 347.952 1239.9C348.282 1240.66 348.556 1241.49 348.886 1242.26C304.634 1215.35 263.677 1183.13 226.673 1146.12L226.618 1146.07ZM1146.07 1146.07C949.133 1342.95 650.3 1392.69 400.714 1270.53C399.396 1267.9 398.133 1265.21 396.87 1262.57C396.376 1261.53 395.882 1260.48 395.388 1259.44C391.435 1250.99 387.702 1242.48 384.133 1233.86C383.639 1232.65 383.145 1231.5 382.706 1230.29C381.443 1227.21 380.18 1224.14 378.972 1221.01C378.368 1219.53 377.819 1217.99 377.27 1216.51C376.172 1213.71 375.129 1210.85 374.086 1208C373.482 1206.41 372.933 1204.76 372.329 1203.17C371.341 1200.42 370.407 1197.68 369.419 1194.88C368.87 1193.23 368.321 1191.58 367.772 1189.88C366.839 1187.13 365.96 1184.33 365.082 1181.59C364.533 1179.94 364.039 1178.3 363.545 1176.65C362.666 1173.79 361.843 1170.94 360.964 1168.08C360.525 1166.49 360.031 1164.95 359.592 1163.36C358.713 1160.29 357.89 1157.21 357.066 1154.08C356.682 1152.71 356.298 1151.34 355.968 1149.97C354.98 1146.07 353.992 1142.22 353.058 1138.33C352.894 1137.72 352.784 1137.17 352.619 1136.57C351.521 1132.01 350.478 1127.46 349.49 1122.9C349.27 1121.91 349.105 1120.92 348.886 1119.99C348.117 1116.48 347.403 1112.91 346.745 1109.39C346.415 1107.8 346.141 1106.21 345.866 1104.62C345.317 1101.65 344.768 1098.74 344.274 1095.78C343.945 1093.97 343.67 1092.15 343.396 1090.34C342.956 1087.6 342.517 1084.85 342.078 1082.11C341.803 1080.18 341.529 1078.26 341.254 1076.34C341.035 1074.91 340.87 1073.54 340.705 1072.11C342.627 1072.22 344.548 1072.33 346.47 1072.44C349.819 1072.66 353.113 1072.83 356.462 1072.99C359.262 1073.1 362.062 1073.21 364.862 1073.32C368.047 1073.43 371.231 1073.54 374.36 1073.6C377.27 1073.65 380.235 1073.71 383.145 1073.71C384.902 1073.71 386.713 1073.76 388.47 1073.76C389.733 1073.76 390.996 1073.76 392.259 1073.76C395.113 1073.76 397.968 1073.76 400.823 1073.65C403.898 1073.65 406.918 1073.54 409.992 1073.43C412.847 1073.32 415.702 1073.27 418.557 1073.1C421.631 1072.99 424.651 1072.83 427.725 1072.61C430.58 1072.44 433.38 1072.28 436.235 1072.06C439.31 1071.84 442.384 1071.62 445.459 1071.35C448.259 1071.13 451.004 1070.91 453.804 1070.63C456.988 1070.36 460.118 1069.97 463.247 1069.64C465.938 1069.37 468.573 1069.09 471.263 1068.77C474.612 1068.38 477.961 1067.89 481.31 1067.45C483.781 1067.12 486.197 1066.79 488.667 1066.46C492.84 1065.86 496.957 1065.14 501.075 1064.48C502.722 1064.21 504.314 1063.99 505.961 1063.71C511.616 1062.73 517.271 1061.68 522.926 1060.53C525.012 1060.09 527.044 1059.65 529.13 1059.21C532.809 1058.44 536.432 1057.67 540.056 1056.85C542.417 1056.3 544.722 1055.75 547.028 1055.2C550.377 1054.44 553.726 1053.61 557.075 1052.79C559.491 1052.18 561.907 1051.53 564.377 1050.87C567.617 1049.99 570.801 1049.17 574.04 1048.23C576.511 1047.52 578.927 1046.8 581.342 1046.09C584.527 1045.16 587.656 1044.22 590.84 1043.24C593.256 1042.47 595.672 1041.7 598.142 1040.93C601.272 1039.94 604.456 1038.9 607.586 1037.8C610.001 1036.98 612.362 1036.15 614.778 1035.33C617.907 1034.23 621.092 1033.08 624.221 1031.93C626.582 1031.05 628.888 1030.22 631.194 1029.35C634.378 1028.14 637.562 1026.87 640.692 1025.67C642.943 1024.79 645.194 1023.91 647.445 1022.98C650.739 1021.66 653.978 1020.23 657.217 1018.86C659.304 1017.98 661.445 1017.1 663.531 1016.17C666.99 1014.63 670.449 1013.04 673.963 1011.45C675.774 1010.62 677.641 1009.8 679.453 1008.92C683.57 1007 687.688 1004.97 691.751 1002.94C692.904 1002.39 694.057 1001.84 695.155 1001.29C700.425 998.655 705.641 995.965 710.857 993.165C711.625 992.78 712.339 992.341 713.108 991.957C717.5 989.596 721.892 987.18 726.23 984.71C727.877 983.776 729.524 982.788 731.226 981.8C734.63 979.823 738.033 977.847 741.383 975.816C743.304 974.663 745.226 973.455 747.092 972.302C750.167 970.38 753.241 968.514 756.316 966.537C758.347 965.274 760.324 963.957 762.3 962.639C765.21 960.717 768.12 958.796 771.03 956.874C773.061 955.502 775.093 954.074 777.124 952.702C779.924 950.78 782.724 948.804 785.524 946.827C787.555 945.345 789.587 943.917 791.618 942.435C794.363 940.404 797.108 938.427 799.799 936.341C801.83 934.804 803.807 933.321 805.838 931.729C808.528 929.643 811.218 927.501 813.909 925.415C815.885 923.878 817.861 922.286 819.783 920.694C822.473 918.498 825.164 916.247 827.854 913.996C829.72 912.403 831.642 910.866 833.509 909.274C834.826 908.121 836.144 906.968 837.462 905.815H780.803C780.473 906.09 780.089 906.364 779.759 906.639C777.838 908.121 775.861 909.494 773.885 910.976C771.03 913.062 768.23 915.203 765.32 917.235C763.344 918.662 761.312 920.035 759.336 921.407C756.426 923.439 753.571 925.47 750.661 927.392C748.685 928.764 746.653 930.027 744.622 931.4C741.657 933.321 738.747 935.298 735.783 937.164C733.751 938.427 731.72 939.69 729.688 940.953C726.669 942.819 723.704 944.686 720.684 946.498C718.653 947.706 716.567 948.913 714.48 950.121C711.406 951.878 708.386 953.69 705.312 955.392C703.226 956.545 701.194 957.643 699.108 958.796C695.978 960.498 692.904 962.2 689.719 963.847C687.633 964.945 685.547 965.988 683.461 967.086C680.276 968.678 677.147 970.325 673.963 971.863C671.876 972.906 669.735 973.894 667.594 974.937C664.41 976.474 661.17 977.957 657.986 979.439C655.845 980.427 653.704 981.361 651.562 982.294C648.323 983.722 645.084 985.149 641.845 986.521C639.703 987.455 637.507 988.333 635.366 989.212C632.072 990.584 628.778 991.902 625.484 993.165C623.288 994.043 621.092 994.867 618.895 995.69C615.601 996.953 612.252 998.161 608.958 999.369C606.762 1000.19 604.511 1000.96 602.315 1001.73C598.966 1002.88 595.672 1004.04 592.268 1005.13C590.017 1005.9 587.766 1006.62 585.515 1007.33C582.166 1008.37 578.817 1009.42 575.468 1010.46C573.162 1011.12 570.911 1011.83 568.605 1012.49C565.256 1013.48 561.852 1014.41 558.503 1015.35C556.197 1015.95 553.891 1016.61 551.585 1017.16C548.181 1018.04 544.832 1018.86 541.428 1019.68C539.067 1020.23 536.707 1020.78 534.401 1021.33C530.997 1022.1 527.648 1022.87 524.244 1023.58C521.883 1024.07 519.467 1024.57 517.052 1025.06C513.703 1025.72 510.299 1026.38 506.895 1027.04C504.479 1027.48 502.008 1027.92 499.593 1028.36C496.244 1028.96 492.84 1029.51 489.436 1030C486.965 1030.39 484.495 1030.77 482.024 1031.16C478.675 1031.65 475.271 1032.09 471.922 1032.53C469.396 1032.86 466.871 1033.19 464.4 1033.46C461.051 1033.85 457.702 1034.23 454.353 1034.56C451.773 1034.84 449.247 1035.06 446.667 1035.33C443.318 1035.6 440.024 1035.88 436.675 1036.15C434.094 1036.32 431.459 1036.54 428.878 1036.7C425.584 1036.92 422.235 1037.09 418.886 1037.2C416.251 1037.31 413.616 1037.47 410.98 1037.53C407.686 1037.64 404.392 1037.69 401.043 1037.75C398.353 1037.75 395.717 1037.86 393.027 1037.86C389.733 1037.86 386.439 1037.86 383.145 1037.86C380.455 1037.86 377.764 1037.86 375.019 1037.75C371.725 1037.69 368.431 1037.58 365.192 1037.42C362.447 1037.31 359.756 1037.25 357.011 1037.09C353.717 1036.92 350.423 1036.7 347.129 1036.48C344.384 1036.32 341.694 1036.15 338.948 1035.93C338.345 1035.93 337.686 1035.82 337.082 1035.77C337.082 1035.44 337.027 1035.06 336.972 1034.73C336.752 1032.2 336.643 1029.73 336.478 1027.2C336.258 1024.18 336.094 1021.11 335.929 1018.09C335.819 1015.56 335.709 1012.98 335.599 1010.46C335.49 1007.49 335.38 1004.47 335.27 1001.51C335.215 998.929 335.215 996.349 335.16 993.769C335.16 990.804 335.05 987.894 335.05 984.929C335.05 982.294 335.05 979.714 335.105 977.078C335.105 974.168 335.16 971.259 335.27 968.404C335.325 965.768 335.435 963.133 335.545 960.443C335.654 957.588 335.764 954.733 335.929 951.878C336.094 949.188 336.258 946.553 336.423 943.862C336.588 941.062 336.807 938.207 336.972 935.407C337.192 932.717 337.411 930.082 337.686 927.392C337.96 924.592 338.18 921.792 338.454 918.992C338.729 916.301 339.058 913.611 339.333 910.976C339.552 909.219 339.772 907.517 339.937 905.76H303.866C303.701 907.297 303.481 908.835 303.317 910.427C303.207 911.196 303.152 911.909 303.042 912.678C302.438 918.498 301.889 924.317 301.395 930.137V930.521C300.901 936.121 300.517 941.776 300.242 947.431C300.132 949.133 300.078 950.835 300.023 952.482C299.803 956.545 299.638 960.662 299.529 964.725C299.474 966.866 299.474 969.008 299.419 971.149C299.364 974.772 299.254 978.451 299.254 982.074C299.254 984.435 299.254 986.796 299.254 989.157C299.254 992.616 299.254 996.02 299.364 999.479C299.364 1001.95 299.529 1004.42 299.583 1006.89C299.693 1010.24 299.803 1013.53 299.968 1016.88C300.078 1019.46 300.242 1021.99 300.407 1024.57C300.572 1027.04 300.627 1029.51 300.846 1031.98C299.419 1031.82 298.046 1031.6 296.619 1031.43C294.697 1031.16 292.776 1030.88 290.854 1030.61C288.109 1030.17 285.364 1029.73 282.619 1029.29C280.807 1029.02 278.995 1028.69 277.128 1028.41C274.219 1027.92 271.254 1027.37 268.344 1026.82C266.752 1026.55 265.105 1026.22 263.513 1025.94C259.999 1025.28 256.43 1024.51 252.916 1023.8C251.928 1023.58 250.94 1023.42 249.952 1023.2C245.395 1022.21 240.838 1021.16 236.336 1020.12C235.677 1019.96 235.073 1019.79 234.414 1019.63C230.571 1018.69 226.728 1017.76 222.885 1016.72C221.512 1016.33 220.14 1016 218.767 1015.62C215.693 1014.8 212.563 1013.97 209.489 1013.09C207.897 1012.65 206.359 1012.16 204.767 1011.72C201.912 1010.9 199.057 1010.02 196.202 1009.14C194.555 1008.65 192.908 1008.1 191.261 1007.6C188.461 1006.73 185.716 1005.85 182.916 1004.91C181.269 1004.36 179.622 1003.82 177.975 1003.27C175.175 1002.33 172.43 1001.35 169.63 1000.36C168.037 999.808 166.445 999.204 164.853 998.655C161.998 997.612 159.143 996.514 156.288 995.471C154.806 994.922 153.324 994.373 151.841 993.769C148.712 992.561 145.637 991.298 142.508 990.035C141.355 989.541 140.147 989.102 138.939 988.608C130.319 985.039 121.81 981.306 113.355 977.353C112.366 976.914 111.378 976.419 110.39 975.925C107.7 974.663 104.955 973.345 102.264 972.027C-19.8933 722.441 29.7933 423.608 226.728 226.673C423.663 29.7384 722.496 -19.9482 972.082 102.209C972.906 103.911 973.729 105.559 974.553 107.261C975.376 108.962 976.2 110.664 977.023 112.366C978.341 115.112 979.604 117.912 980.812 120.712C981.471 122.139 982.129 123.567 982.788 125.049C984.6 129.112 986.357 133.174 988.059 137.292C988.114 137.457 988.223 137.622 988.278 137.841C990.09 142.124 991.792 146.461 993.494 150.743C993.988 152.061 994.482 153.378 994.976 154.696C996.129 157.716 997.282 160.735 998.38 163.755C998.984 165.347 999.533 166.994 1000.14 168.586C1001.13 171.332 1002.11 174.132 1003.05 176.877C1003.65 178.579 1004.2 180.335 1004.8 182.037C1005.68 184.728 1006.56 187.418 1007.44 190.163C1007.99 191.92 1008.54 193.677 1009.09 195.434C1009.91 198.124 1010.73 200.869 1011.56 203.559C1012.05 205.316 1012.6 207.073 1013.09 208.775C1013.92 211.575 1014.69 214.43 1015.46 217.285C1015.89 218.932 1016.33 220.579 1016.77 222.226C1017.6 225.41 1018.42 228.595 1019.19 231.779C1019.52 233.097 1019.85 234.414 1020.18 235.732C1021.27 240.289 1022.32 244.791 1023.31 249.348C1023.31 249.513 1023.36 249.677 1023.42 249.842C1024.35 254.179 1025.23 258.571 1026.11 262.964C1026.38 264.446 1026.66 265.928 1026.93 267.356C1027.53 270.43 1028.08 273.56 1028.63 276.689C1028.91 278.446 1029.24 280.203 1029.51 281.96C1030 284.815 1030.44 287.67 1030.88 290.525C1031.16 292.391 1031.43 294.203 1031.71 296.07C1031.93 297.607 1032.09 299.089 1032.31 300.627C1027.75 300.297 1023.14 300.132 1018.58 299.913C1016.72 299.803 1014.85 299.693 1013.04 299.638C992.561 298.815 972.192 298.925 951.878 299.913C951.713 299.913 951.494 299.913 951.329 299.913C944.796 300.242 938.262 300.682 931.729 301.176C930.96 301.231 930.192 301.34 929.423 301.395C923.494 301.889 917.564 302.438 911.635 303.097C910.537 303.207 909.439 303.372 908.341 303.482C902.795 304.14 897.25 304.799 891.705 305.568C890.388 305.732 889.015 305.952 887.697 306.172C882.427 306.94 877.156 307.709 871.886 308.642C870.403 308.917 868.921 309.191 867.438 309.466C862.333 310.344 857.282 311.278 852.176 312.266C850.583 312.595 848.936 312.925 847.344 313.254C842.458 314.242 837.517 315.286 832.63 316.438C830.873 316.823 829.171 317.262 827.415 317.701C822.693 318.799 817.916 319.952 813.195 321.215C811.383 321.709 809.571 322.203 807.759 322.697C803.148 323.96 798.536 325.223 793.979 326.54C792.112 327.09 790.191 327.693 788.324 328.242C783.877 329.56 779.375 330.933 774.983 332.36C773.006 333.019 771.085 333.623 769.108 334.282C764.771 335.709 760.434 337.192 756.096 338.729C754.065 339.443 752.089 340.156 750.057 340.925C745.83 342.462 741.602 344.054 737.43 345.646C735.343 346.47 733.312 347.239 731.226 348.062C727.108 349.709 723.045 351.356 718.982 353.058C716.896 353.937 714.755 354.87 712.669 355.748C708.661 357.45 704.708 359.207 700.755 361.019C698.614 362.007 696.472 362.996 694.386 363.984C690.488 365.796 686.645 367.662 682.802 369.529C680.661 370.572 678.464 371.67 676.323 372.713C672.535 374.635 668.802 376.557 665.068 378.533C662.872 379.686 660.676 380.839 658.535 381.992C654.856 383.968 651.233 386 647.609 388.031C645.413 389.294 643.217 390.502 641.021 391.764C637.452 393.796 633.939 395.937 630.425 398.023C628.229 399.341 625.978 400.659 623.837 402.031C620.378 404.172 616.974 406.368 613.57 408.565C611.374 409.992 609.123 411.42 606.982 412.847C603.633 415.043 600.284 417.349 596.989 419.6C594.793 421.082 592.597 422.62 590.401 424.157C587.162 426.463 583.923 428.824 580.683 431.129C578.487 432.722 576.291 434.314 574.15 435.906C570.966 438.267 567.836 440.737 564.652 443.153C562.511 444.8 560.315 446.447 558.228 448.149C555.099 450.62 552.079 453.145 549.005 455.671C546.864 457.428 544.777 459.13 542.636 460.887C540.605 462.643 538.573 464.4 536.542 466.157H593.531C594.299 465.553 595.068 464.949 595.891 464.345C598.307 462.534 600.778 460.777 603.193 459.02C605.884 457.043 608.574 455.067 611.319 453.145C613.735 451.443 616.26 449.796 618.676 448.094C621.476 446.173 624.221 444.306 627.021 442.439C629.492 440.792 631.962 439.255 634.433 437.663C637.288 435.851 640.143 433.984 643.052 432.227C645.523 430.69 648.049 429.208 650.519 427.725C653.484 425.969 656.394 424.212 659.359 422.455C661.829 421.027 664.355 419.655 666.825 418.227C669.845 416.525 672.865 414.823 675.939 413.176C678.41 411.859 680.935 410.541 683.406 409.223C686.535 407.576 689.665 405.984 692.794 404.392C695.265 403.129 697.79 401.921 700.261 400.714C703.445 399.176 706.684 397.584 709.869 396.102C712.339 394.949 714.865 393.851 717.335 392.698C720.63 391.215 723.924 389.733 727.218 388.306C729.688 387.262 732.159 386.219 734.684 385.176C738.033 383.804 741.383 382.376 744.787 381.058C747.257 380.07 749.728 379.137 752.198 378.149C755.657 376.831 759.061 375.513 762.52 374.251C764.991 373.372 767.461 372.494 769.932 371.615C773.446 370.407 776.959 369.2 780.473 367.992C782.944 367.168 785.414 366.4 787.885 365.576C791.453 364.423 795.022 363.325 798.591 362.282C801.061 361.568 803.532 360.8 806.003 360.141C809.626 359.098 813.25 358.109 816.873 357.121C819.344 356.462 821.814 355.803 824.285 355.2C827.964 354.266 831.642 353.333 835.321 352.454C837.791 351.85 840.262 351.301 842.732 350.752C846.466 349.929 850.144 349.105 853.878 348.337C856.348 347.843 858.874 347.294 861.344 346.854C865.078 346.141 868.811 345.427 872.599 344.768C875.125 344.329 877.595 343.89 880.121 343.505C883.909 342.901 887.642 342.297 891.431 341.748C893.956 341.364 896.482 341.035 899.007 340.65C902.796 340.156 906.584 339.662 910.372 339.223C912.897 338.948 915.478 338.619 918.003 338.344C921.792 337.96 925.58 337.576 929.368 337.246C931.949 337.027 934.529 336.807 937.11 336.588C940.898 336.313 944.631 336.093 948.419 335.874C951.055 335.709 953.635 335.544 956.27 335.435C960.004 335.27 963.737 335.16 967.471 335.05C970.161 334.995 972.796 334.886 975.486 334.831C979.165 334.776 982.843 334.776 986.576 334.831C989.322 334.831 992.067 334.831 994.812 334.831C998.435 334.831 1002.06 334.995 1005.68 335.105C1008.48 335.215 1011.34 335.27 1014.14 335.38C1017.71 335.544 1021.22 335.764 1024.79 335.984C1027.7 336.148 1030.61 336.313 1033.52 336.533C1034.34 336.588 1035.22 336.697 1036.04 336.752C1036.04 337.356 1036.15 338.015 1036.21 338.619C1036.43 341.254 1036.54 343.89 1036.7 346.58C1036.92 349.929 1037.14 353.333 1037.31 356.682C1037.42 359.372 1037.53 362.007 1037.64 364.698C1037.75 368.047 1037.86 371.396 1037.97 374.745C1038.02 377.435 1038.02 380.07 1038.07 382.761C1038.07 386.11 1038.13 389.404 1038.07 392.698C1038.07 395.388 1038.02 398.023 1037.97 400.714C1037.91 404.008 1037.86 407.302 1037.75 410.596C1037.64 413.286 1037.53 415.976 1037.42 418.667C1037.25 421.961 1037.09 425.2 1036.92 428.494C1036.76 431.184 1036.54 433.875 1036.37 436.565C1036.15 439.804 1035.88 443.043 1035.6 446.282C1035.38 448.973 1035.11 451.663 1034.84 454.298C1034.51 457.537 1034.18 460.722 1033.79 463.961C1046.04 466.267 1057.73 469.451 1068.71 473.569C1068.82 472.581 1068.98 471.592 1069.09 470.604C1069.59 466.487 1070.03 462.369 1070.41 458.251C1070.63 456.165 1070.85 454.134 1071.07 452.047C1071.51 447.326 1071.84 442.604 1072.22 437.828C1072.33 436.345 1072.5 434.863 1072.55 433.38C1073.38 420.918 1073.82 408.345 1073.98 395.772C1073.98 393.686 1073.98 391.6 1073.98 389.513C1073.98 385.341 1073.98 381.168 1073.98 376.941C1073.98 374.36 1073.82 371.78 1073.76 369.2C1073.65 365.521 1073.6 361.788 1073.43 358.109C1073.32 355.309 1073.1 352.454 1072.94 349.599C1072.77 346.58 1072.66 343.615 1072.44 340.595C1073.93 340.815 1075.41 340.98 1076.89 341.199C1078.81 341.474 1080.68 341.748 1082.6 342.023C1085.4 342.462 1088.2 342.901 1091 343.341C1092.81 343.615 1094.62 343.945 1096.38 344.219C1099.4 344.768 1102.48 345.317 1105.49 345.866C1107.03 346.141 1108.57 346.415 1110.11 346.744C1114.28 347.568 1118.4 348.392 1122.57 349.27C1122.95 349.38 1123.34 349.435 1123.72 349.49C1128.28 350.478 1132.78 351.521 1137.28 352.564C1138.66 352.894 1140.03 353.223 1141.4 353.607C1144.53 354.376 1147.66 355.145 1150.79 355.968C1152.49 356.407 1154.14 356.847 1155.84 357.341C1158.64 358.109 1161.44 358.878 1164.24 359.647C1166.05 360.141 1167.81 360.69 1169.57 361.184C1172.26 361.952 1174.89 362.776 1177.58 363.6C1179.39 364.149 1181.21 364.752 1183.02 365.302C1185.65 366.125 1188.29 367.003 1190.92 367.882C1192.68 368.486 1194.49 369.09 1196.25 369.694C1198.99 370.627 1201.68 371.615 1204.37 372.549C1206.02 373.153 1207.67 373.702 1209.32 374.36C1212.28 375.458 1215.24 376.556 1218.21 377.709C1219.58 378.258 1220.95 378.753 1222.33 379.302C1226.66 381.004 1230.95 382.706 1235.23 384.517C1235.39 384.572 1235.5 384.627 1235.67 384.682C1239.79 386.384 1243.9 388.196 1247.97 390.008C1249.45 390.666 1250.88 391.325 1252.3 391.984C1255.1 393.247 1257.85 394.51 1260.59 395.772C1262.3 396.596 1264 397.365 1265.7 398.188C1267.4 399.012 1269.1 399.835 1270.81 400.659C1392.91 650.245 1343.22 949.078 1146.29 1145.96L1146.07 1146.07Z" fill="#DEDCD3"/>
<path d="M374.91 732.598H317.537V857.556H237.434V513.153H393.412C434.588 513.153 465.169 523.804 485.977 545.106C506.785 565.475 518.864 591.883 518.864 625.209C518.864 671.052 493.883 705.751 453.585 721.947L534.126 857.556H445.239L374.855 732.598H374.91ZM317.537 670.119H388.361C421.247 670.119 439.749 654.362 439.749 625.209C439.749 596.056 420.753 580.299 388.361 580.299H317.537V670.119Z" fill="#DEDCD3"/>
<path d="M548.401 513.208H806.717V578.926H627.131V647.444H782.669V709.923H627.131V790.026H809.956V857.611H548.401V513.208V513.208Z" fill="#DEDCD3"/>
<path d="M815.446 686.754C815.446 583.977 881.658 507.169 984.38 507.169C1022.32 507.169 1055.2 516.447 1078.81 534.016C1109.83 556.691 1127.9 590.511 1132.07 629.382H1053.39C1048.78 596.989 1022.87 572.887 983.941 572.887C925.141 572.887 895.988 621.476 895.988 686.754C895.988 752.033 930.247 800.183 984.38 800.183C1026.49 800.183 1052.4 772.896 1056.14 737.21H1135.31C1133 771.469 1117.24 803.422 1093.64 826.536C1067.72 852.011 1032.53 865.407 984.38 865.407C883.909 865.407 815.446 789.477 815.446 686.7V686.754Z" fill="#DEDCD3"/>
</svg>
