<?xml version="1.0" encoding="utf-8"?>
<!-- Generator: Adobe Illustrator 26.0.3, SVG Export Plug-In . SVG Version: 6.00 Build 0)  -->
<svg version="1.0" id="Layer_1" xmlns="http://www.w3.org/2000/svg" xmlns:xlink="http://www.w3.org/1999/xlink" x="0px" y="0px"
	 viewBox="0 0 860.3 579" style="enable-background:new 0 0 860.3 579;" xml:space="preserve">
<style type="text/css">
	.st0{fill:#3A3839;}
	.st1{fill:#383637;}
	.st2{fill:#08D079;}
	.st3{fill:#393738;}
	.st4{fill:#3C3A3B;}
</style>
<path class="st0" d="M271.7,308.5c0,8.9,0,17.8,0,26.6c0,2.5-0.3,4.9-2.9,6c-2.7,1.3-5.9,1.1-8.4-0.4c-1.8-1.1-2.1-3-2.1-4.9
	c0-17.9-0.3-35.7,0.1-53.6c0.2-10.6,4-19.7,13.2-25.9c4.6-3.1,9.9-4.9,15.4-5.4c16.2-1.2,32.5-0.5,48.7-0.5c7.7,0,15.2,1.6,21.7,6.2
	c8.5,6.1,12.5,14.8,12.6,24.9c0.3,17.7,0.1,35.4,0.1,53c0,4.7-2.2,7.2-7,7.2c-14.4,0.1-28.8,0.5-43.2-0.2
	c-11.9-0.6-21.1-6.4-24.3-17.7c-3-10.4-2.4-20.4,4.9-29.1c4.4-5.2,10.3-7.8,16.9-8.6c9.9-1.2,19.9-0.4,29.8-0.6c2.4,0,4.8,0,7.2,0
	c1.4,0,2.2-0.4,2.2-1.9c0.2-9.8-4.8-18.3-15.3-20.9c-3-0.7-6-1-9-0.9c-13.3,0-26.6,0-40,0.1c-12.5,0.2-20.6,8.3-20.8,20.8
	L271.7,308.5L271.7,308.5z M338,297.2L338,297.2c-4.9,0-9.8-0.1-14.6,0c-9.8,0.5-15,5.3-15.8,15.1c-0.9,10.3,5,17.6,15.4,17.8
	s20.8,0,31.2,0.1c2,0,2.6-0.7,2.6-2.6c-0.1-9.2-0.1-18.5,0-27.7c0-2.1-0.6-2.8-2.7-2.8C348.7,297.3,343.3,297.2,338,297.2L338,297.2
	z"/>
<path class="st1" d="M612.6,316.4v-53.8c0-0.8,0-1.6,0-2.4c0-7.7,2.1-9.8,9.8-9.8c10.6,0,21.1-0.1,31.7,0c6.7,0.1,13.2,0.9,19.3,4
	c10,5.1,15.2,13.6,16,24.4c0.9,11.5,0.9,23.1,0,34.6c-1.2,14.7-10.6,25.1-25.8,27.5c-11.4,1.9-22.9,0.6-34.3,0.8
	c-2.4,0-3.2,0.6-3.1,3.1c0.2,9.2,0.1,18.5,0,27.7c0,1.5-0.1,3-0.4,4.5c-0.3,2.2-2.2,3.9-4.4,3.9c-1.3,0.1-2.7,0-4,0
	c-2.2,0-4.1-1.7-4.4-3.9c-0.3-1.6-0.5-3.2-0.5-4.8C612.6,353.7,612.6,335.1,612.6,316.4z M626.2,295.8c0,10.7,0,21.3,0,32
	c0,1.8,0.4,2.5,2.4,2.5c9-0.1,17.9,0.1,26.9-0.1c12.7-0.2,20.9-8.5,21.1-21.2c0.1-8.7,0.1-17.4,0-26.1c-0.2-12.4-8.7-20.8-21.1-20.9
	c-8.7-0.1-17.4,0-26.1-0.2c-2.7-0.1-3.2,0.9-3.2,3.3C626.3,275.4,626.2,285.6,626.2,295.8L626.2,295.8z"/>
<path class="st0" d="M591.9,308.1c0,8.7,0,17.4,0,26.1c0,5.2-2.2,7.6-7.4,7.6c-14.1,0.1-28.2,0.4-42.3-0.2
	c-12-0.5-21.5-6.4-24.7-17.9c-3-10.8-2.3-21.1,5.8-29.9c4.3-4.6,9.9-6.8,16-7.7c3.4-0.5,6.9-0.7,10.3-0.6c8.5,0.1,17,0,25.6,0
	c3.4,0,3.5-0.1,3.4-3.6c-0.5-11.6-8.6-19.7-20.3-19.9c-10.1-0.2-20.2-0.1-30.4-0.2c-4,0-5.8-1.7-5.9-5.5c-0.1-3.8,1.8-6.1,5.8-6
	c11.3,0.1,22.5-0.6,33.8,0.4c13.1,1.1,23.2,6.7,28.2,19.5c1.5,3.8,2.3,7.8,2.3,11.9C591.9,290.9,591.9,299.5,591.9,308.1z
	 M560.2,297.2L560.2,297.2c-4.9,0-9.8,0-14.6,0c-10.1,0.1-15.4,6.4-16.2,14.8c-1,10.2,5.4,18,15.7,18.1s20.6,0,30.9,0.1
	c2.1,0,2.8-0.7,2.7-2.8c-0.1-9.2-0.1-18.5,0-27.7c0-2.2-0.8-2.7-2.8-2.7C570.6,297.3,565.4,297.2,560.2,297.2z"/>
<path class="st2" d="M673.3,198c17.2,0.7,34.1,5.3,49.3,13.6c1.9,1.3,4.4,1.3,6.3,0c12.4-6.7,26-11,40-12.8c4.5-0.6,9-0.6,13.5-0.8
	c2.8-0.1,5,0.8,6.1,3.4s0.2,5.5-2.4,7.6c-3.7,2.9-7.5,5.7-11.2,8.6c-17.7,14.2-32.5,31.7-43.4,51.5c-0.6,1.2-1.3,2.3-2.2,3.3
	c-2.5,2.5-6.3,1.8-8.3-1.5c-3.8-6.3-7.5-12.6-11.8-18.6c-10.7-15.1-23.7-28.3-38.6-39.3c-2-1.5-4-3-5.9-4.6
	c-2.1-1.6-2.9-4.3-1.9-6.7c1-2.6,3.1-3.7,5.9-3.6C670.3,198.1,671.8,198,673.3,198z M740.5,236.8c-0.3-0.5-0.7-1-1.2-1.5
	c-3.9-3.3-7.9-6.3-12.1-9.1c-1.3-0.8-2.3-0.4-3.4,0.4c-4,2.7-7.7,5.7-11.5,8.7c-1.2,1-1.4,1.9-0.3,3.1c4.7,5.6,8.9,11.5,12.5,17.8
	c0.8,1.4,1.3,2,2.4,0.1c3.6-6.3,7.8-12.3,12.5-17.8C739.8,237.9,740.2,237.4,740.5,236.8L740.5,236.8z M768.4,209.8
	c-0.1-0.2-0.2-0.5-0.2-0.7c-1.2,0.2-2.4,0.2-3.6,0.5c-3.2,0.7-6.3,1.5-9.5,2.4c-6,1.7-11.9,4-17.5,6.8c-1.4,0.6-1.6,1.3-0.2,2.3
	c2.7,2,5.4,4,8,6.1c1.4,1.1,2.3,1.4,3.7-0.1c4.7-5.1,9.7-9.8,15.1-14.1C765.6,212,767,210.9,768.4,209.8L768.4,209.8z M683.3,209.5
	c7,5.5,13.6,11.6,19.8,18.2c0.9,1,1.6,0.7,2.5,0c2.5-2,5.1-4.1,7.7-6s2.5-2-0.2-3.3c-6.2-3.1-12.7-5.5-19.4-7.1
	C690.3,210.4,686.9,209.1,683.3,209.5z"/>
<path class="st3" d="M468,301.3c-9.1,0-18.3,0.1-27.4,0c-2.2,0-2.9,0.7-2.9,2.9c0.1,4.5-0.2,9.1,1.5,13.4c3.3,8.2,10.2,12.6,20,12.7
	c10,0,20.1,0,30.1,0c4.9,0,7,2.5,6.3,7.3c-0.4,2.7-2,4.4-4.8,4.4c-11.8,0-23.6,0.4-35.4-0.2c-9.5-0.5-18.2-3.9-24.3-11.9
	c-4.7-6.1-6.5-13.1-6.6-20.6c-0.2-8.6-0.2-17.2,0-25.8c0.3-10.7,3.6-20,12.7-26.5c4-2.9,8.6-4.7,13.4-5.4
	c10.2-1.5,20.4-1.9,30.2,1.8c12.2,4.5,19.3,15.2,19.6,28.9c0.1,4.8,0,9.6,0,14.4c0,3.5-1.3,4.8-4.8,4.9
	C486.3,301.3,477.2,301.3,468,301.3z M462.5,289.9c5.7,0,11.4,0,17,0c2.5,0,5.7,1.1,7.1-0.5s0.5-4.9,0.4-7.5
	c-0.3-9.3-5.8-16.7-14.1-18.8c-6.6-1.7-13.4-1.7-20-0.2c-6.3,1.2-11.5,5.7-13.7,11.7c-1.6,4-1.4,8.3-1.5,12.6c0,2,0.5,2.8,2.6,2.7
	C447.7,289.8,455.2,289.9,462.5,289.9L462.5,289.9z"/>
<path class="st3" d="M145.7,295.9c0,12.8,0,25.6,0,38.4c0,5.4-1.9,7.6-7.3,7.6c-12,0.1-24,0.5-35.9-0.2c-13.5-0.8-24.2-6.7-29-20.3
	c-1.4-3.8-2.2-7.9-2.2-12c0-17.3,0-34.6,0-51.9c0-2.5,0.4-4.9,2.8-6.2c2.6-1.3,5.6-1.3,8.2,0c2.3,1.1,2.5,3.5,2.5,5.8
	c0,16.9,0,33.7,0,50.6c0,4.5,0.5,8.9,2.9,12.8c4.3,7.1,11.1,9.6,18.9,9.7c7.6,0.1,15.3,0,22.9,0.1c2.3,0,3-0.6,3-3
	c-0.1-21.8-0.1-43.5-0.1-65.3c0-1.2,0.1-2.5,0-3.7c-0.5-7.6,4-8.8,10.1-7.4c1.6,0.3,2.9,1.7,3,3.4c0.1,1,0.1,1.9,0.1,2.9
	L145.7,295.9z"/>
<path class="st3" d="M220.9,292.4c0,8.9,0,17.8,0,26.6c0,7.5,3.6,11,11.1,11.1c1.1,0,2.1,0,3.2,0c4.1,0.3,5.9,2.2,5.8,6.3
	c-0.1,3.6-2,5.3-6.1,5.4c-4.6,0.1-9.3,0.1-13.7-1.3c-8.6-2.7-13.4-9.5-13.5-18.9c0-18.8-0.1-37.6,0.1-56.5c0-2.5-0.6-3.5-3.2-3.2
	c-1.6,0.1-3.2,0.1-4.8,0c-3.7-0.2-5.5-2.1-5.6-5.7c0-3.6,2-5.8,5.7-5.9c1.6-0.1,3.2-0.1,4.8,0c2.3,0.2,3.1-0.5,3.1-2.9
	c-0.2-5-0.1-9.9-0.1-14.9c0-4.2,1.7-5.9,6-6c5-0.1,7,1.4,7.1,5.7c0.1,5.1,0.1,10.3,0,15.5c0,2,0.7,2.7,2.6,2.6
	c4.5-0.1,9.1-0.1,13.6,0c3.3,0.1,5.1,1.8,5.5,5c0.4,2.9-0.9,5.5-3.3,6.3c-1.1,0.3-2.3,0.4-3.4,0.4c-4,0-8,0.1-12,0
	c-2.3-0.1-3.1,0.5-3,3C221,274.1,220.9,283.3,220.9,292.4z"/>
<path class="st4" d="M390.7,284.1v-48.5c0-0.6,0-1.2,0-1.9c0.2-6.3,4.5-9.1,10.4-6.7c1.3,0.5,2.3,1.5,2.6,2.8c0.5,1.6,0.7,3.3,0.7,5
	c0,32.6,0,65.2,0,97.7c0,1.2,0,2.3-0.1,3.5c-0.6,4.5-2.1,5.8-6.6,5.9c-5.1,0.1-6.9-1.8-7-7.5c-0.1-7.2,0-14.4,0-21.6L390.7,284.1z"
	/>
<path class="st3" d="M166.8,284.2c0-17.1,0-34.1,0-51.2c0-2.3,0.2-4.6,2.5-5.7c2.7-1.3,5.8-1.2,8.4,0.2c1.2,0.7,2,1.9,2.1,3.2
	c0.1,1.2,0.2,2.5,0.2,3.7c0,33.1,0,66.1,0,99.1c0,0.9,0,1.8,0,2.7c0,2.6-1.1,4.6-3.7,5.2c-2.9,0.7-5.9,0.9-8.3-1.4
	c-1.2-1.2-1.3-2.8-1.3-4.5C166.9,318.5,166.9,301.4,166.8,284.2z"/>
</svg>
