<svg xmlns="http://www.w3.org/2000/svg" width="300" height="168"><rect width="100%" height="100%" fill="#55769b"/><g fill-opacity=".5" transform="translate(.6 .6)scale(1.17188)"><circle r="1" fill="#1a1b1a" transform="matrix(-33.99517 -127.76326 199.67949 -53.1306 52.3 106.2)"/><ellipse cx="126" cy="131" fill="#ffa757" rx="33" ry="74"/><path fill="#f7ffff" d="m123.5 91.4 23 1.2-2 38-23-1.2z"/><ellipse cx="17" cy="38" fill="#0b212e" rx="65" ry="143"/><path fill="#000007" d="M149.5 136.6 137.3 164l-32.8-14.6 12.2-27.4z"/><circle r="1" fill="#4779ab" transform="rotate(17.7 -127.7 358.6)scale(16.71646 55.94643)"/><circle r="1" fill="#042548" transform="matrix(30.03985 70.17608 -30.06405 12.86934 167.8 55.1)"/><circle r="1" fill="#ff9112" transform="matrix(6.01764 -31.65245 11.24788 2.1384 106 116)"/><circle r="1" fill="#b0a89c" transform="matrix(.9276 -3.25636 64.43917 18.35598 25.6 88.2)"/><circle r="1" fill="#1b4e85" transform="rotate(-97.9 152.1 -56.4)scale(115.20198 30.248)"/><ellipse cx="86" cy="133" fill="#719acd" rx="9" ry="25"/><path fill="#ff6b00" d="m152.6 86.7 8.6 54.9-7.4 17.4-8.1-50.2z"/><path fill="#0b0512" d="m125.1 156.3-5.5-59.5-.9.7-4.3 31z"/><path fill="#375b85" d="M112.9-16H76.8L99.4 92.2l22-9z"/><circle cx="16" cy="52" r="26" fill="#00172a"/><path fill="#ffe3bb" d="m123.1 57 14 .7-6.8 10.5-10.7-8.3z"/><path fill="#ff8c2a" d="m97 148.2-1.8-34.5 20.7-32.9 13.1 3.8z"/><ellipse cx="132" cy="96" fill="#f0feff" rx="12" ry="6"/><path fill="#121b31" d="m131.7 26.8 38.1 81.4-35.2-33.8 5.1-4.9z"/><path fill="#141424" d="M135.8 156.3 110.7 137l40.2-8.2.9 19.5z"/></g></svg>