<svg xmlns="http://www.w3.org/2000/svg" width="300" height="168"><rect width="100%" height="100%" fill="#55769b"/><g fill-opacity=".5" transform="translate(.6 .6)scale(1.17188)"><circle r="1" fill="#1a1b1a" transform="matrix(-2.74576 111.5285 -162.5706 -4.00238 94.6 75.9)"/><circle r="1" fill="#ffad52" transform="rotate(-93 123.4 2)scale(50.08794 33.75762)"/><path fill="#fbffff" d="M123 91h22v36h-22z"/><circle cx="32" cy="33" r="51" fill="#001727"/><ellipse cx="130" cy="143" rx="22" ry="14"/><circle r="1" fill="#527aa5" transform="matrix(-10.93592 52.80755 -21.94416 -4.54442 103.5 50)"/><circle r="1" fill="#05274b" transform="rotate(-113.7 102.5 -30.4)scale(75.65709 37.62373)"/><path fill="#ff943b" d="m98.8 149.5-15.4-7.2 41.8-89.8 15.4 7.2z"/><circle r="1" fill="#205287" transform="matrix(.06401 81.35454 -35.83907 .0282 230.6 68)"/><circle r="1" fill="#0d141e" transform="rotate(-71.3 104.7 52.2)scale(26.2629 61.5996)"/><path fill="#608cbc" d="m96.4 91.5-2.8 53.9-16-.9 2.8-53.9z"/><path fill="#ff7311" d="m149.1 128.7 9.8 30.3-2.2-62.8-17.3-14.3z"/><path fill="#00000d" d="m123.5 152.8-3-53.4-8.3 35.2 43.4 2.5z"/><path fill="#ff8d13" d="m118 79-25 29 14 51z"/><path fill="#012136" d="M79 100.3 40.5 88.7l13.6-37.3 28.8 3.4z"/><path fill="#c8d6f2" d="M122 93h24v37h-24z"/><path fill="#a59f92" d="M31.8 93.7-16 76.4l26.7 2.2 81.1 28.1z"/><path fill="#4b3444" d="m147 92-38-8 9-19z"/><circle r="1" fill="#949697" transform="matrix(.9959 .09043 -21.97475 242.00263 41.6 69.7)"/><path fill="#ffe7cf" d="M122 56h12v8h-12z"/></g></svg>