<svg xmlns="http://www.w3.org/2000/svg" width="300" height="199"><rect width="100%" height="100%" fill="#7d8e7e"/><g fill-opacity=".5" transform="translate(.6 .6)scale(1.17188)"><circle cx="58" cy="74" r="231" fill="#080000"/><circle r="1" fill="#1f0000" transform="rotate(156.6 -7 40.4)scale(41.11799 211.32567)"/><ellipse cx="113" cy="72" fill="#9f9693" rx="21" ry="42"/><path fill="#b9f1ff" d="m71.3 107 44 67.9-22-9.5L19.9 17z"/><path fill="#0d0000" d="m187 163 82 18L127 37z"/><circle r="1" fill="#170501" transform="matrix(-40.7845 -91.6035 13.59287 -6.05194 53.5 42)"/><circle r="1" fill="#2b0000" transform="matrix(24.22905 -13.56086 47.82197 85.44304 235.4 16.5)"/><circle r="1" fill="#651009" transform="matrix(18.81947 54.04215 -27.84042 9.69506 163.2 26.4)"/><path fill="#9fcedb" d="m256.6 99.5-43.7-59.4-21.1-33.4 33.8 66.7z"/><circle r="1" fill="#cae7f4" transform="matrix(52.71818 47.96985 -1.63342 1.7951 241.3 139.5)"/><circle r="1" fill="#7c3428" transform="matrix(3.926 48.36422 -22.1333 1.79668 95.5 21.1)"/><path fill="#ade1e1" d="M130.1 135.1 108 102 74.3 34.9l82.2 132.6z"/><circle r="1" fill="#bdb39e" transform="matrix(-3.2132 2.28876 -35.40226 -49.70138 149.4 118.8)"/><path fill="#0f0006" d="m179.2 72.5 13.2-13.7 104.4 100.7-13.2 13.7z"/><circle r="1" fill="#320501" transform="matrix(30.92824 -10.58737 63.27735 184.84827 11.5 101.4)"/><ellipse cx="125" cy="28" fill="#9eb6c8" rx="5" ry="26"/><path fill="#07010f" d="m155 137-65 48h111z"/><circle r="1" fill="#a7685c" transform="matrix(-5.03838 3.9506 -35.13414 -44.80823 180.1 81.4)"/><path fill="#c47c15" d="M256.6 57.1 238 43.7 219-1.7l34.4 54.6z"/><path fill="#1e141e" d="M130.3 129.8 73.2 1.2l41.5 78.9L187.6 183z"/></g></svg>