<svg xmlns="http://www.w3.org/2000/svg" width="300" height="199"><rect width="100%" height="100%" fill="#7d8e7e"/><g fill-opacity=".5" transform="translate(.6 .6)scale(1.17188)"><circle cx="59" cy="73" r="220" fill="#080000"/><circle r="1" fill="#1f0000" transform="rotate(-19.7 333.6 4.3)scale(37.5815 210.96697)"/><circle r="1" fill="#9f9491" transform="matrix(-21.1428 -.75583 1.44926 -40.54028 113 71.2)"/><circle r="1" fill="#d1ffff" transform="matrix(-3.1016 1.8197 -43.33523 -73.8631 86 138.9)"/><circle r="1" fill="#170000" transform="rotate(-129.9 129.7 22.9)scale(105.79841 20.26892)"/><ellipse cx="221" cy="12" fill="#450a02" rx="92" ry="29"/><circle r="1" fill="#170100" transform="matrix(-13.43423 6.02552 -41.33883 -92.16717 49.3 29.2)"/><path fill="#daf6ff" d="m192.1 98.8 3.4-3.8 62.4 56.2-3.4 3.8z"/><circle r="1" fill="#8dc4ce" transform="rotate(54.1 57.7 238.2)scale(41.84706 4.90839)"/><circle r="1" fill="#19010b" transform="rotate(-43.1 232.7 -227.6)scale(12.91052 65.24327)"/><circle r="1" fill="#c0ffff" transform="matrix(2.35712 -1.552 17.6574 26.81746 118.6 113.7)"/><circle r="1" fill="#803428" transform="matrix(-1.05952 -35.69882 21.78778 -.64665 97 29.8)"/><circle r="1" fill="#baae9b" transform="matrix(43.54545 60.47015 -3.30076 2.37693 151.3 120)"/><path fill="#b6f0ff" d="m98 141-11 7 28 31z"/><circle r="1" fill="#692017" transform="matrix(26.01564 -14.21362 17.10782 31.313 163.4 40)"/><path fill="#310500" d="m-10.1-54.7 80.7 234.5-60.5 20.9-80.7-234.5z"/><circle r="1" fill="#0f0a18" transform="matrix(8.78187 -21.2013 36.2018 14.99528 150.4 169)"/><path fill="#9cabb3" d="m132.4 26.1-17.8 55 7.5-54.8-.9-42.3z"/><path fill="#a6cbc4" d="m102.7 94.6-1.2-3.5 45 65.2L70.9 22.6z"/><path fill="#b3a18e" d="m178 71 22 43 30 14z"/></g></svg>