<svg xmlns="http://www.w3.org/2000/svg" width="300" height="186"><rect width="100%" height="100%" fill="#970101"/><g fill-opacity=".5" transform="translate(.6 .6)scale(1.17188)"><circle r="1" fill="#fff" transform="matrix(41.87461 8.67124 -10.2 49.25718 127.8 80.3)"/><circle cx="123" cy="76" r="157" fill="#ff1e1e"/><circle r="1" fill="#fff" transform="matrix(19.06961 -40.31312 32.8111 15.52088 128.2 76)"/><circle r="1" fill="red" transform="rotate(-179.9 105.7 44.6)scale(48.63855 231.91155)"/><circle r="1" fill="red" transform="matrix(66.04172 4.50227 -10.21829 149.88723 25.7 94)"/><path fill="#fff" d="M94 40h70v37H94z"/><ellipse cx="105" cy="18" fill="red" rx="255" ry="22"/><path fill="#fff" d="M92 102h72v16H92z"/><ellipse cx="126" cy="141" fill="red" rx="255" ry="23"/><ellipse cx="114" cy="59" fill="red" rx="186" ry="2"/><path fill="red" d="M1 0h255v39H1z"/><ellipse cx="49" cy="86" fill="red" rx="43" ry="158"/><circle cx="224" cy="82" r="64" fill="red"/><ellipse cx="138" cy="99" fill="#f90000" rx="49" ry="2"/><path fill="#fff9f9" d="M92 40h6v81h-6z"/><path fill="#fff" d="M104 40h59v18h-59z"/><ellipse cx="159" cy="79" fill="#eb0000" rx="103" ry="1"/><path fill="#fe3e3e" d="m79.1 150.8 60.6-69 16.6 23.7-1.3-27.1z"/><ellipse cx="126" cy="149" fill="#f70000" rx="255" ry="31"/><path fill="#ed0000" d="M96 91h7v9h-7z"/></g></svg>