<svg xmlns="http://www.w3.org/2000/svg" width="300" height="186"><rect width="100%" height="100%" fill="#970101"/><g fill-opacity=".5" transform="translate(.6 .6)scale(1.17188)"><circle r="1" fill="#fff" transform="matrix(-10.1316 48.07785 -41.1449 -8.67059 128.4 79.9)"/><circle cx="113" cy="33" r="202" fill="#ff1f1f"/><circle r="1" fill="#fff" transform="matrix(33.65269 14.9374 -17.59962 39.65042 127.5 80.4)"/><ellipse cx="21" cy="79" fill="red" rx="71" ry="158"/><circle cx="236" cy="74" r="77" fill="red"/><path fill="#fff9f9" d="m96 120-5-82h79z"/><ellipse cx="129" cy="13" fill="red" rx="255" ry="27"/><path fill="red" d="M0 119h256v40H0z"/><path fill="#fff1f1" d="M90 102h75v17H90z"/><path fill="#fc5e5e" d="M92 78h64v23H92z"/><ellipse cx="35" cy="97" fill="red" rx="57" ry="157"/><path fill="#fff" d="M116 40h48v18h-48z"/><path fill="red" d="M82 58h169v2H82z"/><ellipse cx="231" cy="73" fill="red" rx="68" ry="158"/><ellipse cx="128" cy="144" fill="red" rx="60" ry="27"/><ellipse cx="108" cy="16" fill="red" rx="255" ry="23"/><path fill="#fff" d="M104 40h57v16h-57z"/><path fill="#ea0000" d="M112 98h2v51h-2z"/><path fill="#fcfbfb" d="m164.4 83.8-12.9-46.9 8.1 43.3-81.1 1.4z"/><path fill="#df0000" d="M117 58h2v22h-2z"/></g></svg>