<svg xmlns="http://www.w3.org/2000/svg" width="300" height="142"><rect width="100%" height="100%" fill="#7c7c7c"/><g fill-opacity=".5" transform="translate(.6 .6)scale(1.17188)"><circle cx="127" cy="73" r="154"/><ellipse cx="136" cy="51" rx="204" ry="97"/><path fill="#fff" d="m124 52 20 35-1-34z"/><circle cx="136" cy="24" r="178"/><path fill="#f4f4f4" d="m132 42 19 30-32-6z"/><circle cx="74" cy="45" r="9" fill="#fff"/><circle cx="230" cy="61" r="86"/><path fill="#fcfcfc" d="M134 56h10v27h-10z"/><path fill="#fff" d="m271 41.9-18.4 6.7-4.2-5.1 5.5-2.9z"/><circle r="1" fill="#343434" transform="rotate(-106 95.6 -8.4)scale(28.57212 10.1777)"/><path fill="#7a7a7a" d="m85.1 69.3-23.9 4.3L70.5 84l12.4-4.1z"/><circle r="1" transform="rotate(-174 41.2 2.9)scale(179.62898 30.74881)"/><path fill="#fff" d="m74 34-7 12 10 3z"/><ellipse cx="37" cy="55" rx="24" ry="59"/><ellipse cx="99" cy="38" rx="19" ry="72"/><path d="M146 47h109v75H146z"/><circle r="1" fill="#fff" transform="rotate(-57.8 122.6 -94.8)scale(5.0481 8.4628)"/><path fill="#939393" d="M0 49h16v4H0z"/><path fill="#5b5b5b" d="m135.2 67.9-41 .9 48.1 7.2-23.1 9z"/><path d="M0 85h134v19H0z"/></g></svg>