<svg xmlns="http://www.w3.org/2000/svg" width="300" height="300"><rect width="100%" height="100%" fill="#88897f"/><g fill-opacity=".5" transform="translate(.6 .6)scale(1.17188)"><path d="M201 240H66L203 15z"/><circle r="1" fill="#fff" transform="matrix(-15.45156 .36143 -5.9632 -254.93027 255 153.7)"/><circle r="1" fill="#fff" transform="matrix(14.7983 .13884 -2.29513 244.62634 .8 180.6)"/><circle r="1" fill="#fff" transform="matrix(-22.02188 -4.24075 11.57563 -60.1114 84.5 110)"/><ellipse cx="128" fill="#fff" rx="255" ry="15"/><circle r="1" fill="#fff" transform="rotate(-89.8 194.4 60.9)scale(14.70865 151.03121)"/><path d="M175 41 68 12l134 105z"/><circle r="1" transform="rotate(53.1 -103.4 101.3)scale(31.66348 21.94654)"/><ellipse cx="103" cy="76" fill="#fff" rx="35" ry="27"/><ellipse cx="66" cy="34" fill="#2f2d26" rx="53" ry="21"/><circle r="1" fill="#fff" transform="rotate(90.7 -68.2 74.6)scale(186.30298 9.01647)"/><ellipse cx="111" cy="255" fill="#fff" rx="255" ry="14"/><ellipse cx="114" cy="135" fill="#828378" rx="32" ry="46"/><ellipse cx="251" cy="136" fill="#fff" rx="10" ry="255"/><ellipse cx="120" cy="3" fill="#fff" rx="255" ry="11"/><path fill="#33312d" d="M58 191h94v51H58z"/><path fill="#fff" d="M66 82h17v104H66z"/><path fill="#1a1918" d="M229 241 109 134l42 106z"/><path fill="#2b2c25" d="M42 86h21v68H42z"/><path fill="#9e9e93" d="m119 171-38 52 26-155z"/></g></svg>