<svg xmlns="http://www.w3.org/2000/svg" width="300" height="142"><rect width="100%" height="100%" fill="#7c7c7c"/><g fill-opacity=".5" transform="translate(.6 .6)scale(1.17188)"><circle cx="136" cy="65" r="162"/><circle cx="131" cy="25" r="171"/><circle r="1" fill="#fff" transform="matrix(-4.88382 -18.32461 8.08157 -2.15388 135.4 65.5)"/><circle cx="137" cy="53" r="162"/><path fill="#fff" d="m148.4 61.6-20.9-17.8 15.1 46.1 3-28.8zm-74.5-6.3 9-8.3-7.8-12.3-11.7 12.6z"/><circle r="1" transform="matrix(45.37457 -24.94488 50.51428 91.88514 201.7 60.8)"/><path fill="#c8c8c8" d="m138.8 52.3 6.9 19.1-29.7-1.8 10.2-17.3z"/><path fill="#fff" d="m249.7 46.9 1.8-7.8 8.8 2-1.8 7.8z"/><ellipse cx="104" cy="17" rx="255" ry="21"/><path fill="#858585" d="m62 72 12 11 17-13z"/><path fill="#d5d5d5" d="m71.9 34.7-1.5.6-8.7 9.6L80 52z"/><path fill="#414141" d="M117 59h15v25h-15z"/><path fill="#fff" d="m145 66-9.4 3.2L131 56l9.4-3.2z"/><circle r="1" transform="matrix(-13.51373 -124.39598 23.26324 -2.5272 39.6 71.8)"/><path fill="#d9d9d9" d="m60.7 75-.2-1 24.8-3 .2 1z"/><ellipse cx="100" cy="64" rx="14" ry="46"/><path fill="#5b5b5b" d="m17.5 50.2 4.9-1.2-34.8-.6 31.1 6z"/><ellipse cx="176" cy="90" rx="33" ry="94"/><path fill="#a4a4a4" d="m131.2 43 6.6 4.5-5 7.5-6.6-4.5z"/></g></svg>