<svg xmlns="http://www.w3.org/2000/svg" width="300" height="300"><rect width="100%" height="100%" fill="#88897f"/><g fill-opacity=".5" transform="translate(.6 .6)scale(1.17188)"><circle r="1" transform="rotate(95.6 15.8 143.9)scale(102.31324 44.10799)"/><path fill="#fff" d="M255 261V-16l-40 129z"/><circle r="1" fill="#fff" transform="matrix(14.32691 -.03255 .38017 167.3114 2.4 133.9)"/><path fill="#fff" d="m64 198 71-146-70 2zM255.5-15v30H.5v-30z"/><ellipse cx="123" cy="251" fill="#fff" rx="255" ry="10"/><circle r="1" fill="#0d0c0a" transform="matrix(40.09309 -9.35 6.07773 26.0615 98 214.6)"/><circle r="1" fill="#090703" transform="matrix(-2.18013 14.76382 -71.91512 -10.6195 89.5 34.2)"/><path fill="#0c0b08" d="m65.5 151.3-46.9 3.3-4.1-59.9 46.9-3.3z"/><path fill="#cacbbf" d="M141 163 89 51l71 29z"/><path fill="#1d1c1a" d="M57 210h163v31H57z"/><ellipse cx="254" cy="133" fill="#fff" rx="14" ry="255"/><ellipse cx="132" cy="3" fill="#fff" rx="255" ry="11"/><ellipse cx="160" cy="251" fill="#fff" rx="255" ry="10"/><ellipse cx="6" cy="122" fill="#fff" rx="8" ry="249"/><path fill="#868677" d="M201 24h41v205h-41z"/><circle r="1" fill="#fff" transform="rotate(114.6 13.7 71.2)scale(42.26168 15.73089)"/><circle r="1" fill="#1a1919" transform="matrix(14.38784 3.3962 -21.12039 89.47567 181.6 102.9)"/><ellipse cx="75" cy="158" fill="#fdfdf2" rx="14" ry="27"/><circle r="1" fill="#707166" transform="matrix(-5.61687 -22.37937 31.74023 -7.9663 114.8 122.2)"/></g></svg>