<svg xmlns="http://www.w3.org/2000/svg" width="300" height="300"><rect width="100%" height="100%" fill="#b39b71"/><g fill-opacity=".5" transform="translate(.6 .6)scale(1.17188)"><circle r="1" fill="#1a2842" transform="matrix(211.81446 19.63773 -8.82733 95.2125 160.4 175.4)"/><circle r="1" fill="#d8d1c1" transform="matrix(-19.12656 -46.40452 71.713 -29.55796 121.1 241.5)"/><ellipse cx="165" cy="113" fill="#000306" rx="150" ry="17"/><circle r="1" transform="matrix(31.67497 40.3787 -31.39596 24.62849 249.6 226.2)"/><ellipse cx="198" cy="56" fill="#6c8da4" rx="250" ry="42"/><circle r="1" fill="#ecdaa7" transform="matrix(-5.08737 -12.6903 71.86767 -28.81078 200.2 178)"/><circle r="1" transform="matrix(-23.86796 15.63327 -17.514 -26.73935 1.2 154.7)"/><path fill="#1a0000" d="m107 94 41-78-7 82z"/><path fill="#e4e6ff" d="M63 40h44v51H63z"/><ellipse cx="208" cy="24" rx="77" ry="3"/><path fill="#000006" d="m145 217-64 53-23-14z"/><ellipse cx="87" cy="156" fill="#a39790" rx="58" ry="24"/><circle r="1" fill="#cbc6c7" transform="rotate(175.2 48 8)scale(152.85977 15.84833)"/><circle r="1" fill="#160208" transform="matrix(-16.19011 -58.89422 5.03203 -1.38331 4.4 62.8)"/><path d="m-3 43.8 35.5 1 94.3-8.4-43.8-5z"/><path fill="#e5ffff" d="M146 28h19v48h-19z"/><path d="m134 147 16-49 119-1z"/><path fill="#a8998b" d="m113 95 22 39-53 26z"/><path fill="#040100" d="m156 174-5-14.2L342 94l5 14.2z"/><ellipse cx="174" cy="232" fill="#cbc3c8" rx="38" ry="14"/></g></svg>