<svg xmlns="http://www.w3.org/2000/svg" width="300" height="300"><rect width="100%" height="100%" fill="#b39b71"/><g fill-opacity=".5" transform="translate(.6 .6)scale(1.17188)"><circle r="1" fill="#1a2842" transform="matrix(-17.42977 100.90758 -204.2663 -35.28292 161.6 183.1)"/><circle r="1" fill="#d7d0c0" transform="matrix(-73.07987 31.47316 -20.4394 -47.45976 123.5 242.1)"/><ellipse cx="181" cy="114" fill="#020509" rx="170" ry="18"/><circle r="1" transform="matrix(33.31748 43.17977 -30.60622 23.61574 247.2 229.4)"/><ellipse cx="85" cy="69" fill="#c5deff" rx="25" ry="28"/><circle r="1" fill="#e3d5a8" transform="matrix(-134.14472 57.77185 -4.92741 -11.44133 190 183.6)"/><ellipse cx="208" cy="56" fill="#5a8e9f" rx="103" ry="42"/><path d="m17 116-33 62 55 8z"/><ellipse cx="139" cy="62" rx="7" ry="43"/><path d="m104.5 234.5-.2 36.5-24.1-14.1-38.1 7.7z"/><path fill="#000936" d="M98 31 47 51 1 41z"/><circle r="1" fill="#a59a92" transform="matrix(16.57352 7.03504 -15.01145 35.36477 109.8 142.6)"/><path fill="#fff" d="m165.8 26-2.6 48.9-15-.8 2.6-49z"/><circle r="1" fill="#c2c5cd" transform="matrix(2.85558 21.96205 -159.77669 20.7747 110.8 5.4)"/><path fill="#000015" d="m10.8 62.9 10.1 48L-16 56.3v-66z"/><circle cx="61" cy="163" r="28" fill="#ab9d99"/><ellipse cx="205" cy="22" fill="#090000" rx="73" ry="4"/><path fill="#1b1e48" d="m57.3 50-21.5.4 5 23.6 23.5 18.5z"/><path fill="#050b12" d="m271 167-38 57-64-20z"/><path fill="#0f0900" d="m279.2 131.7-147.5 50.8-4.9-14.2 147.5-50.8z"/></g></svg>