<svg xmlns="http://www.w3.org/2000/svg" width="300" height="157"><rect width="100%" height="100%" fill="#847474"/><g fill-opacity=".5" transform="translate(.6 .6)scale(1.17188)"><circle cx="141" cy="92" r="170" fill="#fff"/><circle cx="127" cy="60" r="170" fill="#ffcdc2"/><path fill="#2a2f3d" d="M30 55h119v12H30z"/><path d="M27 36h47v4H27z"/><circle r="1" fill="#ffd0ca" transform="matrix(-216.01782 -41.26631 8.9857 -47.03767 125.6 1.7)"/><ellipse cx="160" cy="109" fill="#ffcdc7" rx="255" ry="29"/><path fill="#fffaee" d="M80 50h10v20H80z"/><path fill="#2d3542" d="m25.8 58.3 2.5 8.5 8-.6 5.8-22.4z"/><ellipse cx="82" cy="99" fill="#645f66" rx="64" ry="2"/><ellipse cx="125" cy="77" fill="#ad8f91" rx="102" ry="4"/><ellipse cx="4" cy="68" fill="#ffcdc7" rx="23" ry="103"/><path d="M35 48h4v19h-4z"/><ellipse cx="47" cy="37" fill="#000018" rx="21" ry="2"/><path fill="#00081b" d="M117 49h4v18h-4z"/><path fill="#f6c8c3" d="M101.5 29.6 116 66.9l4.8-29.4-23 33z"/><path fill="#fffff9" d="M30 57h5v7h-5z"/><path fill="#ffd9d2" d="M121.2 66.6h5.7l2.3 13.5-6-34.9z"/><path fill="#ffe5dc" d="M63 49h4v29h-4z"/><path fill="#00000a" d="m147 51-3 14-1-13z"/><path fill="#001" d="m61.9 61.4-3 .2-.8-15 3-.2z"/></g></svg>