<svg xmlns="http://www.w3.org/2000/svg" width="300" height="157"><rect width="100%" height="100%" fill="#847474"/><g fill-opacity=".5" transform="translate(.6 .6)scale(1.17188)"><circle cx="194" cy="61" r="216" fill="#fff"/><circle cx="175" cy="64" r="206" fill="#ffcdc2"/><ellipse cx="82" cy="60" fill="#3d3e4a" rx="68" ry="7"/><path d="M27 36h42v4H27z"/><ellipse cx="228" cy="50" fill="#ffcec8" rx="82" ry="133"/><path fill="#ffd0ca" d="m82-10-2 82 94-72z"/><ellipse cx="12" cy="70" fill="#ffd1cb" rx="15" ry="133"/><path fill="#001627" d="m26 66 12-1V45z"/><ellipse cx="199" cy="77" fill="#b69898" rx="178" ry="4"/><path fill="#605e65" d="M90 54h60v13H90z"/><ellipse cx="92" cy="131" fill="#ffcec8" rx="255" ry="31"/><path fill="#f4c8c2" d="M36.8 68 18.3 49.1l-31.5 45 48.1-39.5z"/><ellipse cx="53" cy="99" fill="#8b777b" rx="104" ry="2"/><path fill="#fff0e6" d="M122 46h4v25h-4z"/><path fill="#f8c8c3" d="m145.6 49.7-14.9 55.1-19.4-62.1 5.2 65.5z"/><path fill="#00000b" d="m142.2 66.6 3.6-15.6 2 .4-3.6 15.6z"/><ellipse cx="53" cy="12" fill="#fcccc6" rx="255" ry="23"/><path fill="#00001c" d="M37 36h19v4H37z"/><path fill="#000b23" d="M24 37h42v3H24z"/><path fill="#ffe0d7" d="M63 44h4v34h-4z"/></g></svg>