<svg xmlns="http://www.w3.org/2000/svg" width="300" height="199"><rect width="100%" height="100%" fill="#8c8974"/><g fill-opacity=".5" transform="translate(.6 .6)scale(1.17188)"><circle r="1" fill="#0c0011" transform="rotate(-170.7 76.2 39.5)scale(212.55245 121.23536)"/><ellipse cx="84" cy="75" fill="#b967ff" rx="37" ry="56"/><circle r="1" fill="#0b0000" transform="matrix(-24.89955 -18.96612 154.51544 -202.85458 198.6 86.3)"/><ellipse cx="169" cy="51" fill="#ff8ec4" rx="28" ry="22"/><circle r="1" fill="#160000" transform="matrix(123.02122 9.3545 -1.87156 24.613 109 153.8)"/><ellipse cx="192" rx="140" ry="23"/><path fill="#ecadaa" d="m215.5 148-8.1-38.1 37.1-8 8.1 38.2z"/><path d="M74 59h12v57H74z"/><path fill="#ffe0d3" d="M34 115h93v9H34z"/><path fill="#ffa4ff" d="m38 53 64-20 5 25z"/><path d="M108 48h31v19h-31z"/><ellipse cx="29" cy="56" fill="#050007" rx="17" ry="34"/><circle r="1" fill="#4900ff" transform="matrix(3.42813 26.18163 -6.53588 .85579 133.3 93.1)"/><path fill="#664aff" d="M51 25h69v21H51z"/><ellipse cx="229" cy="39" fill="#0e0300" rx="35" ry="73"/><ellipse cx="54" cy="102" rx="7" ry="15"/><circle r="1" transform="rotate(134.2 -12.5 82)scale(18.22915 37.14878)"/><path fill="#b65ffa" d="M20.1 98 7.5 119.8l53.1-.7-32-16.4z"/><path fill="#fff4fe" d="m69.1 82.5-15.4 6.2 26.9 37.4-3.5 6z"/><path fill="#e37ac6" d="M171 26h24v42h-24z"/></g></svg>