<svg xmlns="http://www.w3.org/2000/svg" width="300" height="199"><rect width="100%" height="100%" fill="#8c8974"/><g fill-opacity=".5" transform="translate(.6 .6)scale(1.17188)"><ellipse cx="148" cy="73" fill="#0c0011" rx="234" ry="115"/><circle r="1" fill="#bc6aff" transform="rotate(165.5 37.2 43.2)scale(34.77529 55.80016)"/><ellipse cx="231" cy="29" rx="38" ry="80"/><circle r="1" transform="matrix(-49.95829 -16.32889 20.4603 -62.59838 160.8 168.2)"/><path fill="#ff8cbc" d="M139 30h53v37h-53z"/><circle r="1" fill="#180000" transform="rotate(95.4 -51.6 86.6)scale(21.3586 203.61506)"/><ellipse cx="232" cy="128" fill="#ed9f99" rx="22" ry="25"/><circle r="1" transform="rotate(3.6 74.8 2367.1)scale(120.25679 19.13312)"/><circle r="1" fill="#000001" transform="matrix(2.30857 -28.89595 8.7322 .69764 81.4 85.6)"/><path fill="#fbd0cd" d="M142.9 123.9 39.7 110.2l-5.8-2.7 1.3 17.9z"/><circle r="1" fill="#b36fff" transform="matrix(-1.25888 -19.54452 29.24094 -1.88343 86.2 41)"/><path fill="#3d00ff" d="M127 69h13v46h-13z"/><path d="M14 32h30v51H14z"/><path fill="#160025" d="M108 12h32v57h-32z"/><path d="M145 69h20v80h-20z"/><path fill="#fff" d="m59 87 11-6 3 46z"/><path fill="#940b15" d="M74 126h50v29H74z"/><path fill="#962de8" d="m22 84-12 34 25 1z"/><ellipse cx="92" cy="42" fill="#c5aaff" rx="34" ry="6"/><path fill="#fc7cd6" d="m158.4 53.5 36.1-18.1.5 36.5 16.4 9.3z"/></g></svg>