<svg xmlns="http://www.w3.org/2000/svg" width="300" height="300"><rect width="100%" height="100%" fill="#aca494"/><g fill-opacity=".5" transform="translate(.6 .6)scale(1.17188)"><ellipse cx="173" cy="74" fill="#840002" rx="255" ry="97"/><circle r="1" fill="#fffbb7" transform="rotate(-15.4 388 -438)scale(47.20906 57.04724)"/><circle r="1" fill="#fff" transform="rotate(75.8 -37.5 231.2)scale(60.8878 35.60419)"/><circle r="1" fill="#390002" transform="rotate(-63.5 102.7 28.4)scale(211.68389 27.50215)"/><circle r="1" fill="#fff" transform="matrix(-27.61575 -8.88575 15.9226 -49.48538 67.3 189.3)"/><circle r="1" fill="#490003" transform="matrix(36.89453 96.75709 -27.65905 10.5467 224.3 108)"/><circle r="1" fill="#c90054" transform="rotate(-16.4 758.1 87.8)scale(34.25373 99.50468)"/><ellipse cx="131" cy="198" fill="#a84d23" rx="43" ry="60"/><circle r="1" fill="#1e0000" transform="matrix(-20.89628 18.55259 -22.60053 -25.45559 63.6 105.2)"/><circle r="1" fill="#280b00" transform="rotate(131.2 72.5 114.5)scale(23.94315 36.95359)"/><circle r="1" fill="#ffedc6" transform="matrix(-19.55276 -18.97405 24.49755 -25.24472 124.2 64.8)"/><circle r="1" fill="#ff099f" transform="rotate(-111.7 132.2 -66.5)scale(89.95527 18.10767)"/><circle cx="19" cy="66" r="21" fill="#ff18b0"/><circle r="1" fill="#ffe9db" transform="matrix(27.15032 27.53208 -31.01053 30.58053 64.4 187)"/><circle r="1" fill="#fffff4" transform="rotate(22.3 -540.8 571.9)scale(22.27258 93.72346)"/><path fill="#ca005a" d="m274.2 197.3-4.5 63.8-33.9-2.4 4.5-63.8z"/><path fill="#ffc299" d="m190 193-112-9 40 56z"/><path fill="#0e0000" d="m86.7 230.3 9.8-11.3 46.8 40.7-9.8 11.3z"/><path fill="#3a0b00" d="m-16-14 45 40 119-12z"/><circle r="1" fill="#ffffef" transform="matrix(-18.22867 14.2064 -27.50827 -35.29668 209.3 194.7)"/></g></svg>