<svg xmlns="http://www.w3.org/2000/svg" width="300" height="300"><rect width="100%" height="100%" fill="#793e4e"/><g fill-opacity=".5" transform="translate(.6 .6)scale(1.17188)"><circle r="1" fill="#fff9de" transform="matrix(14.02324 -67.0502 87.4605 18.29196 130.3 199.5)"/><circle r="1" fill="#ffffaf" transform="matrix(-12.95398 -40.59017 34.0781 -10.87571 129 96.6)"/><path fill="#ff20a5" d="m252 134 19-148-104 30z"/><circle r="1" fill="#fff" transform="rotate(13.2 -764.7 881.8)scale(28.30923 43.12148)"/><circle r="1" fill="#f6007f" transform="matrix(52.15247 26.79518 -17.97517 34.98575 22.6 223.5)"/><path fill="#300000" d="m99 194 45 15-19 62z"/><path fill="#731400" d="M106 136h55v35h-55z"/><ellipse cx="80" cy="175" fill="#fff" rx="22" ry="34"/><ellipse cx="32" cy="10" fill="#250000" rx="60" ry="35"/><circle r="1" fill="#ee1682" transform="matrix(23.47067 20.6177 -71.15666 81.003 232.2 232.2)"/><circle r="1" fill="#240000" transform="matrix(68.87567 -8.22564 2.26606 18.97442 41.3 117)"/><path fill="#ff148a" d="m64 68.2-10.6 34.4L-28 77.8l10.5-34.4z"/><circle cx="195" cy="123" r="31" fill="#4a0000"/><circle r="1" fill="#ffe6b8" transform="rotate(-37.9 182.6 -137.6)scale(30.0776 21.80473)"/><circle r="1" fill="#fffff8" transform="matrix(2.26924 23.04696 -21.78969 2.14544 157.2 234.2)"/><circle r="1" fill="#df256a" transform="matrix(45.94063 17.62106 -8.6166 22.46473 156.8 22.9)"/><path fill="#520502" d="M100.5 137.7 68 142.9 49.5 26.3 82 21.1z"/><circle r="1" fill="#6d0213" transform="rotate(-17.5 455.4 -611.4)scale(18.13088 81.76559)"/><path fill="#100" d="m230.6 50.8 2-18.9 30.8 3.3-2 18.9z"/><circle r="1" fill="#3c0008" transform="matrix(-6.76735 34.5224 -14.65322 -2.87244 121.1 255)"/></g></svg>