<svg xmlns="http://www.w3.org/2000/svg" width="300" height="300"><rect width="100%" height="100%" fill="#793e4e"/><g fill-opacity=".5" transform="translate(.6 .6)scale(1.17188)"><circle cx="130" cy="194" r="80" fill="#fffdd6"/><circle r="1" fill="#ffffb1" transform="rotate(-131.1 86 15.4)scale(43.12284 29.96686)"/><circle r="1" fill="#ff1ea3" transform="matrix(59.7472 78.46951 -36.42232 27.7322 255 65)"/><circle r="1" fill="#fff" transform="rotate(24.7 -378 517.6)scale(27.21756 48.41256)"/><circle cx="36" cy="237" r="43" fill="#ff0089"/><path fill="#0b0000" d="M112 212h26v44h-26z"/><circle r="1" fill="#fff" transform="rotate(-87.2 130.7 48)scale(31.7355 28.28229)"/><circle r="1" fill="#660800" transform="rotate(100.3 1.8 133.4)scale(17.6332 28.63565)"/><circle r="1" fill="#300" transform="matrix(-.47897 -30.24406 26.46414 -.4191 192.8 125)"/><ellipse cx="50" cy="120" fill="#3c0000" rx="54" ry="28"/><path fill="#ff2a9f" d="m268.3 269.2-74.2-30 23.6-58.4 74.2 30z"/><path fill="#4e0000" d="m127.9 40.6-46 52.9-89.8-78.1 46-52.9z"/><circle r="1" fill="#f91683" transform="matrix(45.1118 14.3996 -7.3387 22.99104 16 71.3)"/><circle r="1" fill="#ffefc2" transform="rotate(58.6 -8.6 153.3)scale(20.43049 29.10075)"/><ellipse cx="179" cy="22" fill="#f7348a" rx="95" ry="15"/><path fill="#fffffb" d="m161 139 50 33-43 82z"/><path fill="#2c0000" d="m249 163-95-36 83 62z"/><circle r="1" fill="#1b0200" transform="rotate(-153.6 130.1 -6.2)scale(28.33454 8.34099)"/><circle r="1" fill="#c82062" transform="matrix(22.34583 -13.47987 20.29569 33.64455 28.8 170.6)"/><ellipse cx="183" cy="70" fill="#990026" rx="28" ry="38"/></g></svg>