<svg xmlns="http://www.w3.org/2000/svg" width="300" height="300"><rect width="100%" height="100%" fill="#aca494"/><g fill-opacity=".5" transform="translate(.6 .6)scale(1.17188)"><circle r="1" fill="#480000" transform="matrix(-86.06572 163.93104 -50.34202 -26.43015 43.2 53.9)"/><circle r="1" fill="#6c0000" transform="matrix(-74.85714 -135.48327 47.275 -26.12035 218 81)"/><circle r="1" fill="#fff" transform="matrix(38.22896 1.43503 -2.08724 55.60368 201.3 217.3)"/><ellipse cx="63" cy="192" fill="#fff" rx="34" ry="46"/><ellipse cx="36" cy="114" fill="#450000" rx="68" ry="37"/><circle r="1" fill="#ffc78c" transform="rotate(43.9 -32 201.9)scale(50.59129 43.97711)"/><ellipse cx="132" cy="164" fill="#770300" rx="37" ry="25"/><path fill="#390000" d="m155 141 75-89 36 129z"/><circle r="1" fill="#c3004f" transform="matrix(-16.69341 -82.05073 27.68657 -5.6329 11 218)"/><path fill="#590000" d="m87 229 42 38 39-50z"/><circle r="1" fill="#b5004f" transform="matrix(70.20953 -77.0566 44.3 40.36362 246.5 7.4)"/><circle r="1" fill="#5e0007" transform="matrix(2.07595 -15.15484 114.37513 15.66744 112.3 17.2)"/><circle r="1" fill="#ff1197" transform="matrix(-18.73351 2.58935 -4.0021 -28.9545 19.9 64.6)"/><ellipse cx="127" cy="207" fill="#f7945c" rx="39" ry="29"/><circle r="1" fill="#3b0000" transform="matrix(-20.6077 -2.17861 9.08615 -85.9467 60.7 48.9)"/><circle r="1" fill="#ffe2bb" transform="matrix(36.40668 -6.9948 5.03156 26.18838 124.5 59.2)"/><path fill="#fffffa" d="m234 182-39 89-27-131z"/><circle r="1" fill="#c6005d" transform="matrix(22.0451 -1.12553 3.20613 62.79649 255 255)"/><circle r="1" fill="#f18c59" transform="matrix(6.07115 29.31646 -46.69429 9.66992 133.5 115.2)"/><path fill="#080000" d="m89.5 205.3 1.8 21.8 44.3 43.9-40.8-59z"/></g></svg>