<svg xmlns="http://www.w3.org/2000/svg" width="300" height="150"><rect width="100%" height="100%" fill="#8f7a5e"/><g fill-opacity=".5" transform="translate(.6 .6)scale(1.17188)"><circle r="1" fill="#fff" transform="matrix(-32.00567 -6.33323 13.88176 -70.15298 156.9 14.7)"/><circle cx="41" cy="85" r="93" fill="#1d2727"/><circle r="1" fill="#1e2f2e" transform="matrix(-28.7639 -17.1475 88.3949 -148.27713 229.7 34)"/><circle r="1" fill="#ad9c83" transform="matrix(7.79118 -10.50662 42.35551 31.40871 47 94.3)"/><circle r="1" fill="#eef1ea" transform="rotate(-155.2 74.2 -8.1)scale(44.75676 17.75704)"/><path fill="#fffee7" d="M222 83h27v22h-27z"/><path fill="#00080e" d="M37.1 63.9 76.6 20l22.3 20.1L59.4 84z"/><ellipse cx="109" cy="123" fill="#272827" rx="135" ry="15"/><path fill="#f5f4eb" d="m162.1 46.7-33.7-20.3-6.8 54.1 20.2-8z"/><path d="M250 38h6v67h-6z"/><circle r="1" fill="#ceac7a" transform="matrix(11.58287 -7.15888 16.804 27.18841 163.5 90.8)"/><path fill="#c5b79f" d="M46.4 28.4 29.9 55.8-6.2-5l.5 59.8z"/><path fill="#c7b69d" d="m75 83-34 20 37 19z"/><path fill="#1b110e" d="m141 76-22 16 14 51z"/><path fill="#00131d" d="M201 108h55v7h-55z"/><path fill="#303021" d="M174 50h60v38h-60z"/><circle r="1" fill="#28342d" transform="matrix(16.31806 -20.70416 35.4785 27.96253 75.3 26.5)"/><ellipse cx="20" cy="73" fill="#000c0f" rx="3" ry="85"/><path fill="#be9771" d="m179.6 92.4-2.7-2.1 23.5-4.9 36.7 28.8z"/><path fill="#fce4c0" d="m6.1 77.8-.6-20L20.9 66 13 76.1z"/></g></svg>