<svg xmlns="http://www.w3.org/2000/svg" width="300" height="157"><rect width="100%" height="100%" fill="#87112a"/><g fill-opacity=".5" transform="translate(.6 .6)scale(1.17188)"><circle r="1" fill="#ff215e" transform="rotate(-169.9 64 39.3)scale(178.17441 148.54455)"/><circle r="1" fill="#201c2e" transform="rotate(-59.4 100.9 -100)scale(26.51719 14.3687)"/><circle r="1" fill="#e61946" transform="rotate(-179.7 103 39.4)scale(57.80719 142.12773)"/><circle r="1" fill="#e51945" transform="matrix(-19.57057 131.42555 -55.76826 -8.30445 34.3 73.1)"/><path fill="#151c2d" d="m91.5 38.7 33-14 2 4.6-33 14z"/><path fill="#2e1b30" d="m79.6 114.4 16.2-18.5 7.3-4.9 10 3.7z"/><path fill="#ed1947" d="m138.8 25.9-53-10.3L91.2-12l53 10.3z"/><path fill="#401b33" d="m133 72-9-18 28-41z"/><path fill="#331b31" d="m141 121.9-5 .2-1-26 5-.2z"/><path fill="#691a38" d="m93.1 34.7-15.5 4-7.9-.6 40.4 7.5z"/><circle cx="147" cy="17" r="6" fill="#0f1c2d"/><ellipse cx="79" cy="68" fill="#da1945" rx="47" ry="28"/><path fill="#751a3a" d="m110.7 28.6 38.7 6.4-38.2 34.7L128 20.3z"/><path fill="#dd1944" d="m130 79 6 58H69z"/><path fill="#111c2d" d="m87.3 116.4-.9-.6 12.3-18.2.9.6z"/><path fill="#3c1c33" d="M119 40h30v10h-30z"/><path fill="#d21944" d="m134.6 58.6 6.6-13.2 51.9 88-42.4-1z"/><path fill="#da1946" d="M7 7h132v19H7z"/><path fill="#4f1a34" d="M151 121.6v5l-10-.2v-5z"/><path fill="#d91945" d="m176 32.1-28.9-2.3 7.7 18-.9-61.1z"/></g></svg>