<svg xmlns="http://www.w3.org/2000/svg" width="300" height="157"><rect width="100%" height="100%" fill="#87112a"/><g fill-opacity=".5" transform="translate(.6 .6)scale(1.17188)"><circle r="1" fill="#ff215e" transform="matrix(-105.45028 138.53564 -138.13795 -105.14757 99.6 76.8)"/><circle r="1" fill="#381b31" transform="rotate(37.3 12.9 222.6)scale(14.14885 31.45984)"/><circle r="1" fill="#e71946" transform="matrix(-.45763 131.10172 -70.16807 -.24493 215.6 81.7)"/><circle r="1" fill="#e51945" transform="matrix(27.90838 -170.42634 63.1908 10.34789 24.7 85.7)"/><path fill="#4e1b35" d="m70.3 41.6 50.7-2.3 12.1 35.5 20.7-58.9z"/><path fill="#001c2a" d="m108 90.5 2.8 4.2L86 111.5l-2.8-4.2z"/><path fill="#e41946" d="m137.2 19 5.8 8.9-92.1-10.3L163.4-16z"/><ellipse cx="138" cy="110" fill="#381b31" rx="3" ry="14"/><path fill="#df1945" d="m95 43-21 75 54-57z"/><path fill="#521b34" d="m103 93.6-5.2-3.5-7.6 27-4.9-2.7z"/><path fill="#171c2e" d="m114 28-15 9 28-7z"/><circle r="1" fill="#de1944" transform="matrix(-18.24523 22.76336 -15.983 -12.81065 110.2 125.4)"/><path fill="#ea1947" d="m156 37-5-48 12 7z"/><ellipse cx="149" cy="19" fill="#001d2a" rx="4" ry="6"/><path fill="#5d1b37" d="M151.2 36.6 99 46.4 91.7 37l57.7 18.2z"/><path fill="#de1946" d="m91 54 29-25-5 29z"/><path fill="#761a39" d="m141 95-4 29-5-29z"/><path fill="#a51a40" d="m120.7 38.7 15.1-17-15.2 1.4 22.3 14.8z"/><path fill="#3b1b32" d="M141 123h11v3h-11z"/><path fill="#5a1b37" d="m113 67 14-19-5-21z"/></g></svg>