<svg xmlns="http://www.w3.org/2000/svg" width="300" height="150"><rect width="100%" height="100%" fill="#87112a"/><g fill-opacity=".5" transform="translate(.6 .6)scale(1.17188)"><circle cx="128" cy="32" r="162" fill="#ff215e"/><circle r="1" fill="#231b2e" transform="matrix(9.54486 5.78927 -12.86497 21.21068 139.1 40)"/><ellipse cx="207" cy="70" fill="#ea1946" rx="58" ry="127"/><circle r="1" fill="#e91946" transform="rotate(-83.8 50.5 .6)scale(193.52891 57.90908)"/><path fill="#5c1a36" d="m151 51-4-29-60 19z"/><path fill="#291b2f" d="m93.8 101.3 18.3-17 4 4.4-18.2 17z"/><circle r="1" fill="#e81946" transform="matrix(12.73842 26.11762 -16.59366 8.09327 124.6 3.2)"/><path fill="#301b30" d="m136 97 6 13V90z"/><circle r="1" fill="#e11945" transform="matrix(-19.24378 1.14834 -1.46546 -24.55807 117.7 115.9)"/><path fill="#dc1945" d="m62.8 5.3 26.1 54.2 40.5-28.8-34.8 72.6z"/><path fill="#611a37" d="m120.7 24.9 16.5 14.8 3.1 37.1L128.6 56z"/><ellipse cx="101" cy="65" fill="#d91945" rx="32" ry="15"/><path fill="#221c2f" d="m104.2 41.7-.3-1 35.9-12.4.3 1z"/><path fill="#131c2e" d="m153.8 27-9.9 1.8-1.7-9.9 9.9-1.7z"/><circle r="1" fill="#db1945" transform="matrix(36.84657 -15.4952 9.20224 21.88233 124 3.7)"/><path fill="#091c2d" d="m116.6 84.3.7.7-12 10.7-.6-.7z"/><path fill="#8c1a3c" d="m111.9 31 30.5-4.6 7.8-19.2-11.3 35z"/><path fill="#4e1a34" d="M102 102v6h-4v-6z"/><path fill="#741a38" d="m136 103 16 13-9-2z"/><path fill="#5b1b36" d="M117.9 69.9 131.5 38l4 33.9 11.3-48z"/></g></svg>