<svg xmlns="http://www.w3.org/2000/svg" width="300" height="150"><rect width="100%" height="100%" fill="#8f7a5e"/><g fill-opacity=".5" transform="translate(.6 .6)scale(1.17188)"><ellipse cx="151" cy="23" fill="#fff" rx="33" ry="61"/><ellipse cx="60" cy="98" fill="#1a2424" rx="74" ry="105"/><circle r="1" fill="#21312f" transform="matrix(65.8206 -112.48786 29.62511 17.3347 212.4 59.7)"/><circle r="1" fill="#c3aa8d" transform="matrix(-6.35555 16.51093 -26.50973 -10.2044 49.3 94.5)"/><circle r="1" fill="#eaeadf" transform="matrix(-22.01605 -12.11356 32.26309 -58.63726 162.4 18)"/><path fill="#ffffea" d="M222 84h26v21h-26z"/><circle r="1" fill="#00050c" transform="matrix(10.56208 7.91827 -21.31758 28.43525 68.7 46.4)"/><path fill="#001622" d="m271 110-72-6-16 39z"/><path d="M250 40h6v65h-6z"/><path fill="#ffdfb6" d="m1.4 58.2-.5-2.1 12.7 34 6.2-26.6z"/><circle r="1" fill="#ceab78" transform="matrix(12.79183 -6.81158 15.32213 28.77425 163.2 88)"/><path fill="#cbbfaa" d="M44.7 36.9 29.4 48.2-16 45.8 38.2 31z"/><path fill="#eef1eb" d="M146-10.4 95.7-4.5 141 43.4l-9.9-10z"/><path fill="#221713" d="M120 84h23v44h-23z"/><path fill="#0c1e1b" d="M22 51V3L4-16z"/><circle r="1" fill="#2d2e22" transform="rotate(-97.4 134.4 -57.4)scale(21.18752 32.32459)"/><path fill="#231e18" d="M39 69 6 143l32-14z"/><path fill="#ffffef" d="M71 83h5v23h-5z"/><circle r="1" fill="#3c463b" transform="matrix(14.31106 -30.13901 17.67147 8.39103 103 50.2)"/><path fill="#df9d67" d="m84 78 23 23-26-49z"/></g></svg>