<svg xmlns="http://www.w3.org/2000/svg" width="300" height="150"><rect width="100%" height="100%" fill="#87112a"/><g fill-opacity=".5" transform="translate(.6 .6)scale(1.17188)"><circle cx="115" cy="50" r="167" fill="#ff215e"/><circle r="1" fill="#251b2e" transform="matrix(10.62425 6.2458 -11.8685 20.1886 138.2 40.4)"/><ellipse cx="220" cy="66" fill="#e91946" rx="71" ry="125"/><circle r="1" fill="#e91946" transform="matrix(-54.24295 -3.73882 8.6224 -125.09403 46.8 59.8)"/><path fill="#511a34" d="M121 29 85 44.5l23.2-1.3 29.7-12.4z"/><path fill="#121b2c" d="m97 100 20-13-5-6z"/><path fill="#ee1947" d="m146.3-18.6-5.9 47.7-36.7-4.5 5.9-47.7z"/><circle r="1" fill="#dc1945" transform="matrix(4.4584 -19.31148 27.19956 6.27951 106.6 67)"/><path fill="#4e1b33" d="m144 89-4 24-6-24z"/><path fill="#2f1b31" d="m143 17 11 2-18 36z"/><circle r="1" fill="#e21945" transform="rotate(-173.3 62.8 60)scale(23.07616 35.60283)"/><path fill="#471b33" d="m138.1 71.8-6.4-8.4 3.8-23.9 3.6 10.7z"/><path fill="#5a1a35" d="m94 103 6-10 5 17z"/><circle r="1" fill="#d81945" transform="matrix(46.8227 -10.46611 3.8793 17.355 109.5 14.9)"/><path fill="#321c31" d="m121 33-21 6 9 3z"/><path fill="#4c1b34" d="m148 53.8-24.1-16.2 3.3 11.3 23.4-11.5z"/><path fill="#891a3b" d="M114.9 40.7 87 42.5l5.3-9.5 20.1 12.9z"/><path fill="#e01945" d="M143 60h10v51h-10z"/><path fill="#681a36" d="m143.2 113.2-1.9-12.8 6 11.7 4.9 5.2z"/><path fill="#661a38" d="m118 64 22-22-15 7z"/></g></svg>