<svg xmlns="http://www.w3.org/2000/svg" width="300" height="400"><rect width="100%" height="100%" fill="#a97c4a"/><g fill-opacity=".5" transform="translate(.8 .8)scale(1.5625)"><circle cx="92" cy="24" r="175" fill="#bdcdd0"/><circle r="1" fill="#4b0300" transform="matrix(35.1036 -2.72011 3.82493 49.36156 82 123)"/><circle r="1" fill="#000933" transform="matrix(187.69949 -35.35395 6.93643 36.82654 126.8 232.7)"/><circle r="1" fill="#faf6e3" transform="rotate(5.7 -701.7 171)scale(25.23227 104.21837)"/><ellipse cx="150" cy="63" fill="#e9e7d6" rx="49" ry="37"/><circle r="1" fill="#fbefdb" transform="matrix(-52.76254 19.71874 -6.35126 -16.99442 97 182.6)"/><circle cx="17" cy="196" r="27" fill="#1b5964"/><path fill="#000409" d="M104 0h24v24h-24z"/><ellipse cx="70" cy="86" fill="#bb602e" rx="38" ry="41"/><circle r="1" fill="#22150a" transform="rotate(-22 413.6 -168.5)scale(28.00772 24.71981)"/><circle r="1" fill="#cfd0c8" transform="matrix(17.4144 -16.16802 9.72858 10.47855 146.1 251.5)"/><ellipse cx="178" cy="119" fill="#36796f" rx="55" ry="19"/><ellipse cx="187" cy="208" fill="#000e0b" rx="100" ry="19"/><circle r="1" fill="#f1e2cb" transform="rotate(-179.9 75.3 81.1)scale(31.08584 28.27513)"/><ellipse cx="68" cy="35" fill="#efead8" rx="64" ry="12"/><path fill="#ecf1ea" d="m46 231-2-31 27-9z"/><circle r="1" fill="#e89a69" transform="rotate(165.6 25.7 62.5)scale(24.91119 16.09922)"/><circle r="1" fill="#0a6070" transform="matrix(6.13988 9.56326 -20.33785 13.05746 191 17.3)"/><path fill="#1a3f56" d="m31-.8 10-18.6L79 .8 69 19.4z"/><path fill="#20170c" d="m99.1 60.3-2.4 21.1L41.6 99l69.9-1.8z"/></g></svg>