<svg xmlns="http://www.w3.org/2000/svg" width="300" height="400"><rect width="100%" height="100%" fill="#a97c4a"/><g fill-opacity=".5" transform="translate(.8 .8)scale(1.5625)"><circle cx="89" cy="6" r="193" fill="#bccdd0"/><circle r="1" fill="#000933" transform="matrix(150.28534 -27.0406 6.33319 35.19837 129 229.4)"/><ellipse cx="84" cy="121" fill="#470200" rx="36" ry="49"/><ellipse cx="10" cy="40" fill="#fcf8e6" rx="27" ry="132"/><circle cx="144" cy="64" r="40" fill="#ebe9d7"/><path fill="#fcf0de" d="m38 218 34-49 135-4z"/><ellipse cx="20" cy="209" fill="#1c4c56" rx="27" ry="40"/><circle cx="71" cy="88" r="40" fill="#bb6231"/><path fill="#00181c" d="m101.4 24 4.3-40.8 26.9 2.8-4.3 40.8z"/><path fill="#c6c8c1" d="m157.7 230.9 11 28.9-50.4 19.3-11-28.9z"/><circle r="1" fill="#22180d" transform="rotate(68.5 -59.5 140)scale(21.66405 31.69593)"/><ellipse cx="176" cy="119" fill="#367a70" rx="54" ry="19"/><ellipse cx="161" cy="209" fill="#03120f" rx="71" ry="19"/><circle r="1" fill="#efe9d6" transform="matrix(-83.95637 -4.39914 .6769 -12.9183 42.5 34.2)"/><path fill="#cad6c8" d="m131 194 62-26-90-107z"/><path fill="#e0d6c8" d="M43 150h12v78H43z"/><path fill="#bdf0c7" d="M-16 218v30l57-69z"/><path fill="#005562" d="M182.7 33.4 207 23 182 8.2l-14.1 20.1z"/><circle r="1" fill="#0b1b17" transform="rotate(-178.8 96.8 116.4)scale(24.37558 68.93692)"/><path fill="#f39c69" d="m85.2 96.4 5 20.4-51.4 12.8-5-20.4z"/></g></svg>