<svg xmlns="http://www.w3.org/2000/svg" width="300" height="199"><rect width="100%" height="100%" fill="#aca464"/><g fill-opacity=".5" transform="translate(.6 .6)scale(1.17188)"><circle r="1" fill="#000d5d" transform="matrix(215.9014 -36.18877 17.78055 106.07835 161 169)"/><circle r="1" fill="#7cb8d7" transform="matrix(19.89018 -87.9299 146.40053 33.11653 121 22.5)"/><circle r="1" fill="#584454" transform="rotate(87.2 -34 56.4)scale(32.22071 76.37437)"/><ellipse cx="55" cy="155" fill="#2f2c29" rx="254" ry="40"/><path fill="#ffe5db" d="m82 27 140 21L83 71z"/><path fill="#765659" d="m271 54-136 6 59 78z"/><circle r="1" fill="#45d2d5" transform="matrix(220.7854 1.93387 -.1638 18.70047 113 5.2)"/><path fill="#bcc8ed" d="M104 76h51v38h-51z"/><ellipse cx="241" cy="85" fill="#d1b784" rx="74" ry="10"/><path fill="#cfbb99" d="M0 76h88v19H0z"/><ellipse cx="128" cy="91" fill="#002377" rx="4" ry="45"/><circle r="1" fill="#2663bc" transform="rotate(90.6 3.2 125)scale(11.20726 25.38274)"/><ellipse cx="213" cy="66" fill="#1d2d60" rx="65" ry="9"/><path fill="#003185" d="m182.5 79.8-50 52.8 40.2-30.6-34.8-20.1z"/><ellipse cx="33" cy="65" fill="#273361" rx="50" ry="10"/><ellipse cx="117" cy="71" fill="#000667" rx="29" ry="4"/><path fill="#ffe0b4" d="m187.5 110.1 8-.2 1 28-8 .2z"/><path fill="#7f0000" d="M136 49h8v15h-8z"/><ellipse cx="28" cy="43" fill="#d8e093" rx="56" ry="12"/><path fill="#3a1b00" d="m81.4 100-11.1-7.9-56.9 27.5 41.8 3.4z"/></g></svg>