<svg xmlns="http://www.w3.org/2000/svg" width="300" height="199"><rect width="100%" height="100%" fill="#aca464"/><g fill-opacity=".5" transform="translate(.6 .6)scale(1.17188)"><circle r="1" fill="#000d5d" transform="matrix(191.54388 -34.44283 14.36137 79.8666 154.3 144)"/><circle r="1" fill="#7cbada" transform="matrix(139.56166 18.60582 -12.32868 92.47706 135.4 21)"/><circle cx="41" cy="115" r="63" fill="#463b41"/><ellipse cx="130" fill="#43d1d5" rx="255" ry="23"/><ellipse cx="113" cy="47" fill="#fae1bc" rx="109" ry="12"/><ellipse cx="210" cy="68" fill="#211646" rx="93" ry="8"/><ellipse cx="113" cy="163" fill="#323230" rx="255" ry="47"/><path fill="#c3b3a1" d="M23 105-7 74l132 4z"/><circle r="1" fill="#9d745e" transform="rotate(24.3 -139.6 505.9)scale(27.76118 34.42383)"/><path fill="#a4b7e1" d="m158.8 111.9-94.3 6.8 66.9-38 20.9-8.8z"/><path fill="#000f7d" d="M89 70h12v39H89z"/><path fill="#f5c5d8" d="M81 42h89v25H81z"/><path fill="#2a346b" d="m74.8 55.8.4 19-76 1.4-.4-19z"/><path fill="#790000" d="M136 46h8v19h-8z"/><path fill="#c8a879" d="M177 76h79v20h-79z"/><path fill="#001c7d" d="M156 69h14v44h-14z"/><path fill="#06409c" d="m140.4 131.5 38.4-37.4-55.3 37.8 4-58.7z"/><path fill="#fff" d="m120 112 8-19-9-19z"/><path fill="#68314c" d="m247 48-7-22-35 41z"/><path fill="#ffc7b1" d="m199 128-11-26 2 37z"/></g></svg>