<svg xmlns="http://www.w3.org/2000/svg" width="300" height="199"><rect width="100%" height="100%" fill="#9e745d"/><g fill-opacity=".5" transform="translate(.6 .6)scale(1.17188)"><circle r="1" fill="#03161c" transform="matrix(228.80088 112.584 -48.12653 97.80602 103.8 143.3)"/><ellipse cx="145" cy="43" fill="#a0a8a7" rx="55" ry="46"/><circle r="1" fill="#161814" transform="matrix(40.72185 14.82154 -86.17015 236.75053 247.8 80.5)"/><circle r="1" fill="#1f110b" transform="matrix(-75.71645 -23.8733 10.54913 -33.45755 20.2 136.5)"/><path fill="#000003" d="m56.2-30.1 27 46.7-23.4 13.5-27-46.7z"/><path fill="#374136" d="m186-16-30 86 64-72z"/><path fill="#aea0a0" d="m82.6 83.9 10.8 1.5 18.1 56.8L126.6-16z"/><path fill="#837663" d="M230 76 123 37l23 96z"/><ellipse cx="136" cy="169" fill="#938582" rx="48" ry="13"/><path fill="#29251e" d="m106 120 40-57-38 14z"/><path fill="#030c16" d="m152 120-1 28-82-4z"/><path fill="#aaa08a" d="m28.3 101.6 2.5-48 13 .8-2.6 48z"/><circle r="1" fill="#070b08" transform="matrix(-5.90535 .03447 -.527 -90.27434 21.5 33.9)"/><path fill="#b7b2b0" d="m171 44-66 32V21z"/><ellipse cx="207" cy="25" fill="#382422" rx="6" ry="130"/><ellipse cx="12" cy="86" fill="#cbc6a9" rx="2" ry="49"/><circle r="1" fill="#6c493c" transform="rotate(-177.5 65.5 7.3)scale(6.53876 43.92633)"/><ellipse cx="177" cy="112" fill="#b0bcbc" rx="4" ry="28"/><circle r="1" fill="#1b150f" transform="matrix(-16.67624 112.93118 -12.072 -1.78264 0 43.8)"/><path fill="#a79a85" d="m229 41-21 20 12-77z"/></g></svg>