<svg xmlns="http://www.w3.org/2000/svg" width="300" height="199"><rect width="100%" height="100%" fill="#9e745d"/><g fill-opacity=".5" transform="translate(.6 .6)scale(1.17188)"><circle r="1" fill="#02151b" transform="matrix(-35.11882 79.711 -233.35569 -102.8111 89.7 115.5)"/><circle r="1" fill="#9fa9a8" transform="rotate(3.5 -653.4 2383.8)scale(54.54723 43.59535)"/><circle r="1" fill="#151914" transform="matrix(69.89853 -195.21902 51.2317 18.3436 254.9 91.2)"/><path fill="#1e120d" d="m3 185 148-42-167-50z"/><ellipse cx="35" cy="11" fill="#1b1711" rx="46" ry="23"/><circle r="1" fill="#3e4743" transform="matrix(-48.60512 39.7508 -10.99067 -13.4388 214.2 0)"/><path fill="#cabdc0" d="M124 68 86 90l35-106z"/><ellipse cx="161" cy="85" fill="#847b66" rx="28" ry="42"/><path fill="#a19895" d="M99 82h15v50H99z"/><path fill="#93847f" d="m75 185 45-37 133 37z"/><circle r="1" fill="#a0937c" transform="rotate(-88.2 55 17.3)scale(33.41525 7.11231)"/><path fill="#22241c" d="m134 114-31-25 31-26z"/><path fill="#bdac94" d="m215.9 55.7 10.6-12.1-3.7-51.2-10 .3z"/><path fill="#a5a085" d="m15.9 56.7-4.8 101.9-1-62.5 1.7-68.6z"/><circle r="1" fill="#030e0b" transform="matrix(.29857 51.83598 -5.84577 .03367 22.4 77.6)"/><ellipse cx="234" cy="26" fill="#1b1814" rx="8" ry="168"/><path fill="#000b13" d="m135.1 148.6-22.2-20.8 36 .4 5.8 44.3z"/><path fill="#431f1d" d="M203 69V-3h10v72z"/><ellipse cx="177" cy="107" fill="#b1c1c3" rx="3" ry="31"/><path fill="#b7afaa" d="m96 66 81-52-19 43z"/></g></svg>