<svg xmlns="http://www.w3.org/2000/svg" width="300" height="199"><rect width="100%" height="100%" fill="#0d368b"/><g fill-opacity=".5" transform="translate(.6 .6)scale(1.17188)"><circle r="1" fill="#65e1ff" transform="matrix(186.33915 -79.48038 18.66465 43.75866 206.8 158.7)"/><circle r="1" transform="rotate(-22.2 254.7 -230.6)scale(70.58269 46.8048)"/><circle r="1" fill="#6ef5ff" transform="matrix(-27.10174 4.091 -10.21865 -67.6958 36 161.4)"/><circle r="1" fill="#54c8ff" transform="matrix(165.97092 -2.56905 .22526 14.55302 134.8 2)"/><path fill="#00000c" d="M155 62h28v78h-28z"/><ellipse cx="213" cy="147" fill="#49adff" rx="35" ry="51"/><path fill="#50c3ff" d="M133.5 136.4 145 94l13.6 3.7L147 140z"/><ellipse cx="140" cy="168" fill="#46a7ff" rx="173" ry="12"/><ellipse cx="226" cy="21" fill="#48abff" rx="12" ry="45"/><path d="m198 68-19-46 33-3zM4 154-16 52l35-28z"/><path fill="#000002" d="M117.1 161.6 104.3 60.1l42.6 21.1-17.7 67.2z"/><path fill="#53bdff" d="m22.3 67.9 17.9-33.7-24 .7-4.4 4z"/><path d="M252 58h4v83h-4zm-4-41 2 39-29 43z"/><path fill="#62ddff" d="m187 71 3 27 22-18z"/><path fill="#000009" d="M86 70 45 39 7 88z"/><ellipse cx="31" cy="139" fill="#419bff" rx="22" ry="57"/><path fill="#378bf2" d="m113.2 112.8 2.7 33.6-43.6-17.6 6.8 49.4z"/><path fill="#010003" d="m78.9 159.8-10.3-17.4 96.1-98.7-115.4 79.4z"/></g></svg>