<svg xmlns="http://www.w3.org/2000/svg" width="300" height="199"><rect width="100%" height="100%" fill="#0d368b"/><g fill-opacity=".5" transform="translate(.6 .6)scale(1.17188)"><circle r="1" fill="#65e0ff" transform="matrix(-147.71997 70.89078 -18.57427 -38.70448 187 160.6)"/><circle r="1" fill="#6df2ff" transform="matrix(8.39779 55.42915 -24.39958 3.69666 32.9 146.2)"/><circle r="1" transform="rotate(170.2 50.8 45.3)scale(74.67676 48.0191)"/><circle r="1" fill="#54c7ff" transform="matrix(-.28034 -13.38316 178.93808 -3.74822 147.8 2.7)"/><path d="m152 135.7 6.3-45.6 29.8 4.2-6.4 45.6z"/><ellipse cx="177" cy="168" fill="#4ab2ff" rx="224" ry="12"/><circle r="1" fill="#57ccff" transform="rotate(-170.7 77 55.8)scale(7.3823 27.52511)"/><circle r="1" fill="#47a9ff" transform="matrix(11.38853 44.3554 -31.72463 8.1455 215.4 141.1)"/><circle r="1" fill="#48abff" transform="matrix(-13.31747 1.93635 -3.39317 -23.3369 225 39)"/><path d="m195.8 72.2-6.7-24.1-10.5-24.9 39.4-11z"/><ellipse cy="103" rx="13" ry="34"/><circle r="1" transform="matrix(5.22696 -28.93586 7.81262 1.41127 123.5 132.6)"/><circle r="1" fill="#46a5ff" transform="rotate(154 .5 80.5)scale(27.77859 39.65904)"/><path fill="#66e9ff" d="M18 34h17v20H18z"/><path fill="#030205" d="m252.4 11.5-36.8 82.7 55.4-30-21.9-6.6z"/><path fill="#63e2ff" d="m189.1 96.6 18.1-7.6-1-11.9-20.4-3z"/><path d="M252 61h4v80h-4z"/><circle r="1" transform="matrix(-7.73167 -10.99884 27.15103 -19.0859 80.8 113)"/><path fill="#050a18" d="M-6.5 89.4 42.8 87l33.8 85.8-22-138.3z"/><path fill="#5fdbff" d="M106 122h8v35h-8z"/></g></svg>