<svg xmlns="http://www.w3.org/2000/svg" width="300" height="203"><rect width="100%" height="100%" fill="#5f7ba9"/><g fill-opacity=".5" transform="translate(.6 .6)scale(1.17188)"><circle cx="86" cy="73" r="197" fill="#00113c"/><circle r="1" fill="#8398ca" transform="matrix(-81.19319 14.74794 -9.40649 -51.7864 138.8 116.1)"/><path fill="#000023" d="m-5.1-19 253.6-26.6 8.6 82.5L3.5 63.6z"/><path fill="#b3a8c1" d="m102.5 100 62.9 58.6-21.9 23.4-62.9-58.6z"/><circle r="1" fill="#000500" transform="matrix(-8.07164 -15.16326 168.3128 -89.59552 238.5 163.6)"/><circle r="1" fill="#8999d7" transform="matrix(4.4264 -16.45316 13.64968 3.67218 40.6 80)"/><ellipse cx="5" cy="112" fill="#000a2d" rx="14" ry="173"/><circle r="1" fill="#00134c" transform="matrix(-30.77605 35.1552 -160.00285 -140.0719 224 18.4)"/><circle r="1" fill="#26507c" transform="matrix(24.20377 12.4925 -25.00915 48.45434 197 117.3)"/><circle r="1" fill="#214b86" transform="matrix(74.07303 -13.3826 3.863 21.38182 129.7 54.5)"/><circle r="1" fill="#000020" transform="matrix(-4.16407 23.54822 -54.8178 -9.69353 25.2 19.2)"/><circle r="1" fill="#386a8d" transform="matrix(8.86148 -14.4958 70.36618 43.01577 75.7 153)"/><circle r="1" fill="#4c73a2" transform="matrix(-3.43149 -32.10924 13.24734 -1.41573 216.5 127.2)"/><circle cx="68" cy="117" r="34" fill="#5d6da7"/><path fill="#00223a" d="m306 96.4-81.7 121-32.3-21.8 81.7-121z"/><circle r="1" fill="#00214d" transform="matrix(-19.78325 -5.49182 9.42989 -33.96942 71.3 42.3)"/><path fill="#d8c1b9" d="m159.1 149.6 1.6 7.8-35.4 4.4 6.5-17.9z"/><circle r="1" fill="#003540" transform="rotate(102.3 -52.8 100.1)scale(13.3542 92.54562)"/><path fill="#215e59" d="m236 154-64-13-44 48z"/><ellipse cx="140" cy="102" fill="#6777b6" rx="23" ry="41"/></g></svg>