<svg xmlns="http://www.w3.org/2000/svg" width="300" height="203"><rect width="100%" height="100%" fill="#5f7ba9"/><g fill-opacity=".5" transform="translate(.6 .6)scale(1.17188)"><circle cx="88" cy="60" r="202" fill="#00113c"/><circle r="1" fill="#8398c9" transform="matrix(81.34515 -15.6859 10.02092 51.9673 137 117.2)"/><circle r="1" fill="#000023" transform="matrix(3.89104 38.0217 -253.6751 25.9604 103.3 15.7)"/><circle r="1" fill="#a29fbc" transform="rotate(-45.9 224.3 -70.8)scale(20.84199 61.21265)"/><circle r="1" fill="#000300" transform="rotate(61.1 -28 287.5)scale(24.79216 111.91629)"/><circle r="1" fill="#00124b" transform="rotate(-50.9 177.3 -244)scale(44.24639 193.96692)"/><circle r="1" fill="#000a2d" transform="matrix(-17.98925 -.4284 5.11742 -214.89065 0 125.5)"/><ellipse cx="42" cy="82" fill="#8497d4" rx="16" ry="18"/><circle r="1" fill="#264b74" transform="matrix(-18.62082 -7.27708 27.2957 -69.84509 190.8 115.5)"/><circle r="1" fill="#264f8c" transform="matrix(62.3777 -14.53895 5.06346 21.7242 131.7 54.6)"/><circle r="1" fill="#000020" transform="matrix(-2.89396 21.46497 -68.5783 -9.24589 18.2 20.2)"/><circle r="1" fill="#36688a" transform="matrix(7.23385 -13.59633 67.30336 35.8084 73.8 149.8)"/><path fill="#ccb7b6" d="m151.8 147.8 15.4 7-30.3 13.1-28-34.2z"/><circle r="1" fill="#4773a2" transform="matrix(-13.75375 1.45817 -3.4211 -32.26847 216.9 128.3)"/><circle r="1" fill="#002754" transform="matrix(-19.1185 -7.32667 12.9834 -33.87942 73.5 46.7)"/><circle r="1" fill="#001d37" transform="matrix(24.1576 -47.84327 16.81405 8.48995 255 138.1)"/><circle r="1" fill="#002c3c" transform="matrix(4.24298 -12.15338 70.7694 24.707 13.2 165)"/><circle r="1" fill="#5566a2" transform="rotate(86.9 -35 93)scale(22.4939 28.27431)"/><circle r="1" fill="#4c72af" transform="matrix(.83235 22.33855 -43.3674 1.6159 159.5 78.5)"/><circle r="1" fill="#1d5b51" transform="matrix(-31.85886 21.27843 -10.76205 -16.11335 172.6 173)"/></g></svg>