<svg xmlns="http://www.w3.org/2000/svg" width="300" height="104"><rect width="100%" height="100%" fill="#758582"/><g fill-opacity=".5" transform="translate(.6 .6)scale(1.17188)"><circle r="1" fill="#06010e" transform="matrix(-96.1822 172.09778 -73.31722 -40.97561 46.9 60.5)"/><path fill="#0c000e" d="m166 108.3 69-119.6 57 33-69 119.6z"/><circle r="1" fill="#4a675d" transform="matrix(26.34853 -18.49041 42.50926 60.575 144.1 74.2)"/><path fill="#c0babb" d="M166 27h49v23h-49z"/><circle r="1" fill="#22232e" transform="matrix(13.8837 1.45924 -1.70875 16.25768 167 4)"/><circle r="1" fill="#31202f" transform="matrix(23.81768 -107.94398 41.31862 9.1169 9.2 80.2)"/><ellipse cx="210" cy="88" fill="#353837" rx="96" ry="19"/><path fill="#98b3ae" d="m271-5-41 18 20 4z"/><path fill="#6c8583" d="M114 26h55v33h-55z"/><circle r="1" fill="#301f30" transform="matrix(-25.8124 17.0859 -19.40321 -29.31325 240.3 69.2)"/><path fill="#485b57" d="m168.3 86 45.7.8-15.8-49.1-18.5 20.7z"/><path fill="#080214" d="m231-6-15 22 3-19z"/><circle r="1" fill="#a8a4a4" transform="matrix(9.0564 3.4914 -12.07395 31.31886 179.7 33.7)"/><path fill="#a7b0af" d="M201 23h15v14h-15z"/><path fill="#353f46" d="m232 23-1-12-40 5z"/><path fill="#455054" d="m187.3 10.2-50.4 16.5-2 71.9L121.8-16z"/><path fill="#42594d" d="M82 55h74v34H82z"/><path fill="#667c71" d="m159.7 86.8-17.3-67.1-7.2 43.4 60.6-7.2z"/><path fill="#9ca3a2" d="m201.5 46.8-3.6 3.5 16.8-2.4L198.6-.4z"/><ellipse cx="196" cy="22" fill="#54646a" rx="2" ry="29"/></g></svg>