<svg xmlns="http://www.w3.org/2000/svg" width="300" height="104"><rect width="100%" height="100%" fill="#758582"/><g fill-opacity=".5" transform="translate(.6 .6)scale(1.17188)"><circle r="1" fill="#1c1822" transform="matrix(185.5201 19.86455 -10.0314 93.68584 145.3 42.8)"/><circle r="1" fill="#aebeb5" transform="matrix(31.76652 -32.11903 18.0629 17.86466 181.1 37)"/><circle r="1" fill="#281d2a" transform="rotate(-86.8 22.5 6)scale(168.72398 68.78685)"/><circle r="1" fill="#281727" transform="matrix(2.38975 -56.55915 30.50135 1.28875 240.4 75.1)"/><circle r="1" fill="#567a6f" transform="matrix(25.70314 30.87863 -15.06863 12.54301 141.4 51.2)"/><path fill="#aaa9a9" d="m186-2-31 58 64-12z"/><path fill="#91a5a3" d="m271 1.6-34.9 21.9 6.9-5.9-13.2-5.6z"/><path fill="#3c4f48" d="M200.8 43.9 111.9 104 188 59.4l12.1 44.6z"/><path fill="#3b4c4f" d="m206 9 32 17-51-8z"/><circle r="1" fill="#607172" transform="matrix(-5.38394 -5.27235 41.14295 -42.0138 176.2 5.9)"/><ellipse cx="84" cy="25" fill="#384647" rx="31" ry="88"/><path fill="#8f9d9d" d="m196.6 40 15.7-30.3L233.5-16l-31 2.2z"/><path fill="#373d46" d="m173.3 20.4 6.1-10.2L169.1-16 68.3 3.6z"/><circle r="1" fill="#4b6652" transform="matrix(-6.99177 -8.00573 27.0878 -23.657 135.6 75.5)"/><path fill="#b7b1b1" d="m173.8 26.7 5 24.5-23.2-9.2 64.2-6.6z"/><path fill="#435357" d="m193.1 51.5 4.5-49.3-.2 61.8-16.8-11.4z"/><path fill="#2f313b" d="m233.4-35-4.8 92.8-14-.7 4.8-92.9z"/><path fill="#738781" d="m133 50.5 24-35.7 10 6.7-24 35.7z"/><path fill="#a8a9a8" d="m196.1 52.3 21.5-6.1-34.5-14 29.9-5.1z"/><path fill="#434e53" d="m257 34-29 9-27-35z"/></g></svg>