<svg xmlns="http://www.w3.org/2000/svg" width="300" height="134"><rect width="100%" height="100%" fill="#039565"/><g fill-opacity=".5" transform="translate(.6 .6)scale(1.17188)"><circle r="1" fill="#300000" transform="matrix(59.22115 64.85543 -114.62772 104.6695 63.4 58.6)"/><circle r="1" fill="#2f0000" transform="matrix(-25.61798 14.44336 -125.23551 -222.1285 243.8 39)"/><circle r="1" fill="#59fff0" transform="rotate(30.9 -44.1 381.9)scale(28.47481 53.10999)"/><circle r="1" fill="#1a0003" transform="matrix(-111.19382 -26.55648 45.9745 -192.49839 48.8 54.8)"/><ellipse cx="193" cy="11" fill="#080000" rx="255" ry="15"/><ellipse cx="202" cy="104" fill="#50efdb" rx="51" ry="11"/><path fill="#260e1a" d="m206 96 58-109 7 105z"/><path fill="#24c69b" d="m233.8 40.6-82.7-14 78.2 47.7 2.1-11.9z"/><path fill="#0f0b0c" d="M259.8-16 201 55.8l3.8-35.1L271 73z"/><path fill="#36edc9" d="M161 55h52v60h-52z"/><path fill="#182e24" d="m184.8 68.1-44.3-52.5 18.6 1.1 28.2 38z"/><path fill="#35fccd" d="m179.8 41.9-5.5-8.3L194.2 20l5.5 8.3z"/><path fill="#1b151c" d="M0 12h163v79H0z"/><path fill="#2cf3c6" d="m232.1 76.1-2.2-39.8-16.4 1.4.5 9z"/><circle r="1" fill="#2d4e3e" transform="matrix(6.73338 -1.0766 7.17696 44.88667 228 106)"/><path fill="#3acdab" d="m223 87 5 21 25-8z"/><circle cx="205" cy="44" r="8" fill="#1c462a"/><path fill="#12030c" d="M112-16h155l-30 51z"/><circle r="1" fill="#2a2428" transform="matrix(-26.3844 -21.46956 32.3045 -39.69969 114.1 100)"/><path fill="#273b30" d="m269.8 150-3.6 1.6-38-81.5 3.6-1.7z"/></g></svg>