<svg xmlns="http://www.w3.org/2000/svg" width="300" height="134"><rect width="100%" height="100%" fill="#039565"/><g fill-opacity=".5" transform="translate(.6 .6)scale(1.17188)"><circle r="1" fill="#300000" transform="matrix(-81.06887 -47.93106 129.7796 -219.50457 67.1 55)"/><circle r="1" fill="#2d0000" transform="matrix(80.57011 140.68335 -27.30152 15.63573 247.2 33.6)"/><ellipse cx="187" cy="113" fill="#5cfff8" rx="31" ry="87"/><circle r="1" fill="#180003" transform="matrix(-156.81367 175.0024 -58.99743 -52.86558 85.3 29.4)"/><circle r="1" fill="#43ffe9" transform="matrix(-2.2138 18.02997 -10.6571 -1.30853 220.8 52.2)"/><circle r="1" fill="#0e0000" transform="matrix(-55.63584 -17.50073 8.06893 -25.6516 238.8 14.2)"/><path fill="#2f0314" d="m271 15-10 83-52-8z"/><path fill="#310e1d" d="M164.5 78.2 135 138.4l-21.6-10.6L143 67.6z"/><circle r="1" fill="#44fada" transform="matrix(34.81506 3.39495 -1.6598 17.02125 185 105.6)"/><path fill="#5df2df" d="m255 124-32-24 13-10z"/><ellipse cx="55" fill="#090009" rx="207" ry="30"/><circle r="1" fill="#21976f" transform="matrix(26.68946 -4.8022 3.2384 17.9983 191.4 41)"/><path fill="#2d3c2e" d="m225.4 70.8-4-15.3-10.9 45.1 11.3 4.2z"/><circle cx="190" cy="37" r="12" fill="#28ffd0"/><path fill="#190800" d="m199.6 40.9 9.7-2.4 3.1 12.6-9.7 2.4z"/><path fill="#141316" d="M76.9-13.4 180 43.5l4.5 11.4L-16 51.6z"/><path fill="#36e9c2" d="m220 64-62-9 38 75z"/><path fill="#2ef0c1" d="m210 51.1 21.7 19.6-.2-31.1-17.5.3z"/><circle r="1" fill="#272026" transform="matrix(-13.06156 67.19589 -28.3251 -5.50584 122.4 111.1)"/><path fill="#3e0d17" d="m265.1 130 5.9-35.1-36.5 26.1-6.8-12.7z"/></g></svg>