<svg xmlns="http://www.w3.org/2000/svg" width="300" height="150"><rect width="100%" height="100%" fill="#7c7c7c"/><g fill-opacity=".5" transform="translate(.6 .6)scale(1.17188)"><circle cx="104" cy="63" r="169"/><circle cx="51" cy="76" r="88"/><circle r="1" fill="#fff" transform="matrix(-13.31339 -13.87616 15.99024 -15.34173 147.3 46.7)"/><circle r="1" transform="matrix(-91.52592 -145.90482 40.32748 -25.29738 213.3 24.8)"/><circle r="1" fill="#fff" transform="matrix(19.69862 -12.7363 8.33563 12.89233 188.2 106.4)"/><circle r="1" transform="rotate(134.4 88.3 68.3)scale(144.65006 17.89714)"/><circle r="1" transform="matrix(10.30444 20.257 -175.49242 89.27046 82.1 34.4)"/><circle r="1" transform="matrix(28.8147 -53.96515 101.41485 54.15049 56.6 74.5)"/><circle r="1" transform="matrix(31.78554 -26.02486 61.29854 74.86716 232 62.5)"/><circle r="1" fill="#fff" transform="rotate(68.2 42.6 126.2)scale(9.89916 20.88303)"/><path fill="#dedede" d="m187.2 97.1-23.7 19.2 60-13.7-40.6-19.5z"/><ellipse cx="103" cy="2" rx="254" ry="25"/><circle r="1" transform="rotate(30.1 -119.7 495.3)scale(27.12529 59.23852)"/><path fill="#b1b1b1" d="M137 61h28v9h-28z"/><path fill="#aeaeae" d="m202 122.4-25-36 13.6-.9-18.8 57.5z"/><path fill="#070707" d="M162 42h20v60h-20z"/><path fill="#ababab" d="m141.3 68.4 10.4-31.6-20.5 38.7-10.4-7.1z"/><circle r="1" transform="matrix(.98805 -3.54974 8.68115 2.41635 133.2 59.3)"/><circle r="1" fill="#262626" transform="matrix(-19.97943 48.34977 -19.13425 -7.90679 96.2 127)"/><ellipse cx="164" cy="49" fill="#767676" rx="7" ry="18"/></g></svg>