<svg xmlns="http://www.w3.org/2000/svg" width="300" height="150"><rect width="100%" height="100%" fill="#7c7c7c"/><g fill-opacity=".5" transform="translate(.6 .6)scale(1.17188)"><circle cx="114" cy="44" r="169"/><circle cx="51" cy="79" r="90"/><circle cx="228" cy="41" r="59"/><ellipse cx="147" cy="46" fill="#fff" rx="21" ry="20"/><circle r="1" fill="#fcfcfc" transform="matrix(10.32796 12.4401 -19.11945 15.87327 188.7 108.4)"/><circle r="1" transform="matrix(30.08486 -21.7199 101.37723 140.4205 219.5 52.2)"/><circle r="1" transform="matrix(-7.01223 -24.97092 120.39687 -33.80936 73.3 25)"/><circle r="1" transform="rotate(-144.4 96.4 8.4)scale(19.57726 99.74654)"/><circle r="1" transform="matrix(44.17586 -55.14048 110.09143 88.19987 44.6 63.4)"/><path fill="#dfdfdf" d="M138 28h24v42h-24z"/><path d="M250.1-16 271 125.9 191.5 143l32.8-49.4z"/><path fill="#d2d2d2" d="m181 115 40-13-41-21z"/><path fill="#f2f2f2" d="m121.3 52 39.7-9.8 6.3-13.6-34.5 6.2z"/><path d="m183 49-2 52-54-4z"/><ellipse cx="184" cy="6" rx="197" ry="21"/><circle r="1" fill="#767676" transform="rotate(100.9 60.2 91.8)scale(17.15767 11.25409)"/><circle r="1" fill="#9e9e9e" transform="matrix(.74344 2.09306 -15.82453 5.62077 135 68)"/><path fill="#e4e4e4" d="m182 98 30 3-54 13z"/><circle r="1" fill="#313131" transform="matrix(-5.2511 5.59782 -7.09784 -6.65821 170.6 124)"/><circle r="1" fill="#232323" transform="matrix(-19.02312 -10.50305 30.43533 -55.12445 92.2 127)"/></g></svg>