<svg xmlns="http://www.w3.org/2000/svg" width="300" height="199"><rect width="100%" height="100%" fill="#8261a7"/><g fill-opacity=".5" transform="translate(.6 .6)scale(1.17188)"><circle r="1" fill="#000d00" transform="rotate(-95.5 101.9 27.5)scale(82.25814 254.99999)"/><circle r="1" fill="#ffc4f1" transform="matrix(-30.57812 13.96285 -21.55855 -47.21242 97.1 30.3)"/><ellipse cx="69" cy="130" fill="#000100" rx="55" ry="63"/><ellipse cx="102" cy="3" fill="#ffc0ff" rx="107" ry="26"/><circle r="1" fill="#341200" transform="matrix(-26.90564 -15.9754 13.22143 -22.26743 161.1 49)"/><path fill="#1b1a00" d="M198 13h26v157h-26z"/><ellipse cx="249" cy="98" fill="#9f92ba" rx="16" ry="59"/><circle r="1" fill="#4257e2" transform="matrix(22.02287 .62122 -.96798 34.31567 179 117.3)"/><path fill="#ffbae6" d="M28 0h14v89H28z"/><circle r="1" fill="#3f1d00" transform="matrix(-8.31206 27.90927 -14.34935 -4.27358 60.1 54)"/><circle r="1" fill="#fea8d6" transform="matrix(13.01419 -3.10847 9.20669 38.5455 235 18)"/><path fill="#492500" d="M21 51-16 4l51 24z"/><circle r="1" fill="#000004" transform="rotate(-108.8 138.4 28.7)scale(68.21577 14.2345)"/><path fill="#ff7ea5" d="m123.6 33.2 17.7 34.7-41 21L82.8 54z"/><path fill="#ffbed1" d="M0 26h16v29H0z"/><ellipse cx="158" cy="41" fill="#200e00" rx="27" ry="14"/><path fill="#c37d6a" d="m161.4 89-15-1.2 4.2-46.9 15 1.3z"/><path fill="#e89df1" d="m208.7 52.2-51.2-27.1L-16 10.4 166.4-16z"/><path fill="#8498bc" d="m251.6 111-53.3-24.7 12.4 16.9L232 111z"/><path fill="#828b99" d="M-6.7 234.2-27 90.6l33.6-4.8L27 229.4z"/></g></svg>