<svg xmlns="http://www.w3.org/2000/svg" width="300" height="199"><rect width="100%" height="100%" fill="#8261a7"/><g fill-opacity=".5" transform="translate(.6 .6)scale(1.17188)"><circle r="1" fill="#000d00" transform="matrix(3.18393 75.96636 -254.77632 10.6783 117.5 124)"/><path fill="#ffc2f7" d="m-9-4 119 91 51-103z"/><ellipse cx="69" cy="127" fill="#000200" rx="57" ry="60"/><path fill="#4d2a00" d="M132 26h92v58h-92z"/><ellipse cx="63" cy="53" fill="#2e0e00" rx="17" ry="27"/><ellipse cx="116" fill="#ffaefe" rx="134" ry="24"/><circle r="1" fill="#ae93b7" transform="rotate(-96.3 160.8 -67.4)scale(77.52823 16.04674)"/><ellipse cx="177" cy="119" fill="#425adf" rx="21" ry="40"/><path fill="#ff9ebd" d="m78 65 22-51 50 58z"/><path fill="#ffb8c0" d="M28 35h15v55H28z"/><path fill="#f6b2ff" d="M192.6 24.3 161.7 9.7l36.5 47.9 7.9-6z"/><circle r="1" transform="matrix(10.15 -2.45309 8.99225 37.20668 213.7 135.2)"/><path fill="#3b2c01" d="m225.2 108.2-31.5-82.8 11.6-17.1 19.4 4.7z"/><path fill="#0a0100" d="M16 21h11v110H16z"/><path fill="#140900" d="M130.3 40.6 200.6 74l-18.1-41.5-38.1-9.2z"/><circle r="1" fill="#000004" transform="matrix(11.61948 -5.31981 21.18082 46.26293 152 150.6)"/><circle r="1" fill="#af706d" transform="matrix(9.37708 .14385 -.39053 25.45797 157 66.7)"/><circle r="1" fill="#7f8997" transform="matrix(-3.7591 -61.73422 15.53421 -.9459 0 142.5)"/><path fill="#000e00" d="M226.8 96.3 246.2 78l-46.5-11.6-2.1 20.5z"/><path fill="#2e0000" d="M-6.3 7.3-16 35l28.6-9.7 25.6 8.3z"/></g></svg>