<svg xmlns="http://www.w3.org/2000/svg" width="300" height="172"><rect width="100%" height="100%" fill="#649b70"/><g fill-opacity=".5" transform="translate(.6 .6)scale(1.17188)"><circle r="1" transform="matrix(243.94062 -74.28306 23.25488 76.3675 172.3 90.2)"/><circle r="1" fill="#e8cbff" transform="matrix(103.01706 17.4995 -6.50227 38.27794 61.7 15.3)"/><circle r="1" fill="#030000" transform="matrix(-36.49498 -68.34903 223.9696 -119.58863 164.1 107.8)"/><circle r="1" transform="matrix(28.10608 3.18018 -2.0019 17.69263 9 59.8)"/><path fill="#74593f" d="m92.7 86.8 3.7-52.1 11.2-16.6 74.3 22.4z"/><ellipse cx="35" cy="90" fill="#f1e7ff" rx="43" ry="3"/><path fill="#2c0e20" d="m-16 62.4 89.7 32.8-14-63.1L47.3 49z"/><path fill="#e9ffff" d="M64 27h32v32H64z"/><ellipse cx="118" cy="125" fill="#060002" rx="253" ry="33"/><circle r="1" fill="#040000" transform="matrix(-51.14566 -52.06755 21.87285 -21.48558 201.5 20.6)"/><ellipse cx="14" cy="22" fill="#d2e9ff" rx="48" ry="21"/><path fill="#e99f61" d="m89.4 48.9 70.7-6-1-28.4-44.7 50.9z"/><path fill="#131d1f" d="M102 22h29v22h-29z"/><path fill="#0a0300" d="m59.2 36.4 18.2 50.7-27.2-42L56.1 33z"/><path fill="#c7824d" d="M76 93 53 52l4 24z"/><ellipse cx="7" cy="62" fill="#0e0615" rx="23" ry="21"/><path fill="#0046e4" d="M58 88h30v6H58z"/><path fill="#8dafe1" d="M26 0h126v21H26z"/><circle r="1" fill="#050005" transform="matrix(-17.99734 47.82272 -33.40207 -12.57035 220.4 26.9)"/><path fill="#e3d4d3" d="M3 91h57v3H3z"/></g></svg>