<svg xmlns="http://www.w3.org/2000/svg" width="300" height="172"><rect width="100%" height="100%" fill="#649b70"/><g fill-opacity=".5" transform="translate(.6 .6)scale(1.17188)"><circle r="1" transform="matrix(240.7055 -81.9005 27.29625 80.22366 135.3 107)"/><circle r="1" fill="#e7caff" transform="matrix(-3.75708 31.98246 -94.43016 -11.093 68.1 24.4)"/><circle r="1" fill="#030000" transform="matrix(40.0661 69.39652 -220.83647 127.5 152.7 117)"/><circle r="1" fill="#250019" transform="rotate(-80.3 48.2 20.5)scale(20.00985 68.44699)"/><circle r="1" fill="#574e30" transform="matrix(-.89202 31.14753 -18.64625 -.534 114.6 50.8)"/><path fill="#d4d5ff" d="M1 92.5v-5h82v5z"/><ellipse cx="213" cy="12" fill="#070000" rx="51" ry="64"/><path fill="#e2ffff" d="M65 22h28v37H65z"/><path fill="#ffa660" d="M145 17h18v30h-18z"/><ellipse cx="121" cy="126" fill="#060002" rx="255" ry="34"/><ellipse cx="57" cy="45" rx="6" ry="13"/><path fill="#d2e9ff" d="M-10 34.3 3.9-8.5 60 9.7 46.1 52.5z"/><path fill="#f4d19b" d="M109 45h16v19h-16z"/><circle r="1" fill="#8ba9ed" transform="rotate(104.8 62.5 55.2)scale(14.27638 23.24525)"/><ellipse cy="59" fill="#000004" rx="31" ry="18"/><path fill="#212123" d="M104 22h28v23h-28z"/><path fill="#452229" d="M191 22.7 183.6 85l-24.3-65.5L141.8-16z"/><path fill="#353b4c" d="M164 53 38 76l37 21z"/><path fill="#97b7e4" d="m35.7 15.4 18.6-39.9 58 27-18.6 40z"/><path fill="#504c4c" d="M195 102h47v11h-47z"/></g></svg>