<svg xmlns="http://www.w3.org/2000/svg" width="300" height="172"><rect width="100%" height="100%" fill="#908061"/><g fill-opacity=".5" transform="translate(.6 .6)scale(1.17188)"><circle r="1" transform="matrix(-27.1533 -76.25533 226.04744 -80.49187 198.5 94.2)"/><circle r="1" fill="#ffd10e" transform="matrix(-31.51703 -16.28473 33.69666 -65.2156 124.2 51.1)"/><circle r="1" transform="matrix(50.16944 2.17776 -9.79775 225.71279 217.6 69.5)"/><circle r="1" fill="#382400" transform="matrix(11.39789 198.14239 -61.96456 3.56443 18.7 46.3)"/><ellipse cx="22" cy="65" fill="#fecb1c" rx="19" ry="36"/><circle r="1" transform="matrix(112.97246 -19.97435 2.6637 15.06557 55.7 134.8)"/><circle r="1" fill="#c79c12" transform="matrix(-6.52353 -13.1271 117.14429 -58.21502 49.3 43.7)"/><path fill="#bdbcb4" d="m176.1 157-10.6 5 1.2-42.7-45.8 14.1z"/><circle r="1" transform="matrix(37.40145 -33.20656 48.67647 54.82563 232.3 54.2)"/><path fill="#ff4" d="M73.8 105.5 87 91.8l17.2 16.7L91 122.2z"/><circle r="1" transform="matrix(-17.91665 15.46771 -57.63305 -66.75784 4.4 117)"/><path fill="#130c03" d="M108.4 88 65 49.9l91.4 51.8-65.9-21.2z"/><circle r="1" transform="matrix(-26.58226 -42.59502 7.28583 -4.54687 54.7 88.7)"/><circle r="1" fill="#e9b52c" transform="rotate(-146.8 68.1 11.1)scale(46.34232 16.82408)"/><path fill="#fff135" d="m31.7 114.8 3.5 1 21.9-.4-9.4-15.2z"/><ellipse cx="36" cy="12" fill="#4e3e00" rx="77" ry="22"/><path fill="#efbb2b" d="m171.2 89.8-.6-63.4-62.3-29.2 53 63z"/><path d="m128 155-53 7 33-65z"/><ellipse cx="18" cy="18" fill="#ffff42" rx="7" ry="8"/><ellipse cx="192" cy="104" rx="36" ry="31"/></g></svg>