<svg xmlns="http://www.w3.org/2000/svg" width="300" height="172"><rect width="100%" height="100%" fill="#908061"/><g fill-opacity=".5" transform="translate(.6 .6)scale(1.17188)"><circle r="1" transform="rotate(-23.9 319 -390)scale(255 78.24415)"/><circle r="1" fill="#ffd20e" transform="matrix(38.26445 -66.13937 29.49156 17.06213 123.9 50.6)"/><circle r="1" transform="matrix(94.3499 8.16036 -13.42668 155.23896 255 65.2)"/><circle r="1" fill="#342100" transform="matrix(-57.13042 3.06723 -9.28837 -173.00576 21.8 55)"/><path fill="#ebbc17" d="m19 107-35-72 94-4z"/><circle r="1" transform="matrix(131.79313 23.73868 -7.68353 42.65767 8.8 142)"/><ellipse cx="145" cy="42" fill="#d6a526" rx="27" ry="52"/><path fill="#e1e1da" d="M126 129h40v15h-40z"/><circle r="1" fill="#ffff43" transform="matrix(-10.90607 2.38045 -1.08964 -4.9922 43.3 110.7)"/><path fill="#130f00" d="M39 62h67v33H39z"/><circle r="1" fill="#000001" transform="rotate(-50.8 180.2 -215.7)scale(93.6285 68.4542)"/><circle r="1" fill="#9c7600" transform="rotate(-168.5 41.5 -4.2)scale(31.49063 42.15044)"/><path d="m192.9 111.8-82.6-1.3L-16 162l127.8-26.1z"/><ellipse cx="89" cy="97" fill="#fec837" rx="15" ry="24"/><path fill="#fccc35" d="M164 13h7v71h-7z"/><path fill="#000001" d="M107 80 77 93l62-8z"/><ellipse cy="19" rx="11" ry="33"/><path d="m20-16 8 49 37-14zm55.5 175.7 6.7-43.1L41.9 53l-12.5-2.8z"/><path d="M-12.6 84.8 8.3 162l6.9-87.4 29.4 4.5z"/></g></svg>