<svg xmlns="http://www.w3.org/2000/svg" width="300" height="179"><rect width="100%" height="100%" fill="#646c9e"/><g fill-opacity=".5" transform="translate(.6 .6)scale(1.17188)"><circle r="1" fill="#000017" transform="rotate(87.9 37 58.9)scale(25.30341 255)"/><circle r="1" fill="#fff" transform="matrix(-15.96 41.4651 -27.54945 -10.60383 130.6 89)"/><circle r="1" fill="#002248" transform="matrix(-67.04045 -14.6381 33.48753 -153.36814 237.7 98.9)"/><circle r="1" fill="#001a44" transform="rotate(16.1 -311.3 114)scale(47.93991 254.69735)"/><circle r="1" fill="#000400" transform="matrix(8.9721 16.41729 -128.29706 70.11478 223.6 152)"/><circle r="1" fill="#4c7cb2" transform="matrix(15.7654 -11.3286 39.65396 55.18432 188.6 76.2)"/><circle r="1" fill="#004450" transform="matrix(-91.95275 -19.37748 4.22041 -20.0273 51.6 145.4)"/><path fill="#fff" d="m139.2 40.2 14.3 15.4-38.7 36.2-14.3-15.4z"/><circle r="1" fill="#224291" transform="matrix(-19.2182 15.39668 -5.22667 -6.52395 125.5 88)"/><ellipse cx="44" cy="89" fill="#5476ab" rx="22" ry="51"/><path fill="#fff" d="M110.9 126.5 161 62.7l-39.5-27.2 41.9 59.4z"/><circle r="1" fill="#98a0bb" transform="rotate(135.5 34 79.4)scale(15.52519 60.87565)"/><circle r="1" fill="#000c3c" transform="rotate(-92.4 43.7 -41.9)scale(19.83419 254.99999)"/><circle r="1" fill="#001039" transform="matrix(.3218 -184.38169 17.20837 .03003 .3 59.5)"/><path fill="#154b80" d="m44 37 146-53-81 84z"/><circle r="1" fill="#001f58" transform="rotate(-23.9 281.6 -570.6)scale(29.49259 175.94557)"/><path fill="#f3f8f9" d="M116.6 41.1 95.7 54.9l28.1-9.7 19.6.9z"/><path fill="#fff" d="m159 61-31-13 34 50z"/><path fill="#d8c7b6" d="m171.4 135.5-25.3-11-20.2 8.1 7.5 9.9z"/><circle cx="160" cy="42" r="7" fill="#edf4f6"/></g></svg>