<svg xmlns="http://www.w3.org/2000/svg" width="300" height="179"><rect width="100%" height="100%" fill="#646c9e"/><g fill-opacity=".5" transform="translate(.6 .6)scale(1.17188)"><circle r="1" fill="#000017" transform="rotate(86.2 67.2 71.9)scale(43.59071 255.00002)"/><circle r="1" fill="#fff" transform="matrix(26.97918 9.0795 -12.89683 38.32215 132.1 87.3)"/><circle r="1" fill="#002247" transform="rotate(-169.1 116.7 44.2)scale(56.13159 153.7366)"/><circle r="1" fill="#001a44" transform="matrix(-44.55104 -10.94278 55.93163 -227.7128 27.6 67.5)"/><circle r="1" fill="#000200" transform="matrix(-11.02408 -20.43501 170.89187 -92.19107 234.3 152)"/><path fill="#fff" d="m100.8 77.5 44.7-33.7 9.7 12.7-44.7 33.7z"/><circle r="1" fill="#4c7cb4" transform="matrix(16.7395 -12.48129 37.16967 49.8508 189.1 72.9)"/><circle r="1" fill="#004651" transform="rotate(3.4 -2342.1 840.3)scale(75.78626 16.69025)"/><circle r="1" fill="#607eb4" transform="matrix(-16.40424 6.0478 -16.25287 -44.08474 53.3 83.4)"/><circle r="1" fill="#2c4694" transform="matrix(19.60463 -14.77315 5.91721 7.8524 123.4 92.2)"/><circle r="1" fill="#fff" transform="matrix(21.51951 -21.14717 5.74214 5.84324 141.4 99.5)"/><path fill="#bab6c3" d="m71 68 63 82 30-17z"/><circle r="1" fill="#fff" transform="matrix(7.37307 -5.74744 17.10127 21.93825 145.2 63.7)"/><ellipse cx="68" cy="4" fill="#000d40" rx="251" ry="15"/><circle r="1" fill="#000f37" transform="rotate(-88.9 39.6 37.1)scale(139.40759 15.9541)"/><circle r="1" fill="#00205a" transform="rotate(-111.3 127.3 -63.5)scale(174.149 21.70487)"/><circle r="1" fill="#094278" transform="matrix(-7.91895 -14.24705 44.86 -24.93455 100.3 33.3)"/><path fill="#425f8c" d="m237 76-115 43 103 19z"/><path fill="#fff" d="m155.5 42.8 8.8-8.2 6.2 6.6-8.8 8.2z"/><path fill="#4671a1" d="m166 11-54 54-57 9z"/></g></svg>