<svg xmlns="http://www.w3.org/2000/svg" width="300" height="199"><rect width="100%" height="100%" fill="#ae9f5a"/><g fill-opacity=".5" transform="translate(.6 .6)scale(1.17188)"><circle r="1" fill="#fff" transform="rotate(93 90.9 86.3)scale(83.21189 105.85503)"/><circle r="1" fill="#00366b" transform="matrix(35.86125 -77.25646 90.68816 42.09604 30.5 86.8)"/><circle r="1" fill="#091f4b" transform="matrix(-102.1726 23.3555 -6.12981 -26.8159 246 95.7)"/><circle r="1" fill="#dee4ff" transform="matrix(-3.13403 24.83275 -81.57425 -10.29511 165.1 156.3)"/><ellipse cx="166" cy="36" fill="#dff2ff" rx="123" ry="50"/><circle r="1" fill="#1c271f" transform="rotate(63.5 -85.2 52.7)scale(172.32804 56.59316)"/><circle cx="82" cy="86" r="49" fill="#30978d"/><path fill="#fffeff" d="M128-12v120L263 7z"/><path fill="#232a27" d="m238 56-34 49 67 50z"/><path fill="#eadfe3" d="m110.3 67.1-38.7 58.2-12.9-62.4 40.6 63.4z"/><path fill="#00665c" d="M109 53h19v79h-19z"/><path fill="#e6e7ec" d="m186.5 105.5-.1-85.1 10.1 98.1-18.2-3.6z"/><path fill="#514f44" d="M159 75h21v58h-21z"/><path fill="#cecbd9" d="M108 143h148v21H108z"/><circle r="1" fill="#fff" transform="matrix(26.70207 -25.7551 14.8874 15.43478 129 19.4)"/><path fill="#5b6054" d="m214 64-18 10 36 18z"/><path fill="#225754" d="m48.9 48.3-6.7 38.2 40.4-35.1 5.7-19.9z"/><path fill="#423330" d="M84.8-11.2-16 15.7l50.3 166.7 7.8-154.6z"/><path fill="#41443f" d="m121.8 182.9-94.4-48.5 78.4 50.6-7.2-54.8z"/><circle r="1" fill="#dedadd" transform="rotate(163.7 59.9 85.9)scale(22.52511 27.45281)"/></g></svg>