<svg xmlns="http://www.w3.org/2000/svg" width="300" height="199"><rect width="100%" height="100%" fill="#ae9f5a"/><g fill-opacity=".5" transform="translate(.6 .6)scale(1.17188)"><circle r="1" fill="#fff" transform="matrix(43.6501 -69.93003 84.03875 52.45671 167.3 0)"/><circle r="1" fill="#00386c" transform="rotate(34.2 -126 101.2)scale(96.18675 86.59481)"/><circle r="1" fill="#0d2249" transform="rotate(-9.2 747.2 -1338.4)scale(84.1136 27.6155)"/><circle r="1" fill="#e3e9ff" transform="matrix(-78.10352 -7.24544 2.02722 -21.85278 164.3 153)"/><circle r="1" fill="#e6f7ff" transform="rotate(176.8 82.4 16.6)scale(122.21031 50.60903)"/><circle r="1" fill="#1c2921" transform="rotate(-101 85.6 65.7)scale(156.24493 38.9768)"/><circle r="1" fill="#35988f" transform="matrix(44.24141 21.19693 -21.72258 45.33853 81.7 86.1)"/><path fill="#fff" d="M128 0h25v108h-25z"/><path fill="#ffe6f1" d="m80 116.5-9.8 2-10.3-53 9.9-2z"/><ellipse cx="97" cy="105" fill="#fff9ff" rx="6" ry="19"/><path fill="#262b2f" d="m271 126-70 1 35-74z"/><circle r="1" fill="#f4f5ff" transform="matrix(7.20516 -40.86251 86.76042 15.2982 167.5 25)"/><path fill="#006c62" d="M107 50h21v80h-21z"/><ellipse cx="231" cy="161" fill="#c0becf" rx="144" ry="20"/><ellipse cx="189" cy="101" fill="#e4e5e3" rx="5" ry="20"/><path fill="#5a6063" d="M78.8-16h-5.6l19.9 71.4-31.8 8.4z"/><path fill="#dbe6ff" d="m261 86-32-37 30-65z"/><path fill="#e0cdd6" d="M114.9 77.9 81.4 52.6 102.3 76l-12 38.4z"/><path fill="#979c93" d="m233.5 77.3-53.9 18.6L207.2 63l-.7 1.2z"/><path fill="#24332c" d="m101.2 151.4 3.7 31.2 16.4 2.4-19-44.7z"/></g></svg>