<svg xmlns="http://www.w3.org/2000/svg" width="300" height="171"><rect width="100%" height="100%" fill="#b27961"/><g fill-opacity=".5" transform="translate(.6 .6)scale(1.17188)"><circle r="1" fill="#bfe6ef" transform="matrix(16.31634 66.2824 -107.2833 26.40928 192 42)"/><circle r="1" fill="#3f6672" transform="rotate(72.7 -43.5 78.8)scale(83.93545 63.04256)"/><ellipse cx="125" cy="81" fill="#fffffb" rx="64" ry="13"/><circle r="1" fill="#a9c3c6" transform="matrix(101.45122 -17.88859 3.11124 17.64472 32.2 11.1)"/><ellipse cx="63" cy="48" fill="#1d1a17" rx="24" ry="26"/><ellipse cx="206" cy="135" fill="#5d7f87" rx="107" ry="26"/><ellipse cx="132" cy="122" fill="#fff" rx="19" ry="9"/><path fill="#817d7a" d="m282.4 65.9-30.5 47L201.6 80l30.5-47z"/><ellipse cx="207" cy="101" fill="#ffe6ac" rx="24" ry="13"/><path fill="#56463e" d="m118 63-45-9 45 29z"/><path fill="#fff" d="m144.2 45.5 10 8.4-42.4 50.6-10-8.4z"/><path fill="#29383a" d="m152 117-13-15-33 1z"/><circle r="1" fill="#9c9288" transform="rotate(-77 24.2 -2)scale(42.23012 29.27244)"/><path fill="#fef9f1" d="m212.2 60.3-26.7-1.9-8.6 23.7 42.3-14.2z"/><path fill="#271a17" d="m197 122-25-18 44 15z"/><path fill="#4e413e" d="m145 75 12 19-22-15z"/><path fill="#211510" d="m211.4 73.3 1.7 6.8-18.5 4.6-1.7-6.8z"/><path fill="#f5eee4" d="m63.8 8.3 19.1 7.3-29.7 10.1L43 17.5z"/><ellipse cx="121" cy="91" fill="#fff" rx="21" ry="11"/><path fill="#9b9b97" d="m82-16 123 60-124 1z"/></g></svg>