<svg xmlns="http://www.w3.org/2000/svg" width="300" height="171"><rect width="100%" height="100%" fill="#b27961"/><g fill-opacity=".5" transform="translate(.6 .6)scale(1.17188)"><circle r="1" fill="#bbe3ec" transform="matrix(-47.11066 109.91741 -74.94783 -32.12268 173.9 16.2)"/><ellipse cx="37" cy="145" fill="#3d6470" rx="76" ry="129"/><ellipse cx="125" cy="82" fill="#fbf8f2" rx="64" ry="16"/><ellipse cx="200" cy="138" fill="#516b71" rx="66" ry="30"/><circle r="1" fill="#1d1d1c" transform="matrix(20.12788 -20.05774 14.90023 14.95233 63.4 46.5)"/><circle r="1" fill="#a6bdbe" transform="rotate(164.5 9.4 8.8)scale(97.75203 21.87343)"/><circle r="1" fill="#ffe3b3" transform="matrix(2.15803 13.64044 -24.17282 3.82433 210.6 100)"/><circle r="1" fill="#494039" transform="rotate(-144.9 65.1 18)scale(13.95623 7.5929)"/><circle r="1" fill="#879699" transform="matrix(-16.38105 -42.6741 29.93963 -11.49275 249 77.5)"/><circle r="1" fill="#574c44" transform="matrix(1.25883 -4.46874 49.97078 14.07657 111.4 104)"/><ellipse cx="133" cy="124" fill="#fff" rx="17" ry="10"/><path fill="#fffffe" d="m159 44-39 60 10-54z"/><path fill="#3e322c" d="m188 77 25-5 4 16z"/><path fill="#6c4d3f" d="m176.9 121.4 3.8-26.9-43.3-5.5 85.8 28.8z"/><path fill="#fcfaf4" d="m152.3 83.6 44.2-28.3 23 12.1-57.4 25.7z"/><path fill="#2e1d18" d="m84.4 90.2 15.7-3.3 1.5 6.9L85.9 97z"/><ellipse cx="205" cy="101" fill="#ffd8ad" rx="24" ry="13"/><ellipse cx="61" cy="15" fill="#fffff7" rx="16" ry="6"/><path fill="ivory" d="M144 96h26v15h-26z"/><circle r="1" fill="#4e4a43" transform="rotate(-110.7 93.6 21)scale(6.05701 35.15959)"/></g></svg>