<svg xmlns="http://www.w3.org/2000/svg" width="300" height="198"><rect width="100%" height="100%" fill="#a47755"/><g fill-opacity=".5" transform="translate(.6 .6)scale(1.17188)"><circle cx="74" cy="71" r="227" fill="#00224c"/><circle r="1" fill="#fff" transform="rotate(175.3 63.7 46.9)scale(94.7082 44.31531)"/><ellipse cx="150" cy="13" rx="255" ry="31"/><ellipse cx="91" cy="160" rx="255" ry="30"/><path fill="#fff9f5" d="m214.5 72.1 1 58-98 1.8-1-58z"/><ellipse cx="240" cy="95" rx="24" ry="168"/><circle r="1" transform="matrix(23.71552 .12418 -.9703 185.31148 14 95.2)"/><path fill="#ffeade" d="M160 44h56v50h-56z"/><path fill="#bfbfd6" d="M40 47h55v83H40z"/><path fill="#71738c" d="M39 44h67v42H39z"/><ellipse cx="158" cy="107" rx="2" ry="157"/><circle r="1" fill="#000001" transform="matrix(1.72492 -20.12028 210.75813 18.06835 71.1 152.3)"/><circle r="1" fill="#f9e8ea" transform="matrix(-21.9375 38.61698 -15.00753 -8.52547 125 87.6)"/><ellipse cx="96" cy="65" rx="2" ry="77"/><ellipse cx="142" cy="8" fill="#000001" rx="255" ry="20"/><circle r="1" fill="#000003" transform="matrix(25.31715 -.09037 .5581 156.3447 242.8 101.3)"/><ellipse cx="11" cy="128" fill="#000005" rx="27" ry="163"/><path fill="#fff3f0" d="M87.2 123.5 45 108.1l7.9-21.6L95 101.9z"/><path fill="#cab1a2" d="M198 45h19v84h-19z"/><path fill="#ede0e1" d="M159 56h40v74h-40z"/></g></svg>