<svg xmlns="http://www.w3.org/2000/svg" width="300" height="198"><rect width="100%" height="100%" fill="#a47755"/><g fill-opacity=".5" transform="translate(.6 .6)scale(1.17188)"><circle cx="51" cy="56" r="233" fill="#00224c"/><circle r="1" fill="#fff" transform="matrix(3.83647 43.85107 -92.8548 8.12374 129.7 88.8)"/><ellipse cx="130" rx="255" ry="44"/><circle r="1" transform="matrix(-.65377 37.1907 -213.25039 -3.7487 135.7 168)"/><ellipse cx="167" cy="90" fill="#fff1ec" rx="53" ry="42"/><ellipse cx="241" cy="87" rx="25" ry="168"/><circle r="1" transform="matrix(.39876 -208.43503 24.10764 .04612 14.4 107.6)"/><path fill="#c0c0d7" d="M41 44h48v85H41z"/><path fill="#f0dcd5" d="M164 44h53v87h-53z"/><circle r="1" transform="matrix(211.92945 21.527 -1.78992 17.62143 64.5 151.2)"/><circle r="1" fill="#000001" transform="matrix(-221.12792 -4.22127 .48268 -25.28483 131.7 3.3)"/><circle cx="127" cy="101" r="30" fill="#efe5eb"/><ellipse cx="158" cy="96" rx="2" ry="59"/><ellipse cx="96" cy="87" rx="2" ry="50"/><circle r="1" fill="#000004" transform="matrix(-4.2601 -121.99304 37.2457 -1.30065 253.2 111)"/><circle r="1" fill="#000003" transform="matrix(-21.37985 1.80732 -12.43575 -147.11022 15.5 111.2)"/><circle r="1" fill="#77748b" transform="matrix(4.63667 12.73916 -44.90809 16.3452 82.2 63.2)"/><path fill="#e0d8db" d="M39 91h55v39H39z"/><ellipse cx="208" cy="86" fill="#c3ad9c" rx="9" ry="43"/><path fill="#f6f4fb" d="M159 70h28v36h-28z"/></g></svg>