<svg xmlns="http://www.w3.org/2000/svg" width="300" height="222"><rect width="100%" height="100%" fill="#938d63"/><g fill-opacity=".5" transform="translate(.6 .6)scale(1.17188)"><circle r="1" fill="#fff9e0" transform="rotate(-2.8 2816.5 -4676)scale(35.80432 255)"/><circle r="1" fill="#ffebd5" transform="matrix(-2.9399 -241.93036 36.4254 -.44264 21.7 93.2)"/><circle r="1" fill="#eed5cc" transform="matrix(21.13464 -44.8305 105.7093 49.83501 112.5 0)"/><ellipse cx="127" cy="100" fill="#4b6014" rx="62" ry="37"/><ellipse cx="150" cy="183" fill="#ffe3c4" rx="218" ry="10"/><path fill="#7b695a" d="M174 30h26v140h-26z"/><path fill="#d0f4ff" d="m166 49-22 25-11-33z"/><path fill="#f9ffd5" d="M110 126h16v15h-16z"/><circle r="1" fill="#debfb5" transform="rotate(122.9 -.2 89.3)scale(11.75374 24.02501)"/><ellipse cx="94" cy="163" fill="#402131" rx="19" ry="11"/><path fill="#d3b9c2" d="m79.2 44.7 45.4-2.8-43.8 29.4-18.5 18z"/><path fill="#4e6738" d="M94 53h46v60H94z"/><circle r="1" fill="#e1ba9b" transform="matrix(36.11152 -53.01273 5.1857 3.53243 167 144)"/><path fill="#482030" d="m179.1 136.5 22.5 11-12.7 26-22.5-11z"/><path fill="#eccfb5" d="M42 205 15 84l55-7z"/><path fill="#e7cca7" d="m35 35-4-51L216 4z"/><circle r="1" fill="#e9c6a3" transform="rotate(6.4 -1023.5 2151.2)scale(34.25066 92.28983)"/><ellipse cx="127" cy="17" fill="#645b49" rx="57" ry="3"/><circle r="1" fill="#a78b12" transform="matrix(31.05811 -21.50914 4.55082 6.57115 156.8 135.1)"/><path fill="#8b313e" d="M57 32h34v13H57z"/></g></svg>