<svg xmlns="http://www.w3.org/2000/svg" width="300" height="222"><rect width="100%" height="100%" fill="#938d63"/><g fill-opacity=".5" transform="translate(.6 .6)scale(1.17188)"><circle r="1" fill="#fff8e0" transform="rotate(-90.9 160 -67.5)scale(218.28866 33.09034)"/><circle r="1" fill="#ffdfcd" transform="matrix(-39.78262 -3.13096 20.00707 -254.21392 30.4 76.8)"/><path fill="#f8ded4" d="m2 5 163 62 44-76z"/><circle r="1" fill="#4b6117" transform="matrix(-61.67123 1.4589 -.8937 -37.7793 127 99)"/><ellipse cx="135" cy="182" fill="#ffe6c6" rx="155" ry="9"/><path fill="#6e2f1c" d="M56 30h17v40H56z"/><path fill="#cdebff" d="m137.8 39.5-1 23.7 7.4 11.9 24.4-18.8z"/><circle r="1" fill="#431633" transform="matrix(-.78145 -19.50965 13.25996 -.53112 186 155.3)"/><path fill="#edffcc" d="M110 124h17v17h-17z"/><path fill="#e4c7ae" d="M21 73 8 194l86-53z"/><path fill="#442035" d="m100.7 153.8 18.5 2.6-15.8 18.4-43.1-20z"/><path fill="#ddc3d2" d="m131 38-52 8-10 28z"/><path fill="#7f596d" d="m74 160-19 10 3-75z"/><path fill="#efbac2" d="m178.2 126.1-31.1 35.7-32.8 3.6 41.1 14.5z"/><circle r="1" fill="#e6c8a4" transform="rotate(12.6 85.7 776.2)scale(92.85214 27.79682)"/><path fill="#4f622d" d="m87 140 11-86 42-2z"/><ellipse cx="141" cy="18" fill="#5e5745" rx="56" ry="3"/><circle r="1" fill="#eac6a4" transform="matrix(44.21283 5.14318 -9.98615 85.84502 244.6 128)"/><circle r="1" fill="#91760a" transform="matrix(10.73007 6.49836 -17.6714 29.17894 154 133.1)"/><path fill="#a7918f" d="m185.1 73.7-51.7-42.8 71.9 11.8-10.4 104z"/></g></svg>