<svg xmlns="http://www.w3.org/2000/svg" width="300" height="98"><rect width="100%" height="100%" fill="#a57b5e"/><g fill-opacity=".5" transform="translate(.6 .6)scale(1.17188)"><ellipse cx="119" cy="33" rx="171" ry="83"/><circle r="1" fill="#00202d" transform="matrix(-16.20402 -103.07076 239.53067 -37.65723 76.7 36.6)"/><path fill="#b0d5d9" d="m85.4 31.9 65.9 9.7-9.9-17.8-21.9-10.2z"/><circle r="1" fill="#f4774c" transform="matrix(6.1049 -31.38292 9.77943 1.90239 89.5 59.6)"/><path fill="#e9e8d2" d="m97.6 63.7 2.6-35.1 30.1-9.8-37.3 2z"/><circle r="1" fill="#06232a" transform="matrix(17.92986 -3.4203 3.55756 18.6494 116 42.3)"/><path fill="#e46034" d="m114 77 17-2-41-24z"/><circle cx="3" cy="15" r="80" fill="#081d1f"/><path fill="#d1ffff" d="m149 34-15-18-16 2z"/><circle r="1" fill="#041e23" transform="matrix(126.46392 7.25007 -.89275 15.57226 206.5 10.6)"/><circle r="1" fill="#62291f" transform="matrix(14.47478 22.02947 -14.0349 9.22184 88.4 72.7)"/><path fill="#ffffe3" d="m93.6 50.9-1.1-5.8 4.4-20.5 10.2-3.2z"/><path fill="#80acb3" d="m129.7 19.2 27 45.4-10.2-30.9L103.3 22z"/><circle r="1" fill="#072124" transform="matrix(-35.74648 -40.11132 10.2879 -9.16838 141.5 69.2)"/><circle r="1" fill="#2c2925" transform="rotate(43.2 10.2 112.9)scale(14.88771 31.75332)"/><circle r="1" fill="#ff8641" transform="rotate(-40.3 113.5 -104)scale(2.68248 14.40813)"/><path fill="#5c372c" d="m145.2 31.7 10.5 24.5L173.4 99l1.2-63.2z"/><circle r="1" fill="#111f21" transform="rotate(-18.3 177.7 -620.1)scale(23.40527 66.488)"/><circle r="1" fill="#4d867c" transform="rotate(-35.4 207.2 -223.8)scale(1.19288 36.96229)"/><circle r="1" fill="#122225" transform="matrix(-1.32261 -11.58188 37.24055 -4.25275 101.5 9.4)"/></g></svg>