<svg xmlns="http://www.w3.org/2000/svg" width="300" height="98"><rect width="100%" height="100%" fill="#a57b5e"/><g fill-opacity=".5" transform="translate(.6 .6)scale(1.17188)"><circle cx="108" cy="39" r="156"/><circle cx="124" cy="18" r="155" fill="#00202d"/><path fill="#becdc7" d="M113.9 13.2 72.3 46.7l40.4-13.6 49.5-.5z"/><circle r="1" fill="#e3744d" transform="matrix(8.8685 -49.2721 9.75574 1.75594 89.4 68.6)"/><path fill="#8cbbc1" d="m123 18.9 45.7 61.9-9.9-20-20.6-42.9z"/><path fill="#fff" d="m95 25-1 26 11-32z"/><circle cx="21" cy="28" r="64" fill="#0a1d1e"/><circle r="1" fill="#c45430" transform="matrix(2.21834 -4.75724 17.35863 8.09446 112.7 70.1)"/><circle r="1" fill="#0d1e21" transform="rotate(78.7 104.3 127.2)scale(50.06729 72.14118)"/><path fill="#05242b" d="M144.3-12.8 70.2-6l76.5 51.5-50.3-6.8z"/><circle r="1" fill="#622a1f" transform="rotate(-23.2 221.2 -171.4)scale(17.30755 28.15077)"/><circle r="1" fill="#5e3126" transform="matrix(11.66703 22.79937 -9.17214 4.69362 162.7 51.6)"/><path fill="#c1eef0" d="m145 27-14-11-28 5z"/><path fill="#e67f49" d="m76.9 45.1 18.5-5.6L110 71.2l11.7 1.6z"/><path fill="#302c29" d="M98.5 20.2 70.8 72.3 43.5 57.8 71.2 5.7z"/><circle r="1" fill="#021e23" transform="matrix(8.17986 -10.07002 34.89327 28.34376 134.3 63.3)"/><path fill="#c3eaed" d="m130.8 17.8 10 9 7.4 9.7-5.2 2.7z"/><path fill="#3f6776" d="m107.2 26.3 4.5-3.5 14-1.9 17.8 24.6z"/><ellipse cx="96" cy="36" fill="#ffffea" rx="3" ry="10"/><path fill="#0d2c35" d="m130.7 17 17.7 12.7L160.2-16l-55 34.7z"/></g></svg>