<svg xmlns="http://www.w3.org/2000/svg" width="300" height="150"><rect width="100%" height="100%" fill="#7d9954"/><g fill-opacity=".5" transform="translate(.6 .6)scale(1.17188)"><circle cx="99" cy="81" r="193"/><circle cx="22" cy="76" r="148" fill="#000005"/><ellipse cx="110" cy="65" fill="#6c7262" rx="45" ry="41"/><ellipse cx="178" cy="9" rx="255" ry="15"/><path d="M254.7 152 0 143l1.4-41 254.8 9z"/><circle r="1" transform="matrix(46.90184 .82012 -2.40622 137.60893 25.6 50.1)"/><path fill="#b1ff3d" d="m168.2 110 3.4-40.9L179 62l4.9 55.8z"/><circle r="1" transform="matrix(-4.461 16.4192 -113.44365 -30.82196 227.8 14.4)"/><path fill="#b5e56e" d="M118 23h79v5h-79z"/><path fill="#9dca5f" d="m235.5 58.5 11.2-16.1-9.8-3.4-56 28.9z"/><path fill="#9aca56" d="M93.9 27.8 68.4 44.3l19 14.9 9.5 37.5z"/><circle r="1" transform="rotate(-176.9 128.4 30)scale(5.94446 147.43204)"/><ellipse cx="163" cy="45" fill="#292036" rx="63" ry="17"/><ellipse cx="157" cy="127" rx="255" ry="14"/><circle r="1" fill="#3f3252" transform="matrix(34.60755 -18.51596 10.9949 20.55021 217 90)"/><path fill="#ace261" d="m208.8 24.8 35 17-2.6 5.4-35-17z"/><circle r="1" transform="matrix(38.6324 26.81069 -99.75268 143.73689 11.8 52.7)"/><circle r="1" transform="rotate(5.5 37.2 2148)scale(105.81821 20.24749)"/><path fill="#333037" d="M113 30h57v75h-57z"/><path fill="#687457" d="m109.5 54.3-19.9.3L79 108.7l31.7-4z"/></g></svg>