<svg xmlns="http://www.w3.org/2000/svg" width="300" height="150"><rect width="100%" height="100%" fill="#9d8266"/><g fill-opacity=".5" transform="translate(.6 .6)scale(1.17188)"><circle r="1" fill="#ffffe1" transform="matrix(172.61887 -187.6905 79.56435 73.1753 116.3 23.4)"/><ellipse cx="157" cy="62" fill="#a77500" rx="95" ry="42"/><circle r="1" fill="#fff" transform="matrix(-60.64963 -5.21095 15.43213 -179.61288 5.2 82.7)"/><ellipse cx="90" cy="127" fill="#fff" rx="255" ry="21"/><circle cx="89" cy="82" r="25" fill="#1d2f1b"/><ellipse cx="163" cy="9" fill="#fff" rx="255" ry="14"/><ellipse cx="158" cy="44" fill="#ffd600" rx="66" ry="18"/><circle r="1" fill="#574f4f" transform="rotate(-27.1 285.6 -396.7)scale(41.33471 27.25861)"/><circle r="1" fill="#fff" transform="rotate(171.3 121 69.6)scale(94.86524 12.97921)"/><path fill="#fff" d="m271-16-12 142-26-142z"/><circle r="1" fill="#ffd200" transform="matrix(-22.35216 -2.15227 3.66519 -38.06442 152.3 68.1)"/><circle r="1" fill="#fff" transform="matrix(10.69258 26.06891 -148.75009 61.0122 48 16.6)"/><ellipse cx="234" cy="7" fill="#fff" rx="109" ry="17"/><path fill="#fff" d="m-16 135 145-35 142 43z"/><path fill="#fff" d="m251.5 96.1 2.7-106.6L271 124.9 200.3 143z"/><path fill="#666042" d="M223 36h29v67h-29z"/><ellipse cx="31" cy="77" fill="#fff" rx="35" ry="127"/><path fill="#d45c0a" d="M106.9 107.8 108 57l26.2-7.8 4.4 46.1z"/><ellipse cx="81" cy="58" fill="#646c56" rx="16" ry="27"/><path fill="#acd29c" d="M171 66h15v47h-15z"/></g></svg>