<svg xmlns="http://www.w3.org/2000/svg" width="300" height="150"><rect width="100%" height="100%" fill="#9d8266"/><g fill-opacity=".5" transform="translate(.6 .6)scale(1.17188)"><circle cx="91" cy="27" r="242" fill="#ffffdb"/><circle r="1" fill="#9a6b00" transform="matrix(-112.49803 -11.67687 4.55876 -43.9203 175.3 67)"/><circle r="1" fill="#fff" transform="matrix(-14.17203 206.4702 -37.9996 -2.60828 29.3 69.3)"/><ellipse cx="88" cy="126" fill="#fff" rx="189" ry="21"/><path fill="#fff" d="m271 35-35-51L64 2z"/><circle cx="90" cy="82" r="26" fill="#273216"/><circle r="1" fill="#ffc600" transform="rotate(-40.6 159.5 -166.8)scale(44.8624 36.87552)"/><circle r="1" fill="#483644" transform="rotate(-122.9 132 -14.8)scale(24.24002 40.6699)"/><circle r="1" fill="#fff" transform="matrix(-2.01882 -17.13098 220.97682 -26.04124 98 9.8)"/><ellipse cx="255" cy="41" fill="#fff" rx="5" ry="127"/><circle r="1" fill="#fff" transform="matrix(19.36836 143.86585 -35.26115 4.74714 27.5 48.3)"/><ellipse cx="162" cy="44" fill="#ffd105" rx="65" ry="17"/><ellipse cx="137" cy="127" fill="#fff" rx="45" ry="26"/><path fill="#fff" d="m253 143 11-45-80 27z"/><ellipse cx="178" cy="87" fill="#91bfa7" rx="9" ry="29"/><ellipse cx="178" cy="2" fill="#fff" rx="255" ry="19"/><path fill="#7d5b3c" d="M67 53h63v49H67z"/><ellipse cx="163" cy="24" fill="#4e6864" rx="48" ry="3"/><path fill="#fc1" d="M136 30h34v74h-34z"/><path fill="#fff" d="M115 20 15-16l-31 78z"/></g></svg>