<svg xmlns="http://www.w3.org/2000/svg" width="300" height="150"><rect width="100%" height="100%" fill="#7d9954"/><g fill-opacity=".5" transform="translate(.6 .6)scale(1.17188)"><circle cx="80" cy="65" r="196"/><circle cx="13" cy="70" r="157" fill="#000005"/><circle r="1" fill="#6c7262" transform="matrix(16.41272 37.38921 -40.72363 17.87642 110.2 65.6)"/><ellipse cx="184" cy="4" rx="255" ry="20"/><circle r="1" transform="rotate(91.4 .5 116.4)scale(12.8775 245.69343)"/><circle r="1" transform="matrix(2.10397 -174.22586 41.70838 .50367 30.9 37.9)"/><path fill="#bfff44" d="M170 58h11v57h-11z"/><path d="m132 6 9.3-34.8L264 4l-9.3 34.8z"/><path fill="#9bbf65" d="M117 22h81v7h-81z"/><path fill="#9ac55d" d="m234.2 55.5 18-8.6-21.1-13.6-29.6 32.8z"/><path fill="#9bce54" d="M97 73V29L71 41z"/><circle r="1" transform="rotate(-175.9 128.2 34.2)scale(6.26764 149.24474)"/><circle r="1" fill="#2b2236" transform="matrix(-66.57457 .71618 -.18552 -17.24553 161.1 45)"/><ellipse cx="31" cy="62" rx="35" ry="127"/><circle r="1" transform="rotate(3.7 -1797.7 2568.1)scale(187.87455 11.1872)"/><ellipse cx="216" cy="88" fill="#3e3151" rx="36" ry="26"/><path fill="#9bcb56" d="m215 27.7 28.6 12.4-1.5 12.9-37.7-25.4z"/><ellipse cx="142" rx="255" ry="24"/><path fill="#a3d260" d="M181 58h27v8h-27z"/><path fill="#6f8157" d="M89 54h19v55H89z"/></g></svg>