<svg xmlns="http://www.w3.org/2000/svg" width="300" height="199"><rect width="100%" height="100%" fill="#aca858"/><g fill-opacity=".5" transform="translate(.6 .6)scale(1.17188)"><circle cx="127" cy="84" r="169" fill="#fff"/><circle cx="125" cy="100" r="169" fill="#ebdee1"/><path fill="#9d988d" d="M35 119h34v31H35z"/><path fill="#969187" d="M158 121h39v21h-39z"/><path fill="#cec89c" d="M-19.5 72V34h135v38z"/><path fill="#e7dfcf" d="M189 0h67v137h-67z"/><path fill="#817c73" d="M37 137h49v4H37z"/><ellipse cx="63" cy="37" fill="#b8b471" rx="50" ry="3"/><ellipse cx="2" cy="97" fill="#e9e1d3" rx="13" ry="163"/><path fill="#b7b46f" d="M14 56h71v5H14z"/><path fill="#68645d" d="M37 121h27v4H37z"/><path fill="#7b776e" d="M164 138h43v4h-43z"/><path fill="#69665e" d="M157 122h23v4h-23z"/><path fill="#e7dfcf" d="m89 142 156-55L4 69z"/><path fill="#807b73" d="M34 146h40v3H34z"/><ellipse cx="30" cy="42" fill="#ece3db" rx="117" ry="3"/><path fill="#fff9e6" d="M160 134h36v3h-36z"/><ellipse cx="42" cy="53" fill="#ebe2d9" rx="131" ry="3"/><path fill="#bfbb80" d="M18 66h93v5H18z"/><path fill="#f8efdd" d="M34 141h39v4H34z"/></g></svg>