<svg xmlns="http://www.w3.org/2000/svg" width="300" height="199"><rect width="100%" height="100%" fill="#aca858"/><g fill-opacity=".5" transform="translate(.6 .6)scale(1.17188)"><circle cx="128" cy="75" r="162" fill="#fff"/><circle cx="129" cy="104" r="177" fill="#ebdee1"/><path fill="#969086" d="M34 121h33v28H34z"/><path fill="#8d887f" d="m156.6 142.5.8-22 30 1-.8 22z"/><ellipse cx="63" cy="53" fill="#cdc799" rx="54" ry="22"/><path fill="#78736b" d="m209.1 141.4-3.3-3.3-42.9 1.1 9 2.1z"/><path fill="#7f7b71" d="M33 137h52v4H33z"/><path fill="#b8b571" d="M20 35h107v5H20z"/><ellipse cx="70" cy="135" fill="#eee6d5" rx="135" ry="2"/><ellipse cx="76" cy="90" fill="#e7dfcf" rx="255" ry="20"/><path fill="#beba7d" d="M9 67h106v4H9z"/><ellipse cx="69" cy="53" fill="#ebe3d9" rx="116" ry="3"/><ellipse cx="64" cy="58" fill="#b7b46e" rx="57" ry="2"/><path fill="#767269" d="M161 122h30v4h-30z"/><path fill="#fff7e4" d="M35 141h31v4H35z"/><path fill="#ede5df" d="M9 40h106v5H9z"/><ellipse cx="62" cy="14" fill="#e7dfcf" rx="255" ry="21"/><path fill="#959085" d="M36 145h39v5H36z"/><path fill="#6c6860" d="M34 121h24v4H34z"/><ellipse cx="82" cy="63" fill="#e9e1d5" rx="99" ry="3"/></g></svg>