<svg xmlns="http://www.w3.org/2000/svg" width="300" height="186"><rect width="100%" height="100%" fill="#7c7c7c"/><g fill-opacity=".5" transform="translate(.6 .6)scale(1.17188)"><circle cx="185" cy="70" r="210"/><circle cx="167" cy="82" r="207"/><path fill="#d6cbcb" d="M44 66h61v29H44z"/><path fill="#9e9e9e" d="M135 65h79v26h-79z"/><ellipse cx="181" cy="21" rx="255" ry="31"/><ellipse cx="95" cy="136" rx="255" ry="46"/><path fill="#fff" d="M181 59h5v32h-5z"/><path fill="#9b9b9b" d="M59 103h133v4H59z"/><circle r="1" fill="#fff" transform="matrix(12.5265 22.05062 -1.921 1.09128 137.5 72.4)"/><path d="m51 110 10-34-10-22zm129.5-59.2 42.4 26.5-60.1-17.9 16.2 54z"/><path fill="#fff" d="m219.7 84.3-2.6 4.3-24.8-15 2.6-4.2zM72 65h7v25h-7zm16 25 15 8-16-21z"/><circle r="1" transform="matrix(-7.26287 -122.24795 25.90578 -1.53909 239.7 84.3)"/><circle r="1" fill="#fff" transform="matrix(-4.95847 -10.508 3.7909 -1.78883 164.8 78.8)"/><path d="m118 169.8 50.3-80.2-55.5-76.2 68.5 138.2z"/><path fill="#7d7d7d" d="M79 51h93v9H79z"/><path fill="#fff" d="m43 90 4-34 5 33zm56-25h7v17h-7z"/></g></svg>