<svg xmlns="http://www.w3.org/2000/svg" width="300" height="186"><rect width="100%" height="100%" fill="#7c7c7c"/><g fill-opacity=".5" transform="translate(.6 .6)scale(1.17188)"><circle r="1" transform="matrix(8.9719 115.93296 -211.28125 16.35076 125.6 78.2)"/><circle cx="130" cy="37" r="183"/><ellipse cx="128" cy="74" fill="#858181" rx="90" ry="21"/><circle r="1" transform="matrix(224.71604 -1.49616 .28268 42.45723 140.2 23.7)"/><circle r="1" transform="matrix(-1.03032 39.03304 -207.86602 -5.48686 193.7 146.3)"/><path fill="#abacac" d="M44 66h62v26H44z"/><path fill="#f8f8f8" d="m196.1 65.2 22.8 20.4-39.6-13.3.9 22.6z"/><path fill="#fff" d="m144 92-10.6-26 4.7-2 10.5 26z"/><ellipse cx="55" cy="73" rx="5" ry="158"/><path fill="#fff" d="m176 94.6-4.6 2.2-15.3-31.4 4.5-2.2z"/><circle r="1" transform="matrix(33.07705 .64942 -1.66652 84.88069 245.9 99.2)"/><ellipse cx="111" cy="55" fill="#888" rx="34" ry="5"/><path fill="#060000" d="m109 94 39 5-47-86z"/><ellipse cx="19" cy="83" rx="25" ry="65"/><path fill="#fff" d="M72 65h7v28h-7zm-27.2 1.3 6 .4-1.6 23-6-.4zm64.9 34.5-12.3-.8-10.1-12.4-3.3-7.9z"/><ellipse cx="175" cy="62" rx="5" ry="135"/><path fill="#fff" d="M180 66h6v24h-6z"/><path fill="#040000" d="m78.9 78.3-.7-41.5 8.7 32.8-9 55.3z"/></g></svg>