<svg xmlns="http://www.w3.org/2000/svg" width="300" height="199"><rect width="100%" height="100%" fill="#948c4c"/><g fill-opacity=".5" transform="translate(.6 .6)scale(1.17188)"><ellipse cx="142" cy="48" fill="#fff" rx="255" ry="67"/><circle r="1" fill="#000c44" transform="matrix(.0518 -29.67544 251.38995 .43876 123.7 151.9)"/><circle r="1" fill="#fcefff" transform="matrix(129.82582 10.62492 -4.36987 53.39539 136.7 47.5)"/><circle r="1" fill="#6f3d15" transform="rotate(23.2 -242 373)scale(26.22382 33.06937)"/><circle cx="71" cy="97" r="37" fill="#dccdf7"/><path fill="#99a5d5" d="m158.6 140.7-6.7-27.1 81.5-20.3 6.7 27.1z"/><circle r="1" fill="#ede3ff" transform="rotate(-165.6 79.8 16.8)scale(111.04719 46.85909)"/><circle r="1" fill="#1a4354" transform="matrix(-109.91428 -52.8718 16.06807 -33.40363 13.1 138)"/><circle r="1" fill="#98aae5" transform="rotate(20.1 84.8 638.9)scale(49.30721 28.9692)"/><circle r="1" fill="#a8a4cd" transform="matrix(33.55449 105.5052 -24.7835 7.88205 5.7 23.3)"/><circle r="1" fill="#0e3d49" transform="matrix(88.48923 -23.37986 8.16802 30.91472 239.5 148.4)"/><circle r="1" fill="#637a83" transform="matrix(3.3044 11.5572 -64.22751 18.36378 217.2 123.8)"/><path fill="#66502f" d="M109 105h42v65h-42z"/><circle r="1" fill="#fff1f3" transform="matrix(71.62323 -.27783 .03142 8.09867 51.6 65.4)"/><circle r="1" fill="#708483" transform="rotate(111.5 -13.2 85.4)scale(16.18767 30.45122)"/><path fill="#122725" d="m94 185-110-24 143-19z"/><circle r="1" fill="#b2acc6" transform="matrix(-29.618 -12.40665 7.66562 -18.2999 249 93.7)"/><circle r="1" fill="#fceff4" transform="matrix(55.8258 -25.13496 13.37456 29.70546 112.7 65.5)"/><circle r="1" fill="#bdc3ea" transform="matrix(-8.63429 -25.5089 27.92386 -9.4517 45 13.5)"/><path fill="#838388" d="m14 121 8-48-38-1z"/></g></svg>