<svg xmlns="http://www.w3.org/2000/svg" width="300" height="199"><rect width="100%" height="100%" fill="#948c4c"/><g fill-opacity=".5" transform="translate(.6 .6)scale(1.17188)"><ellipse cx="135" cy="52" fill="#fff" rx="254" ry="63"/><circle r="1" fill="#000b44" transform="rotate(-89.8 137.2 11.4)scale(25.81008 254.99997)"/><circle r="1" fill="#fbecff" transform="matrix(3.59525 -55.87147 129.09992 8.3074 131.4 48)"/><circle r="1" fill="#6b2c02" transform="rotate(149.8 48.3 74.5)scale(25.02816 19.70891)"/><circle r="1" fill="#8890be" transform="rotate(21.7 -251.6 99.2)scale(85.93537 20.69985)"/><path fill="#8998cb" d="M153 103h103v28H153z"/><circle r="1" fill="#ede5ff" transform="matrix(98.21535 43.34005 -20.32665 46.06337 140.4 45.6)"/><circle r="1" fill="#0e3c47" transform="matrix(17.74974 -25.76686 102.4166 70.55063 21 146.6)"/><ellipse cx="255" cy="169" fill="#0b3a40" rx="103" ry="50"/><circle r="1" fill="#9aade8" transform="matrix(-68.48348 -17.7314 8.43805 -32.59004 236.3 6.8)"/><circle r="1" fill="#9ea8db" transform="matrix(-46.49902 47.2735 -20.0466 -19.71818 18.5 19.1)"/><circle r="1" fill="#efd9f3" transform="rotate(-39.3 159.1 -59)scale(27.27822 43.12539)"/><path fill="#79582c" d="m150 176.4-25.4 8.6-28.2-65.1 48.5-30.5z"/><path fill="#12221b" d="m94.1 129.7 28 13.1-20.2 43.5-28-13.1z"/><circle r="1" fill="#587274" transform="rotate(-99.1 160.7 -24.8)scale(11.68407 61.0447)"/><ellipse cx="128" cy="63" fill="#fdf3f8" rx="67" ry="30"/><circle r="1" fill="#697e7f" transform="matrix(5.48008 -9.45363 49.86142 28.90365 37.4 121.2)"/><path fill="#beb5d8" d="m245 107-44-32 70-4z"/><path fill="#2f2e29" d="m159 183-27.1-64.3 13.2-15.5 8.4 17.4z"/><ellipse cx="130" cy="97" fill="#ffac4f" rx="13" ry="7"/></g></svg>