<svg xmlns="http://www.w3.org/2000/svg" width="300" height="300"><rect width="100%" height="100%" fill="#b18267"/><g fill-opacity=".5" transform="translate(.6 .6)scale(1.17188)"><ellipse cx="83" cy="208" fill="#f0f0dd" rx="56" ry="88"/><circle r="1" fill="#221700" transform="matrix(69.73605 -69.34167 19.18085 19.28994 22.8 128.2)"/><ellipse cx="104" cy="142" fill="#530800" rx="11" ry="63"/><circle r="1" fill="#fff" transform="rotate(105.6 11.2 131)scale(27.28206 21.05468)"/><circle r="1" fill="#7e4c26" transform="matrix(28.934 100.90482 -34.63386 9.9311 51.6 16.1)"/><circle r="1" fill="#423400" transform="matrix(-.23141 -46.55008 28.79265 -.14314 15 136)"/><circle r="1" fill="#fffbd2" transform="matrix(29.39027 3.90334 -1.29448 9.7468 18.8 81)"/><path fill="#4d1400" d="m126 130 5-50-72 18z"/><circle r="1" fill="#d0daff" transform="matrix(4.83205 -34.1394 11.04409 1.56317 210 230.8)"/><ellipse cx="106" cy="181" rx="7" ry="25"/><ellipse cx="74" cy="149" fill="#fbefdc" rx="31" ry="25"/><circle r="1" fill="#bca784" transform="matrix(73.04295 -15.22644 12.15096 58.28956 209 84.4)"/><circle r="1" fill="#cd834e" transform="rotate(-96.3 111.2 22.6)scale(28.24632 18.38144)"/><path fill="#301f3e" d="m251.3 135.3 13.1 27-29.7 14.4-13.1-27z"/><path fill="#674d2d" d="m132 198 65-46 1 77z"/><path fill="#0e0000" d="m114.7 173.8-5.7 1.5-20.2-18.6.1-14.2z"/><ellipse cx="3" cy="37" fill="#d9f2f0" rx="5" ry="50"/><circle r="1" fill="#fff2c8" transform="rotate(61.2 3 122.2)scale(7.8029 20.36598)"/><ellipse cx="42" cy="43" fill="#d6d3bb" rx="7" ry="27"/><circle r="1" fill="#f3e8d0" transform="matrix(-.43277 30.99264 -18.98612 -.26511 83.8 206.2)"/></g></svg>