<svg xmlns="http://www.w3.org/2000/svg" width="300" height="300"><rect width="100%" height="100%" fill="#b18267"/><g fill-opacity=".5" transform="translate(.6 .6)scale(1.17188)"><circle r="1" fill="#e5dfca" transform="rotate(5.4 -2062.4 1156.5)scale(71.94286 85.45647)"/><circle r="1" fill="#241800" transform="matrix(77.77611 -83.60046 19.74407 18.36852 15.4 137.7)"/><ellipse cx="105" cy="181" rx="8" ry="28"/><circle r="1" fill="#4e0900" transform="matrix(26.28357 7.50957 -6.65973 23.30912 107 107.6)"/><path fill="#6c4828" d="M140 171h58v52h-58z"/><ellipse cx="66" cy="150" fill="#fff" rx="23" ry="24"/><circle r="1" fill="#804f27" transform="matrix(26.6117 118.30523 -36.2298 8.14957 49 1.5)"/><circle r="1" fill="#fff2cb" transform="rotate(-173.2 9.1 39.1)scale(43.91573 9.86995)"/><circle r="1" fill="#d4e0ff" transform="matrix(-4.556 36.4936 -9.86345 -1.2314 209.7 232.6)"/><circle r="1" fill="#352b00" transform="matrix(1.11913 -38.95806 27.20632 .78154 16.6 139)"/><circle r="1" fill="#c3ac7c" transform="rotate(135 85.7 75.1)scale(94.09096 41.94033)"/><circle r="1" fill="#fffbe8" transform="matrix(16.53475 -25.85467 16.43807 10.51259 138 160.2)"/><ellipse cx="83" cy="214" fill="#f7ebd3" rx="20" ry="42"/><path fill="#271433" d="m235 178-14-31 50-7z"/><circle r="1" fill="#833720" transform="matrix(9.8545 16.20634 -10.63785 6.4685 102.3 153.8)"/><path fill="#ffd4a4" d="m93 53 40-5-42 43z"/><path fill="#d5f3f5" d="M4-16-16 93l26-35z"/><circle r="1" fill="#a29cc9" transform="matrix(10.53423 11.29658 -24.25012 22.6136 230.5 125.7)"/><circle r="1" fill="#f5f0db" transform="matrix(-11.1477 2.10638 -9.58901 -50.74841 44.6 234.6)"/><path fill="#100000" d="M98 159h16v32H98z"/></g></svg>