<svg width="1360" height="254" viewBox="0 0 1360 254" fill="none" xmlns="http://www.w3.org/2000/svg">
<path fill-rule="evenodd" clip-rule="evenodd" d="M245.178 217.128C245.178 226.132 246.861 232.928 250.395 237.345C253.76 241.763 257.967 244.481 262.679 245.33V249.578H191.666V245.33C196.21 244.651 200.248 241.933 204.119 237.175C207.989 232.248 209.84 225.622 209.84 217.128L209.84 40.945C209.84 32.1104 207.821 25.8243 204.119 21.7467C200.417 17.6692 196.21 15.8004 191.666 16.3101V11.7229L245.178 0L245.178 217.128ZM423.043 79.8515L423.043 214.919C423.043 233.948 428.933 243.972 440.881 245.331V249.578H387.369L390.566 209.652C386.528 221.885 379.292 232.249 369.195 240.913C359.099 249.578 347.656 253.826 334.867 253.826C303.736 253.826 288.087 231.569 288.087 187.056L288.087 122.156C288.087 112.642 286.236 105.846 282.534 101.768C278.832 97.5207 274.625 95.6519 269.577 96.1616V91.5744L323.425 79.8515L323.425 187.056C323.425 202.007 326.117 213.73 331.67 222.055C337.223 230.38 345.132 234.457 355.565 234.457C363.979 234.457 371.215 230.38 377.273 222.055C383.331 213.73 386.864 205.235 387.706 196.231L387.706 122.156C387.706 112.472 385.855 105.506 382.321 101.598C378.787 97.6906 374.58 95.8218 369.532 96.3315V91.7443L423.043 79.8515ZM120.653 125.724C133.947 121.477 144.717 114.681 152.962 105.336C161.208 95.9921 165.415 85.1188 165.415 72.3765C165.415 53.3481 158.011 38.9069 143.371 28.883C128.731 18.8591 110.22 13.7622 88.1763 13.7622L0 13.7622L0 18.3494C11.9475 19.8785 17.8372 29.5626 17.8372 47.5716L17.8372 216.958C17.8372 225.623 15.9862 232.419 12.2841 237.346C8.58204 242.103 4.54343 244.821 0 245.501L0 249.748L99.619 249.748C124.524 249.748 143.875 244.142 157.674 232.759C171.473 221.376 178.372 206.255 178.035 187.227C178.035 170.916 172.65 157.155 161.713 146.281C150.775 135.238 137.144 128.442 120.653 125.724ZM56.5405 19.029H69.8343C88.5128 19.029 102.648 23.7861 112.576 33.3003C122.336 42.8145 127.216 55.8966 127.048 72.3765C127.048 90.5555 123.178 103.637 115.437 111.453C107.696 119.438 98.2728 123.855 87.1666 124.705L76.0604 124.365C68.4881 124.365 61.9253 123.855 56.5405 122.666L56.5405 19.029ZM126.038 227.832C117.288 238.875 105.845 244.312 91.8783 244.312C78.0797 244.312 66.3005 243.292 56.5405 241.084L56.5405 129.971L86.3252 130.311C100.965 130.311 113.586 135.748 123.851 146.281C134.115 156.985 139.332 170.577 139.332 186.887C139.164 203.197 134.789 216.789 126.038 227.832ZM1079.82 216.958C1079.82 226.302 1081.67 233.098 1085.38 237.515C1089.08 241.933 1093.28 244.311 1098.16 245.161V249.748H1045.33L1049.2 222.564C1036.24 243.462 1019.75 253.995 999.555 253.995C978.353 253.995 961.188 245.67 948.4 229.36C935.442 212.88 929.048 192.493 929.048 168.028C929.048 144.242 935.779 123.855 949.578 106.865C963.376 90.0451 980.372 81.5503 1000.73 81.5503C1017.73 81.5503 1032.37 87.8365 1044.48 100.579V40.9451C1044.48 32.1104 1042.47 25.6544 1038.76 21.5769C1035.06 17.3294 1030.85 15.6305 1026.31 16.3101V11.7229L1079.82 0V216.958ZM1010.49 242.103C1024.29 242.103 1035.57 234.287 1044.48 218.487H1044.65V122.835C1040.28 112.471 1034.56 103.977 1027.15 97.5206C1019.92 91.0645 1011.33 87.8365 1001.57 87.8365C988.617 87.8365 979.194 94.2926 973.473 107.035C967.751 119.777 964.891 135.917 964.891 155.625C964.891 180.43 968.761 201.157 976.67 217.468C984.411 233.947 995.853 242.103 1010.49 242.103ZM901.957 211.351V153.925C901.957 128.951 896.74 110.772 886.139 99.0489C875.706 87.3261 858.878 81.5496 835.656 81.5496C820.679 81.5496 807.386 86.1368 795.438 95.3112C783.491 104.486 777.601 115.019 777.601 127.082C777.601 133.028 779.115 137.955 782.144 141.863C785.173 145.77 789.38 147.809 794.765 147.809C800.318 147.809 805.03 146.28 808.732 143.392C812.434 140.504 814.285 136.596 814.285 132.009C814.285 128.441 813.444 124.703 812.097 120.456C810.583 116.208 809.91 112.471 809.91 109.073C809.91 103.126 812.097 98.0296 816.304 93.6122C820.511 89.1949 826.401 86.9863 833.973 86.9863C843.733 86.9863 851.642 90.8939 858.037 98.3694C864.263 106.015 867.46 118.077 867.46 134.387V154.095C865.104 154.775 860.561 155.794 853.998 157.154C847.435 158.513 841.546 159.872 836.666 161.231C831.617 162.59 825.559 164.289 818.492 166.668C811.424 168.876 805.198 171.595 799.982 174.313C794.765 177.201 789.885 180.429 785.005 184.167C780.293 187.905 776.591 192.322 773.899 197.249C771.375 202.346 770.029 207.783 770.029 213.899C770.029 227.491 774.235 237.515 782.649 243.801C791.063 250.257 801.833 253.485 815.126 253.485C825.559 253.485 835.488 250.766 845.248 245.5C855.008 240.233 862.412 232.078 867.292 221.374C867.797 231.059 870.153 238.704 874.528 244.65C878.903 250.597 885.802 253.485 894.889 253.485C900.274 253.485 905.827 251.786 911.38 248.218C916.933 244.65 921.14 240.573 924.001 235.816V231.228C909.361 240.573 901.957 233.777 901.957 211.351ZM867.292 201.836C867.292 212.71 863.59 221.374 856.017 227.661C848.613 233.947 840.872 237.175 832.795 237.175C825.055 237.175 818.66 234.626 813.78 229.529C808.9 224.433 806.544 216.957 806.544 207.443C806.544 203.365 807.049 199.458 808.227 196.06C809.237 192.662 811.256 189.604 813.948 186.885C816.641 184.167 819.165 181.789 821.353 179.92C823.54 177.881 827.074 175.842 831.786 173.633C835.752 171.774 838.884 170.397 841.381 169.298L841.385 169.296C841.853 169.09 842.299 168.894 842.724 168.706C845.248 167.687 849.455 165.988 855.176 163.779C860.897 161.571 864.936 160.042 867.292 159.192V201.836ZM706.082 228.001C714.496 228.001 723.078 225.623 731.66 220.866C740.41 215.939 747.31 208.123 752.526 197.25V205.405C747.31 220.866 738.896 232.928 726.948 241.253C715.169 249.578 701.875 253.826 687.404 253.826C665.696 253.826 647.523 245.331 632.714 228.171C622.113 215.939 615.382 202.177 612.353 186.716C605.454 201.667 577.183 254.505 527.711 253.826H527.206C505.498 253.826 487.156 245.331 472.18 228.171C457.203 211.012 449.631 190.454 449.631 166.669C449.631 142.883 457.035 122.665 471.843 106.186C486.651 89.7056 504.993 81.3806 526.869 81.3806C543.697 81.3806 558.337 86.6474 570.957 97.181C583.578 107.715 591.15 121.136 594.011 137.786L483.959 160.382C486.315 179.581 492.709 195.721 503.142 208.633C513.575 221.715 527.711 228.171 545.379 228.171C547.567 228.171 549.586 228.001 551.774 227.661C552.026 227.661 552.279 227.619 552.531 227.577C552.784 227.534 553.036 227.492 553.288 227.492H553.457C554.13 227.492 554.803 227.322 555.476 227.152C558.168 226.472 561.366 225.453 564.899 224.094C565.236 223.924 565.573 223.796 565.909 223.669C566.246 223.541 566.582 223.414 566.919 223.244C568.601 222.565 570.284 221.715 571.967 220.696C584.251 213.9 598.723 201.328 611.175 177.372C611.343 177.372 611.343 177.202 611.343 177.202C611.007 173.634 610.839 170.067 610.839 166.499C610.839 143.393 618.747 123.345 634.397 106.525C650.047 89.8754 669.398 81.3806 692.284 81.3806C708.27 81.3806 722.237 86.3076 734.016 95.9917C745.795 105.676 751.685 116.719 751.685 128.952C751.685 136.087 749.666 142.034 745.964 146.791C742.261 151.378 737.718 153.757 732.502 153.757C727.79 153.757 723.583 152.058 720.049 148.66C716.515 145.262 714.664 140.844 714.664 135.408C714.664 132.01 715.842 128.102 718.198 123.685C720.554 119.437 721.732 115.53 721.732 111.962C721.564 106.186 718.366 100.579 712.477 95.1422C706.419 89.8754 698.173 87.1571 687.572 87.1571C673.605 87.1571 662.836 92.4239 654.758 103.127C646.849 113.831 642.811 127.762 642.811 145.092C642.811 170.746 648.7 190.964 660.311 205.745C672.091 220.526 687.235 228.001 706.082 228.001ZM486.147 119.947C484.296 128.272 483.286 136.257 483.286 144.412C483.286 148.83 483.454 152.227 483.622 154.606L538.144 142.713C546.726 140.505 551.101 135.578 551.101 127.932C551.101 118.588 547.399 109.583 539.995 100.919C532.759 92.254 524.177 88.0066 514.417 88.0066C507.518 88.0066 501.628 91.2346 496.58 97.8606C491.531 104.317 488.166 111.792 486.147 119.947ZM1357.98 92.7631L1360 79.6811C1346.54 83.7586 1332.4 85.9672 1317.43 85.9672H1313.89V27.5228H1309.01C1305.48 40.435 1298.58 52.6675 1288.15 64.5603C1277.71 76.2831 1265.93 83.4188 1252.98 85.7973V92.5932H1278.55V204.895C1278.55 221.035 1282.09 233.098 1288.99 241.253C1295.89 249.408 1304.64 253.315 1315.24 253.315C1322.14 253.315 1328.7 252.126 1334.76 249.917C1340.82 247.709 1345.19 245.33 1348.05 243.121C1350.91 240.913 1353.1 238.704 1354.61 236.665V232.078C1352.09 234.287 1348.56 235.816 1344.35 236.835C1340.14 237.855 1335.77 237.855 1331.06 237.005C1326.34 236.156 1322.47 232.758 1319.11 226.642C1315.74 220.695 1314.06 212.2 1314.06 201.497V92.7631H1357.98ZM1180.45 81.5496C1197.28 81.5496 1211.92 86.8164 1224.54 97.35C1237.16 107.714 1244.9 121.305 1247.76 137.955L1137.71 160.551C1140.06 179.75 1146.46 195.89 1156.89 208.802C1167.33 221.884 1181.46 228.34 1199.13 228.34C1208.05 228.34 1216.8 225.962 1225.55 220.865C1234.3 215.768 1241.03 208.292 1246.08 198.269V207.103C1241.54 221.205 1233.29 232.418 1221.51 241.082C1209.73 249.747 1196.1 253.995 1180.79 253.995C1159.08 253.995 1140.74 245.5 1125.76 228.34C1110.79 211.181 1103.21 190.623 1103.21 166.838C1103.21 143.052 1110.62 122.834 1125.43 106.354C1140.23 89.8745 1158.58 81.5496 1180.45 81.5496ZM1137.04 154.605L1191.56 142.882C1200.14 140.674 1204.51 135.747 1204.51 127.931C1204.51 118.587 1200.81 109.583 1193.41 100.918C1186.17 92.2531 1177.59 88.0057 1167.83 88.0057C1160.93 88.0057 1155.04 91.2337 1149.99 97.8597C1144.95 104.316 1141.58 111.791 1139.56 119.946C1137.71 128.271 1136.7 136.256 1136.7 144.411C1136.7 148.829 1136.87 152.227 1137.04 154.605Z" fill="black"/>
</svg>
