<?xml version="1.0" encoding="UTF-8" standalone="no"?>
<!DOCTYPE svg PUBLIC "-//W3C//DTD SVG 1.1//EN" "http://www.w3.org/Graphics/SVG/1.1/DTD/svg11.dtd">
<svg width="100%" height="100%" viewBox="0 0 454 136" version="1.1" xmlns="http://www.w3.org/2000/svg" xmlns:xlink="http://www.w3.org/1999/xlink" xml:space="preserve" xmlns:serif="http://www.serif.com/" style="fill-rule:evenodd;clip-rule:evenodd;stroke-linejoin:round;stroke-miterlimit:2;">
    <g transform="matrix(1,0,0,1,-276.186,-1008.72)">
        <g transform="matrix(1,0,0,1.89632,0,0)">
            <g transform="matrix(9.29537,0,0,4.90179,-3094.4,-64.3603)">
                <g transform="matrix(12,0,0,12,376.298,136.154)">
                    <path d="M0.335,-0.225C0.335,-0.265 0.314,-0.295 0.275,-0.312L0.275,-0.314C0.314,-0.33 0.333,-0.352 0.333,-0.436C0.333,-0.514 0.283,-0.58 0.194,-0.58L0.027,-0.58L0.027,-0L0.195,-0C0.284,-0 0.333,-0.066 0.334,-0.144L0.335,-0.225ZM0.153,-0.351L0.153,-0.473L0.166,-0.473C0.196,-0.473 0.21,-0.456 0.21,-0.42L0.21,-0.402C0.21,-0.373 0.194,-0.353 0.166,-0.351L0.153,-0.351ZM0.21,-0.15C0.21,-0.124 0.198,-0.107 0.18,-0.107L0.153,-0.107L0.153,-0.252L0.18,-0.252C0.198,-0.252 0.21,-0.229 0.21,-0.211L0.21,-0.15Z" style="fill-rule:nonzero;"/>
                </g>
                <g transform="matrix(12,0,0,12,380.51,136.154)">
                    <path d="M0.288,-0.122L0.157,-0.122L0.157,-0.58L0.028,-0.58L0.027,-0L0.288,-0L0.288,-0.122Z" style="fill-rule:nonzero;"/>
                </g>
                <g transform="matrix(12,0,0,12,383.942,136.154)">
                    <path d="M0.159,-0.58L0.025,-0.58L0.025,-0.154C0.025,-0.065 0.078,0.01 0.182,0.01L0.188,0.01C0.282,0.01 0.339,-0.054 0.339,-0.133L0.339,-0.58L0.241,-0.58L0.241,-0.154C0.241,-0.124 0.225,-0.108 0.2,-0.108C0.175,-0.108 0.159,-0.124 0.159,-0.154L0.159,-0.58Z" style="fill-rule:nonzero;"/>
                </g>
                <g transform="matrix(12,0,0,12,388.322,136.154)">
                    <path d="M0.16,-0.458L0.292,-0.458L0.292,-0.58L0.027,-0.58L0.027,-0L0.292,-0L0.292,-0.118L0.161,-0.118L0.161,-0.233L0.231,-0.233L0.231,-0.34L0.16,-0.34L0.16,-0.458Z" style="fill-rule:nonzero;"/>
                </g>
                <g transform="matrix(12,0,0,12,392.006,136.154)">
                    <path d="M0.027,-0L0.155,-0L0.155,-0.253L0.194,-0.253C0.283,-0.253 0.333,-0.318 0.333,-0.412C0.333,-0.515 0.283,-0.58 0.194,-0.58L0.027,-0.58L0.027,-0ZM0.153,-0.352L0.153,-0.474L0.166,-0.474C0.196,-0.474 0.21,-0.457 0.21,-0.421L0.21,-0.403C0.21,-0.374 0.194,-0.354 0.166,-0.352L0.153,-0.352Z" style="fill-rule:nonzero;"/>
                </g>
                <g transform="matrix(12,0,0,12,396.062,136.154)">
                    <path d="M0.027,-0L0.155,-0L0.155,-0.252L0.179,-0.252C0.197,-0.252 0.209,-0.239 0.209,-0.221L0.208,-0.081C0.208,-0.054 0.213,-0.015 0.225,-0L0.348,-0C0.348,-0 0.334,-0.041 0.333,-0.075C0.332,-0.098 0.332,-0.109 0.335,-0.225C0.336,-0.265 0.314,-0.295 0.275,-0.312L0.275,-0.314C0.314,-0.33 0.333,-0.352 0.333,-0.436C0.333,-0.514 0.283,-0.58 0.194,-0.58L0.027,-0.58L0.027,-0ZM0.153,-0.351L0.153,-0.473L0.166,-0.473C0.196,-0.473 0.21,-0.456 0.21,-0.42L0.21,-0.402C0.21,-0.373 0.194,-0.353 0.166,-0.351L0.153,-0.351Z" style="fill-rule:nonzero;"/>
                </g>
                <g transform="matrix(12,0,0,12,400.346,136.154)">
                    <rect x="0.027" y="-0.58" width="0.136" height="0.58" style="fill-rule:nonzero;"/>
                </g>
                <g transform="matrix(12,0,0,12,402.626,136.154)">
                    <path d="M0.342,-0.58L0.236,-0.58L0.236,-0.358L0.136,-0.58L0.027,-0.58L0.027,-0L0.133,-0L0.133,-0.29L0.254,-0L0.342,-0L0.342,-0.58Z" style="fill-rule:nonzero;"/>
                </g>
                <g transform="matrix(12,0,0,12,407.054,136.154)">
                    <path d="M0.365,-0.58L0.005,-0.58L0.005,-0.459L0.117,-0.459L0.117,-0L0.253,-0L0.253,-0.459L0.365,-0.459L0.365,-0.58Z" style="fill-rule:nonzero;"/>
                </g>
            </g>
        </g>
        <g transform="matrix(1,0,0,1.89632,0,0)">
            <g transform="matrix(9.29537,0,0,4.90179,-3222.2,-101.346)">
                <g transform="matrix(12,0,0,12,376.298,136.154)">
                    <path d="M0.365,-0.58L0.005,-0.58L0.005,-0.459L0.117,-0.459L0.117,-0L0.253,-0L0.253,-0.459L0.365,-0.459L0.365,-0.58Z" style="fill-rule:nonzero;"/>
                </g>
                <g transform="matrix(12,0,0,12,380.738,136.154)">
                    <path d="M0.351,-0.58L0.214,-0.58L0.214,-0.346L0.16,-0.346L0.16,-0.58L0.027,-0.58L0.027,-0L0.162,-0L0.162,-0.232L0.216,-0.232L0.216,-0L0.351,-0L0.351,-0.58Z" style="fill-rule:nonzero;"/>
                </g>
                <g transform="matrix(12,0,0,12,385.274,136.154)">
                    <path d="M0.16,-0.458L0.292,-0.458L0.292,-0.58L0.027,-0.58L0.027,-0L0.292,-0L0.292,-0.118L0.161,-0.118L0.161,-0.233L0.231,-0.233L0.231,-0.34L0.16,-0.34L0.16,-0.458Z" style="fill-rule:nonzero;"/>
                </g>
            </g>
        </g>
        <g transform="matrix(1,0,0,1.89632,0,0)">
            <g transform="matrix(1.02029,0,0,0.527337,-14.8098,425.936)">
                <rect x="406.215" y="201.011" width="323.733" height="65.811" style=""/>
            </g>
        </g>
        <g transform="matrix(1,0,0,1.89632,0,0)">
            <g transform="matrix(0.381368,0,0,0.527337,121.268,462.922)">
                <rect x="406.215" y="201.011" width="323.733" height="65.811" style=""/>
            </g>
        </g>
    </g>
</svg>
