<?xml version="1.0" encoding="UTF-8" standalone="no"?>
<!DOCTYPE svg PUBLIC "-//W3C//DTD SVG 1.1//EN" "http://www.w3.org/Graphics/SVG/1.1/DTD/svg11.dtd">
<svg width="100%" height="100%" viewBox="0 0 1920 915" version="1.1" xmlns="http://www.w3.org/2000/svg" xmlns:xlink="http://www.w3.org/1999/xlink" xml:space="preserve" xmlns:serif="http://www.serif.com/" style="fill-rule:evenodd;clip-rule:evenodd;stroke-linejoin:round;stroke-miterlimit:2;">
    <rect id="Artboard8" x="0" y="0" width="1920" height="914.957" style="fill:none;"/>
    <clipPath id="_clip1">
        <rect x="0" y="0" width="1920" height="914.957"/>
    </clipPath>
    <g clip-path="url(#_clip1)">
        <g>
            <path d="M0,74.545C0,52.639 5.809,35.972 17.426,24.544C29.044,13.117 45.616,7.403 67.142,7.403L225.664,7.403L225.664,91.922L132.879,91.922L132.879,429.479L0,429.479L0,74.545ZM127.184,178.141L225.664,178.141L225.664,259.76L127.184,259.76L127.184,178.141Z" style="fill-rule:nonzero;"/>
            <path d="M525.982,431.077L319.582,431.077C290.889,431.077 270.788,424.966 259.277,412.743C247.767,400.521 242.011,380.775 242.011,353.507L242.011,7.403L374.89,7.403L374.89,343.497C374.89,345.775 375.554,347.578 376.883,348.907C378.212,350.235 380.015,350.9 382.293,350.9L393.112,350.9L393.112,7.403L525.982,7.403L525.982,431.077Z" style="fill-rule:nonzero;"/>
            <path d="M599.623,88.835L540.4,88.835L540.4,7.403L792.099,7.403L792.099,88.835L732.876,88.835L732.876,431.077L599.623,431.077L599.623,88.835Z" style="fill-rule:nonzero;"/>
            <path d="M1086.5,360.465C1086.5,387.419 1080.71,407.065 1069.13,419.403C1057.56,431.742 1037.34,437.911 1008.49,437.911L879.79,437.911C860.429,437.911 845.148,435.158 833.949,429.654C822.75,424.149 814.683,415.797 809.747,404.598C804.812,393.398 802.344,378.687 802.344,360.465L802.344,7.403L935.027,7.403L935.027,350.215C935.027,352.492 935.692,354.296 937.02,355.624C938.349,356.953 940.152,357.618 942.43,357.618L945.847,357.618C948.125,357.618 949.928,356.953 951.257,355.624C952.586,354.296 953.25,352.492 953.25,350.215L953.25,7.403L1086.5,7.403L1086.5,360.465Z" style="fill-rule:nonzero;"/>
            <path d="M1104.72,7.403L1237.6,7.403L1237.6,431.077L1104.72,431.077L1104.72,7.403ZM1310.83,7.403C1337.25,7.403 1356.79,14.009 1369.44,27.223C1382.08,40.436 1388.41,59.686 1388.41,84.973L1388.41,161.031C1388.41,177.581 1385.77,191.203 1380.51,201.898C1375.25,212.593 1367.65,220.579 1357.72,225.855C1347.79,231.132 1335.78,233.77 1321.68,233.77L1302.05,233.77L1302.05,241.76L1325.62,241.76C1337.54,241.76 1347.16,244.091 1354.49,248.754C1361.81,253.416 1367.12,259.694 1370.39,267.586C1373.67,275.478 1376.02,285.424 1377.44,297.424L1390.67,431.077L1262.94,431.077L1255.82,296.241L1255.82,95.419C1255.82,92.952 1255.08,90.981 1253.61,89.507C1252.14,88.033 1250.16,87.296 1247.69,87.296L1217.7,87.296L1220.35,7.403L1310.83,7.403Z" style="fill-rule:nonzero;"/>
            <path d="M1551.37,87.58C1551.37,85.303 1550.7,83.499 1549.37,82.171C1548.04,80.842 1546.24,80.177 1543.96,80.177L1540.55,80.177C1535.61,80.177 1533.14,82.645 1533.14,87.58L1533.14,350.33C1533.14,352.608 1533.81,354.411 1535.13,355.74C1536.46,357.069 1538.27,357.733 1540.55,357.733L1543.96,357.733C1546.24,357.733 1548.04,357.069 1549.37,355.74C1550.7,354.411 1551.37,352.608 1551.37,350.33L1551.37,281.871L1684.24,281.871L1684.24,360.34C1684.24,387.099 1677.7,406.717 1664.63,419.194C1651.57,431.672 1629.98,437.911 1599.87,437.911L1484.63,437.911C1454.52,437.911 1432.93,431.696 1419.87,419.265C1406.8,406.835 1400.26,387.194 1400.26,360.34L1400.26,77.57C1400.26,50.717 1406.8,31.075 1419.87,18.645C1432.93,6.215 1454.52,-0 1484.63,-0L1599.87,-0C1630.36,-0 1652.04,6.215 1664.92,18.645C1677.8,31.075 1684.24,50.717 1684.24,77.57L1684.24,263.649L1551.37,263.649L1551.37,87.58ZM1457.11,214.827L1626.82,214.827L1626.82,263.649L1457.11,263.649L1457.11,214.827Z" style="fill-rule:nonzero;"/>
        </g>
        <g>
            <path d="M-0,469.794L236.941,469.794L236.941,558.348L139.412,558.348L139.412,914.957L-0,914.957L-0,469.794ZM133.429,649.296L236.941,649.296L236.941,734.858L133.429,734.858L133.429,649.296Z" style="fill-rule:nonzero;"/>
            <path d="M552.66,914.957L335.791,914.957C305.643,914.957 284.522,908.536 272.428,895.693C260.333,882.851 254.286,862.104 254.286,833.452L254.286,469.794L393.904,469.794L393.904,822.935C393.904,825.328 394.602,827.223 395.998,828.619C397.394,830.015 399.289,830.713 401.682,830.713L413.051,830.713L413.051,469.794L552.66,469.794L552.66,914.957Z" style="fill-rule:nonzero;"/>
            <path d="M647.696,914.957C621.12,914.957 601.859,908.461 589.915,895.469C577.97,882.477 571.997,861.805 571.997,833.452L572.147,469.794L711.615,469.794L711.615,822.776C711.615,825.169 712.313,827.064 713.709,828.46C715.106,829.856 717,830.554 719.394,830.554L760.941,830.554L760.941,914.957L647.696,914.957Z" style="fill-rule:nonzero;"/>
            <path d="M781.41,469.794L921.028,469.794L921.028,829.947L1018.28,829.947L1018.28,914.957L781.41,914.957L781.41,469.794Z" style="fill-rule:nonzero;"/>
        </g>
        <path d="M1335.21,914.957L1035.89,914.957L1035.89,829.947L1336.04,829.947L1378.13,872.037L1335.21,914.957ZM1354.43,829.947L1682.62,829.947L1724.71,872.037L1681.79,914.957L1353.6,914.957L1396.52,872.037L1354.43,829.947ZM1701,829.947L1809.22,829.947C1823.45,829.946 1834.99,818.409 1834.99,804.178L1834.99,611.955L1876.68,570.265L1920,613.585L1920,869.222C1920,894.464 1899.51,914.957 1874.27,914.957L1700.17,914.957L1743.09,872.037L1701,829.947ZM1834.99,593.57L1834.99,329.111L1876.68,287.421L1920,330.742L1920,595.2L1876.68,551.88L1834.99,593.57ZM1834.99,310.726L1834.99,110.779C1834.99,96.548 1823.45,85.011 1809.22,85.011L1788.73,85.011L1747.03,43.31L1790.34,-0L1874.27,-0C1899.51,-0 1920,20.493 1920,45.735L1920,312.357L1876.68,269.036L1834.99,310.726ZM1770.34,85.011L1705.33,85.011L1705.33,77.57C1705.33,43.596 1695.86,19.192 1679.57,3.465C1678.33,2.273 1677.04,1.117 1675.67,-0L1771.95,-0L1728.64,43.31L1770.34,85.011Z"/>
    </g>
</svg>
