<?xml version="1.0" encoding="UTF-8" standalone="no"?>
<!DOCTYPE svg PUBLIC "-//W3C//DTD SVG 1.1//EN" "http://www.w3.org/Graphics/SVG/1.1/DTD/svg11.dtd">
<svg width="100%" height="100%" viewBox="0 0 1870 307" version="1.1" xmlns="http://www.w3.org/2000/svg" xmlns:xlink="http://www.w3.org/1999/xlink" xml:space="preserve" xmlns:serif="http://www.serif.com/" style="fill-rule:evenodd;clip-rule:evenodd;stroke-linejoin:round;stroke-miterlimit:2;">
    <g transform="matrix(398.569,0,0,398.569,-6.3771,301.716)">
        <path d="M0.016,-0.626C0.016,-0.665 0.026,-0.694 0.047,-0.714C0.067,-0.734 0.096,-0.744 0.134,-0.744L0.412,-0.744L0.412,-0.596L0.249,-0.596L0.249,-0L0.016,-0L0.016,-0.626ZM0.239,-0.444L0.412,-0.444L0.412,-0.301L0.239,-0.301L0.239,-0.444Z" style="fill:rgb(10,23,16);fill-rule:nonzero;"/>
    </g>
    <g transform="matrix(398.569,0,0,398.569,-6.3771,301.716)">
    </g>
    <g transform="matrix(398.569,0,0,398.569,163.01,301.716)">
        <path d="M0.515,-0L0.152,-0C0.102,-0 0.067,-0.011 0.046,-0.032C0.026,-0.054 0.016,-0.088 0.016,-0.136L0.016,-0.744L0.249,-0.744L0.249,-0.154C0.249,-0.15 0.251,-0.147 0.253,-0.144C0.255,-0.142 0.258,-0.141 0.262,-0.141L0.281,-0.141L0.281,-0.744L0.515,-0.744L0.515,-0Z" style="fill:rgb(10,23,16);fill-rule:nonzero;"/>
    </g>
    <g transform="matrix(398.569,0,0,398.569,163.01,301.716)">
    </g>
    <g transform="matrix(398.569,0,0,398.569,374.646,301.716)">
        <path d="M0.113,-0.601L0.009,-0.601L0.009,-0.744L0.451,-0.744L0.451,-0.601L0.347,-0.601L0.347,-0L0.113,-0L0.113,-0.601Z" style="fill:rgb(10,23,16);fill-rule:nonzero;"/>
    </g>
    <g transform="matrix(398.569,0,0,398.569,555.194,301.716)">
        <path d="M0.515,-0.124C0.515,-0.077 0.505,-0.042 0.485,-0.021C0.464,0.001 0.429,0.012 0.378,0.012L0.152,0.012C0.118,0.012 0.091,0.007 0.072,-0.003C0.052,-0.012 0.038,-0.027 0.029,-0.047C0.02,-0.066 0.016,-0.092 0.016,-0.124L0.016,-0.744L0.249,-0.744L0.249,-0.142C0.249,-0.138 0.25,-0.135 0.253,-0.133C0.255,-0.13 0.258,-0.129 0.262,-0.129L0.268,-0.129C0.272,-0.129 0.275,-0.13 0.278,-0.133C0.28,-0.135 0.281,-0.138 0.281,-0.142L0.281,-0.744L0.515,-0.744L0.515,-0.124Z" style="fill:rgb(10,23,16);fill-rule:nonzero;"/>
    </g>
    <g transform="matrix(398.569,0,0,398.569,766.83,301.716)">
        <path d="M0.016,-0.744L0.249,-0.744L0.249,-0L0.016,-0L0.016,-0.744ZM0.378,-0.744C0.424,-0.744 0.459,-0.732 0.481,-0.709C0.503,-0.686 0.514,-0.652 0.514,-0.608L0.514,-0.474C0.514,-0.445 0.51,-0.421 0.5,-0.402C0.491,-0.384 0.478,-0.37 0.46,-0.36C0.443,-0.351 0.422,-0.346 0.397,-0.346L0.363,-0.346L0.363,-0.332L0.404,-0.332C0.425,-0.332 0.442,-0.328 0.455,-0.32C0.467,-0.312 0.477,-0.301 0.483,-0.287C0.488,-0.273 0.492,-0.256 0.495,-0.235L0.518,-0L0.294,-0L0.281,-0.237L0.281,-0.589C0.281,-0.594 0.28,-0.597 0.277,-0.6C0.275,-0.602 0.271,-0.604 0.267,-0.604L0.214,-0.604L0.219,-0.744L0.378,-0.744Z" style="fill:rgb(10,23,16);fill-rule:nonzero;"/>
    </g>
    <g transform="matrix(398.569,0,0,398.569,765.236,301.716)">
    </g>
    <g transform="matrix(398.569,0,0,398.569,973.685,301.716)">
        <path d="M0.281,-0.603C0.281,-0.607 0.28,-0.61 0.278,-0.613C0.276,-0.615 0.272,-0.616 0.268,-0.616L0.262,-0.616C0.254,-0.616 0.249,-0.612 0.249,-0.603L0.249,-0.142C0.249,-0.138 0.251,-0.135 0.253,-0.132C0.255,-0.13 0.258,-0.129 0.262,-0.129L0.268,-0.129C0.272,-0.129 0.276,-0.13 0.278,-0.132C0.28,-0.135 0.281,-0.138 0.281,-0.142L0.281,-0.262L0.515,-0.262L0.515,-0.124C0.515,-0.077 0.503,-0.043 0.48,-0.021C0.457,0.001 0.419,0.012 0.367,0.012L0.164,0.012C0.111,0.012 0.073,0.001 0.05,-0.021C0.027,-0.043 0.016,-0.077 0.016,-0.124L0.016,-0.621C0.016,-0.668 0.027,-0.702 0.05,-0.724C0.073,-0.746 0.111,-0.757 0.164,-0.757L0.367,-0.757C0.42,-0.757 0.458,-0.746 0.481,-0.724C0.503,-0.702 0.515,-0.668 0.515,-0.621L0.515,-0.294L0.281,-0.294L0.281,-0.603ZM0.116,-0.38L0.414,-0.38L0.414,-0.294L0.116,-0.294L0.116,-0.38Z" style="fill:rgb(10,23,16);fill-rule:nonzero;"/>
    </g>
    <g transform="matrix(398.569,0,0,398.569,1185.32,301.716)">
        <path d="M0.016,-0.744L0.412,-0.744L0.412,-0.596L0.249,-0.596L0.249,-0L0.016,-0L0.016,-0.744ZM0.239,-0.444L0.412,-0.444L0.412,-0.301L0.239,-0.301L0.239,-0.444Z" style="fill:rgb(10,23,16);fill-rule:nonzero;"/>
    </g>
    <g transform="matrix(398.569,0,0,398.569,1354.71,301.716)">
        <path d="M0.515,-0L0.152,-0C0.102,-0 0.067,-0.011 0.046,-0.032C0.026,-0.054 0.016,-0.088 0.016,-0.136L0.016,-0.744L0.249,-0.744L0.249,-0.154C0.249,-0.15 0.251,-0.147 0.253,-0.144C0.255,-0.142 0.258,-0.141 0.262,-0.141L0.281,-0.141L0.281,-0.744L0.515,-0.744L0.515,-0Z" style="fill:rgb(10,23,16);fill-rule:nonzero;"/>
    </g>
    <g transform="matrix(398.569,0,0,398.569,1354.71,301.716)">
    </g>
    <g transform="matrix(398.569,0,0,398.569,1566.34,301.716)">
        <path d="M0.143,-0C0.098,-0 0.066,-0.011 0.046,-0.033C0.026,-0.054 0.016,-0.089 0.016,-0.136L0.016,-0.744L0.249,-0.744L0.249,-0.154C0.249,-0.15 0.251,-0.147 0.253,-0.145C0.255,-0.142 0.258,-0.141 0.262,-0.141L0.332,-0.141L0.332,-0L0.143,-0Z" style="fill:rgb(10,23,16);fill-rule:nonzero;"/>
    </g>
    <g transform="matrix(398.569,0,0,398.569,1705.84,301.716)">
        <path d="M0.016,-0.744L0.249,-0.744L0.249,-0.142L0.412,-0.142L0.412,-0L0.016,-0L0.016,-0.744Z" style="fill:rgb(10,23,16);fill-rule:nonzero;"/>
    </g>
    <g transform="matrix(398.569,0,0,398.569,1873.63,301.716)">
    </g>
</svg>
