<?xml version="1.0" encoding="UTF-8"?>
<svg id="Layer_1" data-name="Layer 1" xmlns="http://www.w3.org/2000/svg" width="188" height="66" viewBox="0 0 188 66">
  <path d="m187.48,58.29c-7.23,4.53-14.74,6.74-22.54,6.74-10.31,0-18.4-3.08-24.37-9.34-5.68-5.88-8.57-13.39-8.57-22.64s3.28-17.15,9.73-23.31C148.56,3.28,157.42,0,168.31,0c6.74,0,12.33,1.06,16.67,3.28l-.29,12.72c-4.82-2.79-10.02-4.24-15.7-4.24-7.03,0-12.43,2.12-16.09,6.36-3.18,3.57-4.82,8.19-4.82,13.87s1.74,10.69,5.3,14.64c3.56,3.95,8.29,5.88,14.16,5.88,5.39,0,10.69-1.45,15.99-4.34l3.95,10.12ZM59.44,31.22h-4.65s-.02,0-.04,0h-19.15l.71,4.49,4.99,2.06c2.06.87,3.38,1.74,3.38,5.39h0s0,9.07,0,9.07c-2.12.87-5.01,1.25-8.57,1.25-6.07,0-10.98-2.22-14.74-6.55-3.56-4.14-5.3-9.06-5.3-14.93s1.64-10.4,5.01-13.97c3.95-4.24,9.83-6.36,17.82-6.36,5.68,0,11.27,1.44,16.96,4.33l.29-13c-6.45-2.02-12.91-2.99-19.46-2.99-10.89,0-19.65,3.18-26.49,9.54C3.37,15.8,0,23.6,0,32.95s2.79,16.76,8.48,22.74c5.88,6.26,13.87,9.34,23.8,9.34s18.98-2.12,27.17-6.45v-23.08s0-.07,0-.2v-4.09Zm69.34,1.61c0,17.68-14.33,32.02-32.01,32.01-17.68,0-32.01-14.33-32.01-32.01V.81h32.01c17.68,0,32.01,14.33,32.01,32.01Zm-12.34,0c0-10.87-8.81-19.68-19.68-19.68h-19.68v19.68c0,10.87,8.81,19.67,19.68,19.67,10.87,0,19.68-8.81,19.68-19.67Z" fill="#f6ebd4" stroke-width="0"/>
</svg>