<svg class="w-full translate-x-1/2 scale-[2] bp-sm:translate-x-0 bp-sm:scale-[1]" version="1.1" viewBox="0 0 1249.3 142.8" xmlns="http://www.w3.org/2000/svg">
<g id="the"><path class="st0" d="m 57.8,25.6 -1,0.9 v 54.8 c 0,3 2,5.1 4.2,6.6 l -10.4,9.3 c 2.2,0.2 2.7,0.2 3.8,0.2 3.8,0 7.5,-0.6 11.1,-1.7 V 25.3 c -1.5,0.3 -3,0.5 -4.5,0.4 -1.1,0.1 -2.1,0 -3.2,-0.1 M 37.2,89 l 6,-4.3 V 47.9 c 0,-1.5 0,-8.4 -1.2,-10 L 38.8,40.1 37.2,38.4 55.2,25.1 45,22.9 C 29.5,30.3 22,46 22,62.2 22,82.1 33.2,97.3 50.6,97.3 L 41,89.1 38.8,90.8 Z m 30.5,6 c 0.9,-0.3 9.4,-2.6 16,-14.1 l 2.1,1.2 C 77.3,99 64.1,110.4 43.9,110.4 23.2,110.4 4.8,90.9 4.8,70.9 4.8,58 8.7,34.5 41.6,21.9 40.4,21.6 29.6,18.8 20.2,18.8 11.5,18.8 5.8,24.5 2.1,32 L 0,30.7 C 5.4,17.4 17.8,5.5 33,5.5 c 13.2,0 25.8,7.3 38.9,7.3 7.9,0 13.3,-2.8 16.3,-9.3 l 2.2,1.3 C 89.8,6.1 82.6,21 67.6,24.7 Z m 36.4,-80.2 v 35.8 l 0.2,0.2 14.5,-13.6 h 0.8 l 13.3,11.5 4.9,-4.9 1.6,1.7 -6.1,6.4 v 39.5 c 0,0 2.6,3.1 4.9,3.1 1.4,0 3.3,-2 4.5,-3.1 l 1.5,1.5 -14,14.1 h -0.8 L 116.7,96.5 v -1.2 c 0,0 1.8,-0.8 1.8,-2.1 v -37 c -2.4,-2.5 -5.1,-4.8 -7.9,-6.7 l -6.4,5.6 v 35.8 c 1.5,2.5 4.3,4 7.2,4 l 0.3,1.5 L 101,107 h -0.8 L 86.7,96.3 v -1.2 c 0,0 2.6,-1.1 2.6,-2.1 V 21.1 c 0,-1.6 -2.8,-2 -2.8,-2 v -1.5 c 7.4,-4.3 14.4,-9.1 21.1,-14.4 h 0.9 c 0,0 12,11.1 20.5,-1.6 l 2.1,1 c -14.7,25.9 -27,12.2 -27,12.2 m 60.4,33.4 11.7,17.3 -12.9,8.3 V 49.3 Z M 163.3,77 189.8,60.4 v -1 l -15.9,-23 h -1.6 l -26.7,19.2 v 1.2 c 0,0 2.9,1 2.9,2.1 v 30.6 c 0,0.9 -2.6,1.5 -2.6,1.5 v 1.2 l 18.9,14.9 h 1.2 l 20.7,-18.4 -1.8,-2.1 -11.2,9.3 c -2.8,-1.8 -10.3,-8.2 -10.3,-8.2 z"></path></g><g id="philadelphia"><path class="st0" d="m 508.6,55.4 v 39 L 495.4,85.1 V 46.6 l 4,-3 z m -33.5,-35.2 4.4,-2.2 18.1,23.4 -21.1,14.2 v 1.2 c 1.6,0 3,0.6 3,2.1 v 27.9 c 0,0.9 -1.4,1.7 -2.9,1.7 v 1.2 l 25.2,17.5 h 0.8 l 24.6,-17.5 v -1.2 c -1.2,0 -2.7,-1 -2.7,-1.9 V 52.9 l 6.9,-7.2 -1.7,-1.7 -5.2,5.2 -30,-38.5 c 0,-3.6 4.8,-6.9 4.8,-6.9 L 497.8,2 c 0,0 -14.2,10.3 -23.7,16 z M 282.7,49.3 c 0,-9.3 -8.8,-18.6 -14.2,-25.8 v 45.2 c 10.2,-2.9 14.2,-9.4 14.2,-19.4 m -49.9,59.2 8.7,2.4 V 19.6 L 232.8,16 Z m 24.6,-0.9 4.5,-2.5 1.2,2.1 -31.6,21.3 c -4.1,-5.1 -8.4,-6.9 -12.3,-6.9 -5.8,0 -10.8,3.9 -13.2,8.1 -0.6,-0.3 -2.1,-1 -2.2,-1.2 0.9,-2.2 9.4,-22 26.8,-20.5 V 15.1 c -3.1,-1 -6.3,-1.5 -9.6,-1.5 -12.9,0 -18.1,12 -18.6,13.5 l -2.5,-1.9 C 205.4,14 214.8,0.9 229.5,0.9 c 10.6,0 18.3,7.8 30,9.1 l 13,-8.8 h 1 c 2.1,7.8 23.5,21.3 23.5,38 0,13.5 -13.6,23.5 -22.5,30 -4.5,3.3 -6.1,8.2 -6.1,13.5 0,0.8 0.1,1.6 0.3,2.4 l -0.9,0.6 c -0.9,-0.3 -8.4,-3.1 -8.4,-9.3 0,-3.8 2.8,-5.8 6.7,-7 V 21.1 c -2,-2.8 -3.1,-4.6 -4.8,-7.5 -1.3,0.4 -2.8,2.4 -3.3,5.4 -0.5,4.2 -0.8,8.4 -0.8,12.6 z m 192,-42.4 v 28.2 c -1.4,1.3 -3.3,1.9 -5.2,1.8 -4.2,0 -7.6,-5.8 -7.6,-14.5 0,-8.7 4.2,-13.9 12.8,-15.5 m 3.4,-28 c -15.3,15.4 -20.1,0 -20.1,0 h -1.2 l -9,12.7 v 0.6 c 1.5,2.5 3.9,6.1 9.3,6.1 4.6,0 8.2,-5.8 10.8,-8.4 l 6.7,5.1 v 9.1 c -14.7,1 -27.7,9.3 -27.7,24.4 -0.3,9.3 5.8,17.6 14.8,20.1 h 1.2 L 449,96.4 h 0.3 l 11.4,10.5 h 0.9 l 13.5,-13.2 -1.3,-1.8 c -1.2,1 -2.5,2.4 -3.8,2.4 -2.5,0 -5.8,-4 -5.8,-4 V 50.5 l 6,-5.8 -1.8,-1.8 -4.2,3.9 -10.6,-9.6 z M 316.6,14.8 v 35.8 l 0.1,0.2 14.5,-13.6 h 0.8 l 13.3,11.5 4.9,-4.9 1.8,1.7 -6.3,6.4 v 39.5 c 0,0 2.5,3.1 5.1,3.1 1.2,0 3.1,-2 4.4,-3.1 l 1.7,1.5 -14.2,14.1 H 342 L 329.2,96.3 v -1.2 c 0,0 1.8,-0.6 1.8,-2 v -37 c -2.4,-2.5 -5.1,-4.8 -7.9,-6.9 l -6.4,5.8 v 35.8 c 1.5,2.5 4.3,4 7.2,4 l 0.3,1.5 -10.7,10.7 h -0.8 L 299.2,96.3 v -1.2 c 0,0 2.5,-1.2 2.5,-2.1 V 21.1 c 0,-1.6 -2.9,-2 -2.9,-2 v -1.5 c 7.4,-4.3 14.4,-9.1 21.1,-14.4 h 0.9 c 0,0 12.1,11.1 20.5,-1.6 l 2.1,1 c -14.5,25.9 -26.8,12.2 -26.8,12.2 m 90.9,92.2 h -0.9 L 393,96.3 v -1.2 c 0,0 2.2,-0.8 2.2,-2.1 V 18.1 L 395,18 l -4.3,2.2 -1,-2.1 c 9.4,-5.7 23.7,-16 23.7,-16 l 1.5,1.8 c 0,0 -4.8,3.4 -4.8,7 v 80.3 c 0,0 3.1,2.8 5,2.8 1,0 2.4,-1.2 3.6,-2.2 l 1.6,1.8 z M 371.3,29.3 c 2.8,-3.6 6,-6.9 9.6,-9.7 v -1.2 c -3.6,-3 -7,-6.3 -10,-9.9 h -1.2 c -2.7,3.8 -5.9,7.2 -9.6,10 v 1.2 c 3.6,3 6.9,6.2 10,9.6 z m 4.5,77.7 13.2,-13.7 -1.4,-1.6 c -1.2,1 -3,2.7 -4,2.7 -2.5,0 -5.2,-3 -5.2,-3 V 50.6 l 6.3,-6.1 -1.8,-2 -4.9,5 L 366.2,37 h -0.9 l -12.1,12.4 1.5,1.8 2.3,-2 c 2.4,1.7 4.6,3.6 6.6,5.7 v 38 c 0,1.3 -2.4,2.1 -2.4,2.1 v 1.2 l 13.7,10.7 h 0.9 z M 786.9,65.2 v 28.2 c 0,0 -1.5,1.8 -5.1,1.8 -4.3,0 -7.8,-5.8 -7.8,-14.5 0,-8.7 4.4,-13.9 12.9,-15.5 m 3.4,-28 c -15.3,15.4 -20.1,0 -20.1,0 H 769 l -8.8,12.7 v 0.6 c 1.3,2.5 3.8,6.1 9.3,6.1 4.5,0 8.2,-5.8 10.8,-8.4 l 6.6,5.1 v 9.1 c -14.5,1 -27.7,9.3 -27.7,24.4 0,10.5 6.6,17.5 15,20.1 h 1 l 11.5,-10.5 h 0.2 l 11.5,10.5 h 0.8 l 13.6,-13.2 -1.3,-1.8 c -1.2,1 -2.7,2.4 -3.9,2.4 -2.5,0 -5.8,-4 -5.8,-4 V 50.5 l 6,-5.8 -1.7,-1.8 -4.3,3.9 -10.5,-9.6 z M 685.2,14.9 c 0,0 12.3,13.6 27,-12.1 L 710,1.6 c -8.5,12.7 -20.5,1.6 -20.5,1.6 h -0.9 c -6.7,5.3 -13.7,10.1 -21.1,14.4 v 1.5 c 0,0 2.8,0.3 2.8,2 V 93 c 0,1 -2.5,2.1 -2.5,2.1 v 1.2 l 13.5,10.7 h 0.7 l 10.6,-10.6 -0.3,-1.5 c -2.9,0 -5.6,-1.5 -7.2,-4 V 55 l 6.4,-5.5 c 2.9,2 5.5,4.2 7.9,6.7 v 37 c 0,1.3 -1.8,2.1 -1.8,2.1 v 1.2 l 12.7,10.5 h 0.8 l 14.1,-14.1 -1.5,-1.5 c -1.2,1.2 -3.1,3.1 -4.5,3.1 -2.4,0 -4.9,-3.1 -4.9,-3.1 V 51.8 l 6.1,-6.4 -1.7,-1.7 -4.9,4.9 -13.3,-11.5 h -0.8 L 685.2,50.7 685,50.5 Z m -40.9,42.2 c 0,0 -5.4,-5.1 -8.8,-7 l -4.3,4.3 V 90 c 4.5,1.3 7.6,2 13,6.6 l 0.2,-0.2 z m 15.8,-4.8 v 34.4 c 0,1 2.7,1.8 2.7,1.8 v 1 l -24.6,17.6 h -0.8 c -2,-1.3 -4.2,-2.3 -6.4,-3 l -0.2,0.2 V 126 l 0.2,0.2 4.3,-2.1 1,1.7 c -13.2,8.7 -23.5,16 -23.5,16 l -0.9,-1.4 c 0,0 3.1,-2.7 3.1,-5.1 v -33.9 c -3.4,0.3 -6.7,0.8 -8.5,6.1 l -1.3,-0.3 c 0,-7.3 3.1,-13.3 9.9,-16.2 V 53.3 c 0,0 -3.4,-3.8 -5.5,-3.8 -1.3,0 -3.3,2.2 -4.5,3.5 l -1.5,-1.5 14.1,-15 h 0.9 c 0,0 11.5,7.8 13.5,13.3 l 12.5,-13.2 h 0.8 l 14.4,12.7 5.2,-5.4 1.7,1.8 z m 79.8,-23 h -1.2 c -3.1,-3.4 -6.4,-6.6 -10,-9.6 v -1.2 c 3.7,-2.8 6.9,-6.2 9.6,-10 h 1.2 c 3,3.6 6.4,6.9 10,9.9 v 1.2 c -3.6,2.8 -6.8,6.1 -9.6,9.7 m 4.5,77.7 h -0.9 L 729.7,96.3 v -1.2 c 0,0 2.4,-0.8 2.4,-2.1 V 55 c -2,-2.1 -4.3,-4 -6.7,-5.7 l -2.1,2 -1.5,-1.8 12,-12.5 h 0.9 l 11.7,10.5 5,-5 1.6,2 -6.1,6.1 v 40.8 c 0,0 2.7,3 5.2,3 1,0 2.8,-1.7 4,-2.7 l 1.3,1.6 z m -150,0 h -0.9 L 579.9,96.3 v -1.2 c 0,0 2.2,-0.8 2.2,-2.1 V 18.1 L 582,18 l -4.5,2.2 -0.9,-2.1 c 9.4,-5.7 23.7,-16 23.7,-16 l 1.3,1.8 c 0,0 -4.8,3.4 -4.8,7 v 80.3 c 0,0 3.3,2.8 5.1,2.8 1,0 2.4,-1.2 3.6,-2.2 l 1.6,1.8 z m -42.9,-58.8 -1.2,1.1 v 24.5 l 12.9,-8.3 z M 550.3,77 v 10.5 c 0,0 7.5,6.4 10.3,8.2 l 11.2,-9.3 2,2.1 L 553,107 h -1 L 533,92.1 v -1.2 c 0,0 2.5,-0.6 2.5,-1.5 V 58.9 c 0,-1 -2.7,-2.1 -2.7,-2.1 v -1.2 l 26.6,-19.2 h 1.5 l 15.9,22.9 v 1 z"></path></g><g id="inquirer"><path class="st0" d="M 856.3,102.3 868,92.7 c -2.7,-2.1 -5.1,-4.5 -5.1,-7.9 V 21.1 l 3.3,-2.5 c 1.6,0.6 3.3,1.1 4.9,1.5 v 75.5 c 0,3.1 -0.2,6.1 -0.6,9.1 -4.6,-1.4 -9.4,-2.2 -14.2,-2.4 M 827.9,27 l 2,1.2 C 832.4,21.6 837.8,15 847,15 c 5.5,0.2 11,1.2 16.3,2.9 l -21,15.4 1.8,2 2.7,-2 c 0.2,0 1.5,1.2 1.5,15.3 v 40.9 l -6,4.3 1.8,2 2.2,-1.7 9.7,8.2 c -13.5,0 -24.1,13.9 -28.2,25.3 l 2,1.2 c 2.7,-6.7 7.3,-13.3 16.6,-13.3 12.3,0 26.4,7.2 36.1,7.2 11.5,0 21.3,-11.2 25.3,-21 l -1.9,-1.2 c -2.1,5.7 -7.6,9.4 -13.6,9.3 -2.7,-0.1 -5.4,-0.4 -8.1,-1 h -0.5 c -0.2,-0.1 -0.4,-0.2 -0.6,-0.2 1.9,-3 2.5,-4.9 3.1,-9.3 0.9,-7 0.9,-20.4 0.9,-30 v -48 C 900.4,18.3 907,2.9 907.8,1.2 L 906,0 c -2.4,6 -7.5,9.1 -14.2,9.1 -11.2,0 -23.5,-7.3 -34,-7.3 -15.6,0 -25.3,13.5 -29.9,25.2 M 994.3,88.7 V 57.8 c 0,0 -9.9,-8.4 -12.4,-9.6 l -0.6,0.3 v 38.8 c 0,0 6,5.8 7.8,6.7 z m 16.2,39.3 c 13,-12.3 27,13.8 27,13.8 l -1.7,1 c -9.7,-14.4 -20.7,-1.6 -20.7,-1.6 h -1 l -19.8,-15.6 0.2,-31.3 -0.2,-1.5 h -0.2 L 981.5,107 h -0.8 L 962.6,91.8 v -0.9 c 1,-0.2 1.9,-0.6 2.7,-1.2 0.2,-0.1 0.2,-0.4 0.2,-0.6 V 58.6 c 0,-0.3 -0.5,-0.5 -0.5,-0.5 -0.8,-0.6 -1.7,-1.1 -2.7,-1.3 V 55.9 L 992,36.5 h 0.9 l 15.7,11.7 6,-5.5 1.8,2 -6,5.8 z m 222.6,-73.2 c -3.7,0 -7,-1.3 -10.3,-4.7 h -2.1 v 41.1 c 0,0 5.1,3.7 6.6,3.7 1,0 6,-4.3 7.2,-5.4 l 1.8,1.8 -17.4,15.6 h -0.8 l -14.2,-11 v -1.2 c 0,0 2.1,-1 2.1,-1.9 V 53.2 c 0,0 -3.4,-3 -5.1,-3.6 -1.1,0 -1.8,0.9 -3,2 l -1.5,-1.7 12,-12.7 h 0.9 l 11.4,10 8.8,-10 h 1.2 c 0,0 4,4.9 9,4.9 2.8,0 5.8,-0.8 7.9,-4 l 1.7,0.8 c -2.5,5.5 -9.9,16 -16.2,15.9 m -59.9,-6.6 -1.2,1.1 v 24.5 l 12.9,-8.3 z M 1172,77 v 10.5 c 0,0 7.5,6.4 10.3,8.2 l 11.2,-9.3 1.8,2.1 -20.7,18.5 h -1 l -19,-14.8 V 91 c 0,0 2.5,-0.6 2.5,-1.5 V 58.9 c 0,-1 -2.7,-2.1 -2.7,-2.1 v -1.2 l 26.4,-19.2 h 1.7 l 15.9,22.9 v 1 z m -26.1,-22.1 c -4,0 -7.8,-1.7 -10.5,-4.7 h -1.9 v 41 c 0,0 5.1,3.8 6.5,3.8 1.2,0 6.1,-4.3 7.3,-5.4 l 1.7,1.8 -17.4,15.6 h -0.8 l -14.2,-11 v -1.2 c 0,0 2.1,-1 2.1,-1.9 V 53.2 c 0,0 -3.4,-3 -5.1,-3.6 -1,0 -1.6,0.9 -2.8,2 l -1.7,-1.7 12,-12.7 h 0.9 l 11.5,10 8.8,-10 h 1.2 c 0,0 3.9,4.9 8.8,4.9 3,0 5.8,-0.8 8.1,-4 l 1.5,0.8 c -2.5,5.5 -9.8,16 -16,16 m -53.3,-25.6 h -1.2 c -3.1,-3.4 -6.4,-6.6 -10,-9.6 v -1.2 c 3.7,-2.8 6.9,-6.2 9.6,-10 h 1.2 c 3,3.6 6.4,6.9 10,9.9 v 1.2 c -3.5,2.9 -6.7,6.1 -9.6,9.7 m 4.5,77.7 h -0.8 l -13.9,-10.6 v -1.2 c 0,0 2.4,-0.8 2.4,-2.1 V 55 c -2,-2.1 -4.2,-4 -6.6,-5.7 l -2.1,2 -1.6,-1.8 12.3,-12.5 h 0.8 l 11.7,10.5 5,-5 1.8,2 -6.3,6.1 v 40.8 c 0,0 2.8,3 5.4,3 1,0 2.7,-1.7 3.9,-2.7 l 1.3,1.6 z m -46.7,-12.3 -13,12.3 h -0.9 l -13.2,-11.7 -4.5,4 -1.8,-1.9 6,-5.4 V 53 c 0,0 -3.8,-3.2 -4.8,-3.2 -1,0 -1.5,0.8 -2.7,1.8 l -1.2,-1.8 12.4,-12.7 h 0.8 l 12,10 v 1.3 c 0,0 -1.8,0.9 -1.8,2.1 v 37.6 c 0,0 4.8,5.2 7.9,7 l 6.1,-5.2 v -37 c 0,0 -4.5,-3.5 -5.5,-3.5 -0.8,0 -1.5,0.8 -2.1,1.2 L 1043,49 1054.4,37.2 h 0.8 l 11.5,9.7 3.7,-3.5 2,2.1 -5.8,5.5 v 39.4 c 0,0 4.3,4 6,4 1,0 3,-2.1 4.2,-3.1 l 1.5,1.5 -13.7,14.2 h -0.8 z M 948.2,107 h -0.8 L 934.2,96.3 v -1.2 c 0,0 1.7,-0.8 1.7,-2.1 V 56 c 0,0 -5.1,-4.9 -8.4,-6.7 l -6,5 v 37.5 c 0,0 3.3,3 4.9,3 0.8,0 1.6,-0.2 2.2,-0.6 l 0.7,1.3 L 919,107 h -0.8 L 904.1,96 v -1.2 c 0,0 2.5,-1 2.5,-1.9 V 52.7 c 0,0 -2.8,-3 -4.8,-3 -1,0 -2,0.9 -3.1,2 l -1.3,-1.8 11.7,-12.7 h 0.9 c 0,0 10.5,7.2 12.9,12.3 l 13.3,-12.3 h 0.8 l 13.3,11.5 4.9,-4.9 1.8,2 -6.3,6.1 v 39.5 c 0,0 2.7,3.1 5.1,3.1 1.2,0 2.7,-1.5 3.9,-2.6 l 1.3,1.7 z"></path></g></svg>