<?xml version="1.0" encoding="UTF-8" standalone="no"?>
<!DOCTYPE svg PUBLIC "-//W3C//DTD SVG 1.1//EN" "http://www.w3.org/Graphics/SVG/1.1/DTD/svg11.dtd">
<svg width="100%" height="100%" viewBox="0 0 1920 915" version="1.1" xmlns="http://www.w3.org/2000/svg" xmlns:xlink="http://www.w3.org/1999/xlink" xml:space="preserve" xmlns:serif="http://www.serif.com/" style="fill-rule:evenodd;clip-rule:evenodd;stroke-linejoin:round;stroke-miterlimit:2;">
    <rect id="Artboard8" x="0" y="0" width="1920" height="914.957" style="fill:none;"/>
    <clipPath id="_clip1">
        <rect x="0" y="0" width="1920" height="914.957"/>
    </clipPath>
    <g clip-path="url(#_clip1)">
        <g transform="matrix(575.268,0,0,575.268,-9.20428,432.026)">
            <path d="M0.081,-0.065C0.081,-0.061 0.082,-0.058 0.085,-0.056C0.087,-0.053 0.09,-0.052 0.094,-0.052L0.1,-0.052C0.104,-0.052 0.107,-0.053 0.11,-0.056C0.112,-0.058 0.113,-0.061 0.113,-0.065L0.113,-0.744L0.179,-0.744L0.179,-0.062C0.179,-0.038 0.173,-0.021 0.162,-0.01C0.152,0.001 0.136,0.006 0.115,0.006L0.079,0.006C0.058,0.006 0.042,0.001 0.032,-0.01C0.021,-0.021 0.016,-0.038 0.016,-0.062L0.016,-0.355L0.081,-0.355L0.081,-0.065Z" style="fill-rule:nonzero;"/>
        </g>
        <g transform="matrix(575.268,0,0,575.268,131.732,432.026)">
            <path d="M0.107,-0.751C0.133,-0.751 0.152,-0.746 0.163,-0.735C0.173,-0.724 0.179,-0.707 0.179,-0.683L0.179,-0.062C0.179,-0.037 0.173,-0.02 0.163,-0.01C0.152,0.001 0.133,0.006 0.107,0.006L0.087,0.006C0.062,0.006 0.044,0.001 0.033,-0.01C0.022,-0.02 0.016,-0.037 0.016,-0.062L0.016,-0.683C0.016,-0.707 0.022,-0.724 0.033,-0.735C0.044,-0.746 0.062,-0.751 0.087,-0.751L0.107,-0.751ZM0.113,-0.679C0.113,-0.683 0.112,-0.686 0.11,-0.689C0.107,-0.691 0.104,-0.692 0.1,-0.692L0.094,-0.692C0.085,-0.692 0.081,-0.688 0.081,-0.679L0.081,-0.065C0.081,-0.061 0.082,-0.058 0.085,-0.056C0.087,-0.053 0.09,-0.052 0.094,-0.052L0.1,-0.052C0.104,-0.052 0.107,-0.053 0.11,-0.056C0.112,-0.058 0.113,-0.061 0.113,-0.065L0.113,-0.679Z" style="fill-rule:nonzero;"/>
        </g>
        <g transform="matrix(575.268,0,0,575.268,272.668,432.026)">
            <rect x="0.016" y="-0.744" width="0.065" height="0.744" style="fill-rule:nonzero;"/>
        </g>
        <g transform="matrix(575.268,0,0,575.268,357.223,432.026)">
            <path d="M0.016,-0L0.016,-0.744L0.074,-0.744L0.074,-0.699L0.079,-0.699C0.08,-0.716 0.084,-0.729 0.092,-0.737C0.1,-0.746 0.111,-0.75 0.126,-0.75L0.127,-0.75C0.139,-0.75 0.149,-0.748 0.156,-0.744C0.164,-0.739 0.169,-0.732 0.173,-0.722C0.177,-0.712 0.179,-0.699 0.179,-0.683L0.179,-0L0.113,-0L0.113,-0.68C0.113,-0.684 0.112,-0.687 0.11,-0.689C0.107,-0.692 0.104,-0.693 0.1,-0.693L0.094,-0.693C0.09,-0.693 0.087,-0.692 0.085,-0.689C0.082,-0.687 0.081,-0.684 0.081,-0.68L0.081,-0L0.016,-0Z" style="fill-rule:nonzero;"/>
        </g>
        <g transform="matrix(575.268,0,0,575.268,469.396,432.026)">
        </g>
        <g transform="matrix(589.502,0,0,589.502,-14.3697,904.957)">
            <path d="M0.016,-0.618C0.016,-0.659 0.027,-0.69 0.049,-0.712C0.07,-0.733 0.102,-0.744 0.142,-0.744L0.468,-0.744L0.468,-0.587L0.276,-0.587L0.276,-0L0.016,-0L0.016,-0.618ZM0.266,-0.448L0.468,-0.448L0.468,-0.298L0.266,-0.298L0.266,-0.448Z" style="fill-rule:nonzero;"/>
        </g>
        <g transform="matrix(589.502,0,0,589.502,-14.3697,904.957)">
        </g>
        <g transform="matrix(589.502,0,0,589.502,269.767,904.957)">
            <path d="M0.417,-0.757C0.472,-0.757 0.51,-0.746 0.534,-0.723C0.557,-0.7 0.568,-0.665 0.568,-0.616L0.568,-0.129C0.568,-0.08 0.556,-0.045 0.533,-0.022C0.51,0.001 0.471,0.012 0.417,0.012L0.167,0.012C0.114,0.012 0.075,0.001 0.052,-0.022C0.028,-0.045 0.016,-0.08 0.016,-0.129L0.016,-0.616C0.016,-0.665 0.028,-0.7 0.052,-0.723C0.075,-0.746 0.114,-0.757 0.167,-0.757L0.417,-0.757ZM0.308,-0.597C0.308,-0.601 0.307,-0.604 0.305,-0.607C0.302,-0.609 0.299,-0.61 0.295,-0.61L0.289,-0.61C0.28,-0.61 0.276,-0.606 0.276,-0.597L0.276,-0.148C0.276,-0.144 0.277,-0.141 0.28,-0.139C0.282,-0.136 0.285,-0.135 0.289,-0.135L0.295,-0.135C0.299,-0.135 0.302,-0.136 0.305,-0.139C0.307,-0.141 0.308,-0.144 0.308,-0.148L0.308,-0.597Z" style="fill-rule:nonzero;"/>
        </g>
        <g transform="matrix(589.502,0,0,589.502,614.036,904.957)">
            <path d="M0.016,-0.744L0.276,-0.744L0.276,-0L0.016,-0L0.016,-0.744ZM0.427,-0.744C0.475,-0.744 0.51,-0.732 0.533,-0.708C0.556,-0.684 0.568,-0.649 0.568,-0.603L0.568,-0.479C0.568,-0.448 0.563,-0.423 0.554,-0.404C0.545,-0.385 0.531,-0.37 0.514,-0.36C0.496,-0.351 0.474,-0.346 0.447,-0.346L0.403,-0.346L0.403,-0.331L0.453,-0.331C0.475,-0.331 0.494,-0.327 0.507,-0.319C0.521,-0.31 0.53,-0.299 0.536,-0.284C0.542,-0.27 0.546,-0.251 0.549,-0.229L0.571,-0L0.321,-0L0.308,-0.232L0.308,-0.583C0.308,-0.588 0.307,-0.591 0.304,-0.594C0.302,-0.596 0.298,-0.598 0.294,-0.598L0.243,-0.598L0.24,-0.744L0.427,-0.744Z" style="fill-rule:nonzero;"/>
        </g>
        <g transform="matrix(589.502,0,0,589.502,611.678,904.957)">
        </g>
        <g transform="matrix(589.502,0,0,589.502,951.819,904.957)">
            <path d="M0.568,-0.355L0.568,-0.129C0.568,-0.08 0.558,-0.045 0.537,-0.022C0.516,0.001 0.483,0.012 0.436,0.012L0.148,0.012C0.101,0.012 0.068,0.001 0.047,-0.022C0.026,-0.045 0.016,-0.08 0.016,-0.129L0.016,-0.617C0.016,-0.666 0.026,-0.701 0.047,-0.724C0.068,-0.747 0.101,-0.758 0.148,-0.758L0.436,-0.758C0.483,-0.758 0.516,-0.747 0.537,-0.724C0.558,-0.701 0.568,-0.666 0.568,-0.617L0.568,-0.387L0.308,-0.387L0.308,-0.598C0.308,-0.601 0.307,-0.604 0.305,-0.607C0.302,-0.61 0.299,-0.611 0.295,-0.611L0.289,-0.611C0.285,-0.611 0.282,-0.61 0.28,-0.607C0.277,-0.604 0.276,-0.601 0.276,-0.598L0.276,-0.148C0.276,-0.144 0.277,-0.141 0.28,-0.139C0.282,-0.136 0.285,-0.135 0.289,-0.135L0.295,-0.135C0.299,-0.135 0.302,-0.136 0.305,-0.139C0.307,-0.141 0.308,-0.144 0.308,-0.148L0.308,-0.355L0.568,-0.355Z" style="fill-rule:nonzero;"/>
        </g>
        <g transform="matrix(589.502,0,0,589.502,1296.09,904.957)">
            <path d="M0.266,-0.448L0.468,-0.448L0.468,-0.296L0.266,-0.296L0.266,-0.448ZM0.142,-0C0.102,-0 0.07,-0.011 0.049,-0.033C0.027,-0.054 0.016,-0.086 0.016,-0.126L0.016,-0.618C0.016,-0.659 0.027,-0.69 0.049,-0.712C0.07,-0.733 0.102,-0.744 0.142,-0.744L0.468,-0.744L0.468,-0.587L0.276,-0.587L0.276,-0.157L0.468,-0.157L0.468,-0L0.142,-0Z" style="fill-rule:nonzero;"/>
        </g>
        <g transform="matrix(589.502,0,0,589.502,1296.09,904.957)">
        </g>
        <g transform="matrix(589.502,0,0,589.502,1580.22,904.957)">
            <path d="M0.307,-0.467L0.307,-0.604C0.307,-0.613 0.303,-0.617 0.294,-0.617L0.288,-0.617C0.284,-0.617 0.281,-0.616 0.279,-0.614C0.276,-0.611 0.275,-0.608 0.275,-0.604L0.275,-0.469C0.275,-0.46 0.277,-0.453 0.282,-0.449C0.286,-0.445 0.293,-0.441 0.302,-0.438C0.304,-0.438 0.306,-0.438 0.308,-0.437L0.471,-0.424C0.505,-0.417 0.53,-0.402 0.545,-0.381C0.56,-0.36 0.568,-0.329 0.568,-0.29L0.568,-0.129C0.568,-0.08 0.555,-0.045 0.529,-0.022C0.503,0.001 0.462,0.012 0.406,0.012L0.176,0.012C0.137,0.012 0.106,0.007 0.083,-0.004C0.06,-0.014 0.043,-0.029 0.032,-0.05C0.021,-0.07 0.016,-0.096 0.016,-0.129L0.016,-0.28L0.276,-0.28L0.276,-0.143C0.276,-0.139 0.277,-0.136 0.28,-0.133C0.282,-0.13 0.285,-0.129 0.289,-0.129L0.295,-0.129C0.299,-0.129 0.302,-0.13 0.305,-0.133C0.307,-0.136 0.308,-0.139 0.308,-0.143L0.308,-0.28C0.308,-0.291 0.306,-0.298 0.301,-0.303C0.296,-0.307 0.288,-0.31 0.278,-0.312L0.275,-0.312L0.114,-0.325C0.081,-0.33 0.056,-0.344 0.04,-0.366C0.024,-0.387 0.016,-0.416 0.016,-0.453L0.016,-0.617C0.016,-0.666 0.028,-0.701 0.052,-0.724C0.075,-0.747 0.114,-0.758 0.168,-0.758L0.413,-0.758C0.468,-0.758 0.507,-0.748 0.532,-0.727C0.556,-0.706 0.568,-0.672 0.568,-0.624L0.568,-0.467L0.307,-0.467Z" style="fill-rule:nonzero;"/>
        </g>
    </g>
</svg>
