<svg xmlns="http://www.w3.org/2000/svg" width="1576" height="403" viewBox="0 0 1576 403" version="1.1"><path d="M 241.500 0.652 C 190.791 4.662, 146.027 24.702, 110.134 59.462 C 76.269 92.258, 54.590 135.206, 48.518 181.526 C 46.573 196.358, 46.573 222.642, 48.518 237.474 C 52.350 266.707, 64.516 300.026, 79.461 322.218 C 81.407 325.108, 83 327.778, 83 328.151 C 83 328.524, 64.550 343.767, 42 362.024 C 19.450 380.282, 1 395.584, 1 396.028 C 1 396.473, 2.600 397.826, 4.555 399.034 C 8.684 401.586, 16.256 401.987, 20.254 399.865 C 21.669 399.114, 70.898 359.575, 129.650 312 C 263.116 203.926, 258.245 207.911, 257.630 207.297 C 257.348 207.014, 240.217 214.314, 219.563 223.518 C 193.392 235.181, 181.630 239.962, 180.755 239.290 C 180.065 238.761, 161.613 223.825, 139.750 206.101 C 113.785 185.050, 100 173.243, 100 172.055 C 100 169.129, 117.287 158.556, 127.818 155.042 C 133.563 153.124, 137.643 152.847, 172.818 151.982 C 253.481 150, 288.307 146.704, 307 139.281 C 310.575 137.861, 319.800 133.315, 327.500 129.179 C 354.925 114.447, 416.084 78.248, 416.707 76.379 C 417.209 74.873, 400.843 57.867, 390.709 49.364 C 364.319 27.222, 331.239 11.246, 298 4.592 C 279.271 0.842, 257.925 -0.646, 241.500 0.652 M 295.500 208.098 C 194.300 290.066, 111.050 357.586, 110.500 358.143 C 109.088 359.574, 120.757 370.433, 122.344 369.165 C 122.980 368.658, 147.575 350.572, 177 328.974 C 206.425 307.377, 231.893 288.647, 233.594 287.353 L 236.689 285 263.094 306.458 C 279.029 319.406, 290.366 327.932, 291.684 327.958 C 295.169 328.025, 310.077 315.111, 313.256 309.272 C 314.748 306.529, 318.054 297.808, 320.600 289.892 C 334.391 247.028, 354.732 207.064, 380.177 172.849 C 400.089 146.072, 428.121 115.750, 458.435 88.197 C 480.690 67.969, 481 67.622, 481 62.958 C 481 60.781, 480.663 59.015, 480.250 59.033 C 479.837 59.051, 396.700 126.131, 295.500 208.098 M 539 117.500 L 539 159 544 159 L 549 159 549 128.300 C 549 106.404, 549.308 97.908, 550.075 98.675 C 550.666 99.266, 558.701 112.969, 567.931 129.125 L 584.711 158.500 589.856 158.802 L 595 159.105 595 117.552 L 595 76 590.014 76 L 585.028 76 584.764 107.250 L 584.500 138.500 566.694 107.250 L 548.889 76 543.944 76 L 539 76 539 117.500 M 628.231 116.825 C 620.404 139.328, 614 158.023, 614 158.370 C 614 158.716, 616.438 159, 619.418 159 L 624.835 159 628.008 149.476 L 631.181 139.951 647.229 140.226 L 663.278 140.500 666.389 149.500 L 669.500 158.500 675.206 158.799 L 680.911 159.097 674.365 140.299 C 670.765 129.959, 664.325 111.375, 660.053 99 L 652.286 76.500 647.374 76.206 L 642.461 75.911 628.231 116.825 M 686 81 L 686 86 698.500 86 L 711 86 711 122.500 L 711 159 716.500 159 L 722 159 722 122.500 L 722 86 734.500 86 L 747 86 747 81 L 747 76 716.500 76 L 686 76 686 81 M 766 117.500 L 766 159 771 159 L 776 159 776 117.500 L 776 76 771 76 L 766 76 766 117.500 M 815.864 78.787 C 809.940 81.864, 804.939 88.184, 802.764 95.343 C 801.941 98.050, 801.500 105.954, 801.500 118 C 801.500 139.087, 802.508 143.728, 808.641 150.894 C 814.508 157.748, 818.807 159.435, 830.500 159.470 C 838.887 159.495, 841.145 159.151, 844.500 157.338 C 854.369 152.002, 858.541 144.222, 860.110 128.223 C 862.252 106.378, 858.203 88.071, 849.815 81.672 C 843.971 77.215, 839.759 76, 830.146 76 C 822.339 76, 820.560 76.347, 815.864 78.787 M 884 117.500 L 884 159 888.986 159 L 893.971 159 894.236 128.250 L 894.500 97.500 912 128.235 L 929.500 158.970 934.750 158.985 L 940 159 940 117.500 L 940 76 935 76 L 930 76 930 107.059 C 930 124.898, 929.622 137.884, 929.112 137.569 C 928.624 137.267, 920.424 123.291, 910.891 106.510 L 893.559 76 888.779 76 L 884 76 884 117.500 M 985.698 80.250 C 984.879 82.588, 978.802 100.025, 972.195 119 C 965.588 137.975, 959.702 154.738, 959.116 156.250 L 958.050 159 963.814 159 L 969.579 159 972.603 149.750 L 975.627 140.500 991.710 140.226 L 1007.793 139.951 1010.897 148.528 C 1012.603 153.245, 1014 157.531, 1014 158.052 C 1014 158.574, 1016.475 159, 1019.500 159 C 1022.525 159, 1025.005 158.662, 1025.010 158.250 C 1025.016 157.838, 1018.651 139.162, 1010.865 116.750 L 996.709 76 991.949 76 C 987.248 76, 987.169 76.054, 985.698 80.250 M 1044 117.500 L 1044 159 1069 159 L 1094 159 1094 154.500 C 1094 150.266, 1093.838 149.998, 1091.250 149.967 C 1089.737 149.949, 1080.850 149.836, 1071.500 149.717 L 1054.500 149.500 1054.238 112.750 L 1053.975 76 1048.988 76 L 1044 76 1044 117.500 M 822.450 86.352 C 818.351 88.211, 814.331 93.174, 812.776 98.295 C 811.970 100.953, 811.500 108.387, 811.500 118.500 C 811.500 134.288, 811.540 134.579, 814.500 140.454 C 818.210 147.816, 822.672 150.504, 831 150.392 C 837.798 150.301, 842.256 148.089, 845.455 143.222 C 848.917 137.956, 849.948 132.274, 849.976 118.299 C 850.012 100.053, 847.862 92.915, 840.739 87.639 C 837.254 85.057, 826.912 84.330, 822.450 86.352 M 641.191 110.682 C 637.786 120.589, 635 129.213, 635 129.847 C 635 130.656, 638.746 131, 647.567 131 C 659.082 131, 660.088 130.853, 659.577 129.250 C 659.270 128.287, 656.401 119.663, 653.201 110.085 L 647.383 92.670 641.191 110.682 M 985.500 111.691 C 982.200 121.421, 979.350 129.746, 979.167 130.191 C 978.983 130.636, 984.682 131, 991.830 131 L 1004.827 131 998.680 112.500 C 995.299 102.325, 992.301 94, 992.017 94 C 991.732 94, 988.800 101.961, 985.500 111.691 M 1158.045 187.092 C 1142.641 190.112, 1134 200.492, 1134 215.977 C 1134 231.561, 1141.855 240.834, 1160.746 247.551 C 1174.176 252.326, 1177.975 254.182, 1180.523 257.210 C 1183.636 260.909, 1183.666 264.114, 1180.621 267.655 C 1178.526 270.090, 1177.400 270.469, 1171.212 270.818 C 1162.686 271.300, 1157.995 269.894, 1152.962 265.346 L 1149.185 261.934 1140.129 268.217 C 1135.148 271.673, 1131.056 274.907, 1131.036 275.404 C 1130.963 277.222, 1139.585 284.162, 1145.461 287.014 C 1158.348 293.268, 1180.688 293.705, 1192.116 287.925 C 1197.910 284.994, 1201.905 281.110, 1204.770 275.620 C 1207.111 271.134, 1207.445 269.324, 1207.467 261 C 1207.490 252.358, 1207.229 251.025, 1204.585 246.246 C 1200.016 237.989, 1192.806 233.619, 1173.718 227.540 C 1161.078 223.514, 1156.863 218.732, 1159.621 211.545 C 1160.644 208.880, 1165.550 207, 1171.482 207 C 1178.382 207, 1182.782 208.763, 1186.292 212.935 L 1188.991 216.143 1197.465 210.025 C 1202.126 206.661, 1206.193 203.497, 1206.503 202.994 C 1207.421 201.509, 1200.496 194.588, 1195.217 191.715 C 1185.912 186.650, 1170.241 184.702, 1158.045 187.092 M 1439.618 187.050 C 1433.172 188.666, 1424.033 194.120, 1420.541 198.434 C 1412.543 208.313, 1410.924 215.190, 1410.973 239.063 C 1411.017 260.035, 1412.105 266.199, 1417.292 274.849 C 1421.055 281.122, 1425.605 284.991, 1433.664 288.766 C 1439.008 291.269, 1440.514 291.500, 1451.522 291.500 C 1463.088 291.500, 1463.796 291.376, 1470.210 288.218 C 1473.877 286.412, 1478.101 283.487, 1479.598 281.718 C 1482.945 277.761, 1487.647 267.799, 1488.551 262.750 L 1489.223 259 1477.191 259 L 1465.159 259 1464.509 261.958 C 1464.152 263.585, 1462.300 266.285, 1460.395 267.958 C 1457.504 270.496, 1456.086 271, 1451.833 271 C 1440.428 271, 1436.204 264.262, 1435.321 244.662 C 1434.712 231.145, 1435.900 220.120, 1438.574 214.486 C 1443.475 204.158, 1459.420 204.502, 1463.842 215.031 L 1465.500 218.980 1477.361 218.990 L 1489.223 219 1488.530 215.250 C 1487.365 208.941, 1482.247 199.456, 1477.878 195.509 C 1470.928 189.230, 1464.118 186.724, 1453.058 186.377 C 1447.801 186.212, 1441.753 186.515, 1439.618 187.050 M 1353.250 187.783 C 1347.063 187.938, 1342 188.228, 1342 188.428 C 1342 188.627, 1334.124 211.412, 1324.499 239.060 C 1314.873 266.709, 1307.111 289.439, 1307.249 289.570 C 1307.815 290.111, 1311.067 290.231, 1322.034 290.118 L 1333.567 290 1336.043 281.750 L 1338.519 273.500 1354.500 273.500 L 1370.481 273.500 1372.957 281.750 L 1375.433 290 1388.716 290 C 1396.022 290, 1402 289.822, 1402 289.605 C 1402 289.388, 1394.125 266.590, 1384.500 238.943 C 1374.875 211.296, 1367 188.572, 1367 188.445 C 1367 187.711, 1363.268 187.531, 1353.250 187.783 M 556.899 190.719 C 556.308 192.249, 548.703 213.975, 540 239 C 531.297 264.025, 523.697 285.738, 523.113 287.250 L 522.050 290 535.493 290 L 548.936 290 551.528 281.500 L 554.121 273 569.854 273 L 585.588 273 588.356 281.500 L 591.124 290 604.447 290 L 617.770 290 613.841 278.750 C 611.680 272.563, 603.729 249.725, 596.171 228 L 582.431 188.500 570.202 188.219 L 557.974 187.938 556.899 190.719 M 634 238.943 L 634 289.886 646.502 290.193 L 659.004 290.500 659.002 239.250 L 659 188 646.500 188 L 634 188 634 238.943 M 687 239 L 687 290 699.500 290 L 712 290 712 270.954 L 712 251.909 718.540 252.204 L 725.080 252.500 733.290 271.232 L 741.500 289.963 755.204 289.982 L 768.908 290 765.069 281.750 C 762.957 277.212, 758.446 267.650, 755.044 260.500 C 749.437 248.714, 749.022 247.407, 750.601 246.500 C 754.825 244.074, 760.065 238.503, 762.184 234.186 C 764.092 230.299, 764.486 227.879, 764.492 220 C 764.499 211.586, 764.176 209.841, 761.668 204.733 C 758.154 197.576, 752.091 192.726, 743.242 189.993 C 737.529 188.229, 733.935 188, 711.895 188 L 687 188 687 239 M 835 188.338 C 835 188.524, 827.125 211.296, 817.500 238.943 C 807.875 266.590, 800 289.388, 800 289.605 C 800 289.822, 805.978 290, 813.284 290 L 826.567 290 829.043 281.750 L 831.519 273.500 847.500 273.500 L 863.481 273.500 865.957 281.750 L 868.433 290 879.966 290.118 C 891.016 290.232, 894.184 290.112, 894.766 289.556 C 894.912 289.416, 887.150 266.661, 877.516 238.989 C 867.882 211.317, 860 188.524, 860 188.338 C 860 188.152, 854.375 188, 847.500 188 C 840.625 188, 835 188.152, 835 188.338 M 910 239 L 910 290 922 290 L 934 290 934 262.253 L 934 234.506 952.505 262.253 L 971.011 290 981.505 290 L 992 290 992 239 L 992 188 980 188 L 968 188 967.998 216.250 L 967.996 244.500 949.248 216.276 L 930.500 188.053 920.250 188.026 L 910 188 910 239 M 1018 238.980 L 1018 289.960 1039.250 290.230 C 1050.938 290.379, 1062.970 290.139, 1065.990 289.699 C 1078.026 287.941, 1087.401 281.468, 1092.345 271.500 C 1096.370 263.385, 1097.230 256.295, 1096.781 234.930 C 1096.415 217.496, 1096.136 214.913, 1094.060 209.782 C 1091.391 203.184, 1086.317 196.856, 1081.007 193.505 C 1073.396 188.700, 1068.476 188, 1042.318 188 L 1018 188 1018 238.980 M 1228.998 239.250 L 1228.996 290.500 1241.498 290.193 L 1254 289.886 1254 272.943 L 1254 256 1263.250 255.983 C 1274.616 255.961, 1284.444 253.972, 1291.113 250.342 C 1297.189 247.035, 1300.474 243.336, 1303.852 236 C 1306.006 231.321, 1306.381 229.082, 1306.360 221 C 1306.330 208.976, 1303.978 202.963, 1296.768 196.481 C 1288.400 188.958, 1283.557 188, 1253.895 188 L 1229 188 1228.998 239.250 M 1510 239 L 1510 290 1542.500 290 L 1575 290 1575 280 L 1575 270 1555 270 L 1535 270 1535 259 L 1535 248 1553 248 L 1571 248 1571 237.500 L 1571 227 1553 227 L 1535 227 1535 217.500 L 1535 208 1555 208 L 1575 208 1575 198 L 1575 188 1542.500 188 L 1510 188 1510 239 M 712 219.500 L 712 231 720.250 230.994 C 735.511 230.984, 740.600 227.737, 739.727 218.564 C 738.976 210.668, 733.958 208.016, 719.750 208.006 L 712 208 712 219.500 M 1043 239.116 L 1043 270.233 1052.838 269.837 C 1063.714 269.401, 1066.854 268.117, 1069.484 263.032 C 1071.915 258.329, 1073.283 245.514, 1072.634 233.500 C 1071.451 211.577, 1068.396 208.018, 1050.750 208.006 L 1043 208 1043 239.116 M 1254 221.619 L 1254 235.239 1263.293 234.832 C 1274.735 234.332, 1278.839 232.369, 1280.824 226.449 C 1284.701 214.883, 1277.140 208, 1260.557 208 L 1254 208 1254 221.619 M 842.889 237.066 L 838.324 251.500 842.628 251.803 C 844.996 251.970, 849.108 251.970, 851.765 251.803 L 856.598 251.500 852.026 237.066 L 847.454 222.632 842.889 237.066 M 1349.928 237.050 L 1345.388 251.500 1349.660 251.803 C 1352.010 251.970, 1356.117 251.970, 1358.787 251.803 L 1363.642 251.500 1359.055 237.050 L 1354.468 222.600 1349.928 237.050 M 565.593 236.250 C 563.478 242.988, 561.527 249.287, 561.257 250.250 C 560.816 251.826, 561.686 252, 569.990 252 C 576.950 252, 579.100 251.693, 578.751 250.750 C 578.496 250.063, 576.566 243.762, 574.461 236.750 C 572.357 229.738, 570.366 224, 570.037 224 C 569.708 224, 567.708 229.512, 565.593 236.250 M 1288.424 318.940 C 1277.994 321.435, 1271.542 329.275, 1271.516 339.488 C 1271.495 347.371, 1272.377 350.221, 1276.174 354.546 C 1280.326 359.274, 1286.745 362.402, 1296.355 364.381 C 1311.680 367.538, 1316 371.054, 1316 380.374 C 1316 389.183, 1308.762 393.720, 1296.290 392.730 C 1289.671 392.204, 1282.347 388.761, 1279.646 384.905 L 1278.199 382.840 1274.100 385.553 C 1271.845 387.045, 1270 388.834, 1270 389.529 C 1270 391.431, 1276.799 397.018, 1281.949 399.348 C 1285.343 400.884, 1289.188 401.509, 1297.072 401.808 C 1306.356 402.160, 1308.279 401.936, 1312.865 399.963 C 1323.257 395.492, 1328.689 384.829, 1326.159 373.867 C 1323.778 363.553, 1318.343 359.492, 1301.650 355.554 C 1289.554 352.701, 1286.035 351.022, 1283.636 346.960 C 1281.704 343.690, 1281.527 337.494, 1283.267 334.055 C 1286.756 327.160, 1300.550 325.202, 1309.339 330.353 C 1311.934 331.873, 1314.602 333.991, 1315.269 335.059 C 1316.872 337.626, 1317.849 337.486, 1321.926 334.105 L 1325.353 331.264 1323.160 328.477 C 1319.848 324.266, 1315.076 321.100, 1309.581 319.468 C 1304.432 317.939, 1293.727 317.672, 1288.424 318.940 M 1094 360.448 L 1094 402 1099 402 L 1104 402 1104 372.833 C 1104 356.792, 1104.338 343.999, 1104.750 344.406 C 1105.162 344.813, 1109.554 355.800, 1114.510 368.823 L 1123.519 392.500 1128.547 392.795 L 1133.575 393.090 1143.248 367.795 L 1152.921 342.500 1152.961 372.250 L 1153 402 1158.500 402 L 1164 402 1164 360.500 L 1164 319 1158.631 319 L 1153.262 319 1141.442 348.058 C 1134.941 364.039, 1129.319 377.303, 1128.948 377.532 C 1128.577 377.762, 1122.900 364.798, 1116.334 348.725 L 1104.395 319.500 1099.197 319.198 L 1094 318.895 1094 360.448 M 1188.008 344.750 C 1188.018 379.705, 1189.478 387.512, 1197.451 395.256 C 1202.467 400.127, 1208.447 402.002, 1218.928 401.990 C 1232.436 401.975, 1240.167 397.416, 1245.196 386.500 C 1247.420 381.673, 1247.511 380.417, 1247.814 350.250 L 1248.129 319 1243.131 319 L 1238.134 319 1237.817 348.780 C 1237.502 378.369, 1237.484 378.592, 1234.975 383.463 C 1233.130 387.046, 1231.272 388.988, 1228.068 390.682 C 1219.975 394.962, 1207.878 392.857, 1203.265 386.367 C 1199.508 381.082, 1199.011 376.521, 1199.006 347.250 L 1199 319 1193.500 319 L 1188 319 1188.008 344.750 M 1351 360.500 L 1351 402 1376 402 L 1401 402 1401 397 L 1401 392 1380.973 392 L 1360.945 392 1361.223 377.750 L 1361.500 363.500 1379.250 363.227 L 1397 362.954 1397 358.477 L 1397 354 1378.970 354 L 1360.940 354 1361.220 341.250 L 1361.500 328.500 1381.250 328.229 L 1401 327.958 1401 323.479 L 1401 319 1376 319 L 1351 319 1351 360.500 M 1423.229 349.250 C 1423.571 374.790, 1423.902 380.201, 1425.356 384 C 1428.095 391.159, 1431.594 395.678, 1436.728 398.687 C 1440.985 401.182, 1442.633 401.520, 1452 401.814 C 1461.885 402.125, 1462.822 401.979, 1467.993 399.322 C 1473.975 396.249, 1479.127 390.340, 1481.155 384.225 C 1481.992 381.702, 1482.506 370.580, 1482.749 349.750 L 1483.107 319 1478.053 319 L 1473 319 1473 345.790 C 1473 375.596, 1472.083 382.170, 1467.198 387.373 C 1461.809 393.113, 1452.270 394.687, 1444.500 391.119 C 1434.739 386.637, 1434 383.594, 1434 347.874 L 1434 319 1428.412 319 L 1422.824 319 1423.229 349.250 M 1506 360.500 L 1506 402 1511 402 L 1516 402 1516.039 372.250 L 1516.077 342.500 1525.694 367.797 L 1535.311 393.094 1540.306 392.797 L 1545.302 392.500 1554.901 367.500 L 1564.500 342.500 1564.765 372.250 L 1565.030 402 1570.015 402 L 1575 402 1575 360.448 L 1575 318.895 1569.825 319.198 L 1564.651 319.500 1552.575 349.267 L 1540.500 379.033 1538.850 375.267 C 1537.942 373.195, 1532.375 359.688, 1526.479 345.250 L 1515.758 319 1510.879 319 L 1506 319 1506 360.500" stroke="none" fill="#151618" fill-rule="evenodd"/></svg>