<?xml version="1.0" encoding="UTF-8" standalone="no"?>
<!DOCTYPE svg PUBLIC "-//W3C//DTD SVG 1.1//EN" "http://www.w3.org/Graphics/SVG/1.1/DTD/svg11.dtd">
<svg width="100%" height="100%" viewBox="0 0 3299 315" version="1.1" xmlns="http://www.w3.org/2000/svg" xmlns:xlink="http://www.w3.org/1999/xlink" xml:space="preserve" xmlns:serif="http://www.serif.com/" style="fill-rule:evenodd;clip-rule:evenodd;stroke-linejoin:round;stroke-miterlimit:2;">
    <g transform="matrix(1,-1.16025e-32,0,0.993691,0,-126.219)">
        <g transform="matrix(410.789,0,0,410.789,-6.57262,438.399)">
            <path d="M0.016,-0.744L0.303,-0.744L0.303,-0L0.016,-0L0.016,-0.744ZM0.476,-0.744C0.526,-0.744 0.562,-0.732 0.586,-0.707C0.609,-0.682 0.621,-0.646 0.621,-0.599L0.621,-0.483C0.621,-0.452 0.617,-0.426 0.608,-0.406C0.599,-0.386 0.585,-0.371 0.567,-0.361C0.549,-0.351 0.526,-0.346 0.498,-0.346L0.444,-0.346L0.444,-0.33L0.502,-0.33C0.526,-0.33 0.546,-0.326 0.56,-0.317C0.574,-0.308 0.584,-0.296 0.59,-0.281C0.595,-0.266 0.6,-0.247 0.603,-0.223L0.625,-0L0.348,-0L0.335,-0.228L0.335,-0.577C0.335,-0.581 0.334,-0.585 0.331,-0.588C0.328,-0.59 0.325,-0.592 0.32,-0.592L0.271,-0.592L0.261,-0.744L0.476,-0.744Z" style="fill-rule:nonzero;"/>
        </g>
        <g transform="matrix(410.789,0,0,410.789,-6.57262,438.399)">
        </g>
        <g transform="matrix(410.789,0,0,410.789,252.22,438.399)">
            <path d="M0.293,-0.451L0.524,-0.451L0.524,-0.293L0.293,-0.293L0.293,-0.451ZM0.15,-0C0.107,-0 0.074,-0.012 0.051,-0.035C0.028,-0.058 0.016,-0.091 0.016,-0.134L0.016,-0.61C0.016,-0.654 0.028,-0.687 0.051,-0.71C0.074,-0.733 0.107,-0.744 0.15,-0.744L0.524,-0.744L0.524,-0.579L0.303,-0.579L0.303,-0.165L0.524,-0.165L0.524,-0L0.15,-0Z" style="fill-rule:nonzero;"/>
        </g>
        <g transform="matrix(410.789,0,0,410.789,252.22,438.399)">
        </g>
        <g transform="matrix(410.789,0,0,410.789,473.222,438.399)">
            <path d="M0.622,-0.355L0.622,-0.133C0.622,-0.084 0.611,-0.047 0.589,-0.024C0.567,0 0.532,0.012 0.485,0.012L0.153,0.012C0.105,0.012 0.07,0 0.049,-0.024C0.027,-0.047 0.016,-0.084 0.016,-0.133L0.016,-0.613C0.016,-0.662 0.027,-0.699 0.049,-0.723C0.07,-0.746 0.105,-0.758 0.153,-0.758L0.485,-0.758C0.532,-0.758 0.567,-0.746 0.589,-0.723C0.611,-0.699 0.622,-0.662 0.622,-0.613L0.622,-0.387L0.335,-0.387L0.335,-0.592C0.335,-0.595 0.334,-0.598 0.332,-0.601C0.329,-0.604 0.326,-0.605 0.322,-0.605L0.316,-0.605C0.312,-0.605 0.309,-0.604 0.307,-0.601C0.304,-0.598 0.303,-0.595 0.303,-0.592L0.303,-0.154C0.303,-0.15 0.304,-0.147 0.307,-0.145C0.309,-0.142 0.312,-0.141 0.316,-0.141L0.322,-0.141C0.326,-0.141 0.329,-0.142 0.332,-0.145C0.334,-0.147 0.335,-0.15 0.335,-0.154L0.335,-0.355L0.622,-0.355Z" style="fill-rule:nonzero;"/>
        </g>
        <g transform="matrix(410.789,0,0,410.789,735.3,438.399)">
            <path d="M0.303,-0.3L0.303,-0L0.016,-0L0.016,-0.744L0.303,-0.744L0.303,-0.444L0.321,-0.444L0.347,-0.744L0.644,-0.744L0.611,-0.491C0.607,-0.458 0.6,-0.434 0.592,-0.419C0.583,-0.403 0.57,-0.393 0.554,-0.388C0.537,-0.383 0.514,-0.38 0.483,-0.38L0.427,-0.38L0.427,-0.364L0.483,-0.364C0.511,-0.364 0.534,-0.36 0.551,-0.352C0.568,-0.343 0.581,-0.33 0.59,-0.311C0.599,-0.292 0.606,-0.266 0.611,-0.233L0.644,-0L0.347,-0L0.321,-0.3L0.303,-0.3Z" style="fill-rule:nonzero;"/>
        </g>
        <g transform="matrix(410.789,0,0,410.789,1003.13,438.399)">
            <path d="M0.153,-0C0.106,-0 0.071,-0.012 0.049,-0.035C0.027,-0.059 0.016,-0.095 0.016,-0.145L0.016,-0.744L0.303,-0.744L0.303,-0.166C0.303,-0.162 0.304,-0.159 0.307,-0.157C0.309,-0.155 0.312,-0.153 0.316,-0.153L0.413,-0.153L0.413,-0L0.153,-0Z" style="fill-rule:nonzero;"/>
        </g>
        <g transform="matrix(410.789,0,0,410.789,1181.41,438.399)">
            <path d="M0.293,-0.451L0.524,-0.451L0.524,-0.293L0.293,-0.293L0.293,-0.451ZM0.15,-0C0.107,-0 0.074,-0.012 0.051,-0.035C0.028,-0.058 0.016,-0.091 0.016,-0.134L0.016,-0.61C0.016,-0.654 0.028,-0.687 0.051,-0.71C0.074,-0.733 0.107,-0.744 0.15,-0.744L0.524,-0.744L0.524,-0.579L0.303,-0.579L0.303,-0.165L0.524,-0.165L0.524,-0L0.15,-0Z" style="fill-rule:nonzero;"/>
        </g>
        <g transform="matrix(410.789,0,0,410.789,1181.41,438.399)">
        </g>
        <g transform="matrix(410.789,0,0,410.789,1402.41,438.399)">
            <path d="M0.334,-0.469L0.334,-0.6C0.334,-0.609 0.33,-0.613 0.321,-0.613L0.315,-0.613C0.311,-0.613 0.308,-0.612 0.306,-0.61C0.303,-0.607 0.302,-0.604 0.302,-0.6L0.302,-0.471C0.302,-0.461 0.304,-0.454 0.309,-0.45C0.313,-0.446 0.32,-0.443 0.329,-0.44C0.33,-0.44 0.332,-0.44 0.335,-0.439L0.522,-0.428C0.557,-0.421 0.583,-0.406 0.599,-0.385C0.614,-0.364 0.622,-0.333 0.622,-0.292L0.622,-0.133C0.622,-0.084 0.609,-0.047 0.583,-0.024C0.556,0 0.515,0.012 0.458,0.012L0.178,0.012C0.139,0.012 0.107,0.007 0.084,-0.004C0.06,-0.015 0.043,-0.031 0.032,-0.052C0.021,-0.073 0.016,-0.1 0.016,-0.133L0.016,-0.279L0.303,-0.279L0.303,-0.147C0.303,-0.143 0.304,-0.14 0.307,-0.137C0.309,-0.134 0.312,-0.133 0.316,-0.133L0.322,-0.133C0.326,-0.133 0.329,-0.134 0.332,-0.137C0.334,-0.14 0.335,-0.143 0.335,-0.147L0.335,-0.279C0.335,-0.289 0.333,-0.296 0.328,-0.301C0.323,-0.306 0.315,-0.309 0.305,-0.31L0.302,-0.311L0.118,-0.322C0.083,-0.327 0.058,-0.34 0.041,-0.363C0.024,-0.385 0.016,-0.415 0.016,-0.452L0.016,-0.613C0.016,-0.662 0.028,-0.699 0.053,-0.723C0.077,-0.746 0.116,-0.758 0.171,-0.758L0.464,-0.758C0.519,-0.758 0.56,-0.747 0.585,-0.726C0.61,-0.705 0.622,-0.67 0.622,-0.621L0.622,-0.469L0.334,-0.469Z" style="fill-rule:nonzero;"/>
        </g>
        <g transform="matrix(410.789,0,0,410.789,1664.49,438.399)">
            <path d="M0.334,-0.469L0.334,-0.6C0.334,-0.609 0.33,-0.613 0.321,-0.613L0.315,-0.613C0.311,-0.613 0.308,-0.612 0.306,-0.61C0.303,-0.607 0.302,-0.604 0.302,-0.6L0.302,-0.471C0.302,-0.461 0.304,-0.454 0.309,-0.45C0.313,-0.446 0.32,-0.443 0.329,-0.44C0.33,-0.44 0.332,-0.44 0.335,-0.439L0.522,-0.428C0.557,-0.421 0.583,-0.406 0.599,-0.385C0.614,-0.364 0.622,-0.333 0.622,-0.292L0.622,-0.133C0.622,-0.084 0.609,-0.047 0.583,-0.024C0.556,0 0.515,0.012 0.458,0.012L0.178,0.012C0.139,0.012 0.107,0.007 0.084,-0.004C0.06,-0.015 0.043,-0.031 0.032,-0.052C0.021,-0.073 0.016,-0.1 0.016,-0.133L0.016,-0.279L0.303,-0.279L0.303,-0.147C0.303,-0.143 0.304,-0.14 0.307,-0.137C0.309,-0.134 0.312,-0.133 0.316,-0.133L0.322,-0.133C0.326,-0.133 0.329,-0.134 0.332,-0.137C0.334,-0.14 0.335,-0.143 0.335,-0.147L0.335,-0.279C0.335,-0.289 0.333,-0.296 0.328,-0.301C0.323,-0.306 0.315,-0.309 0.305,-0.31L0.302,-0.311L0.118,-0.322C0.083,-0.327 0.058,-0.34 0.041,-0.363C0.024,-0.385 0.016,-0.415 0.016,-0.452L0.016,-0.613C0.016,-0.662 0.028,-0.699 0.053,-0.723C0.077,-0.746 0.116,-0.758 0.171,-0.758L0.464,-0.758C0.519,-0.758 0.56,-0.747 0.585,-0.726C0.61,-0.705 0.622,-0.67 0.622,-0.621L0.622,-0.469L0.334,-0.469Z" style="fill-rule:nonzero;"/>
        </g>
        <g transform="matrix(410.789,0,0,410.789,1926.57,438.399)">
        </g>
        <g transform="matrix(410.789,0,0,410.789,1994.75,438.399)">
            <path d="M0.016,-0.744L0.291,-0.744L0.291,-0.641L0.301,-0.641C0.303,-0.677 0.314,-0.706 0.332,-0.726C0.35,-0.746 0.378,-0.756 0.416,-0.756L0.494,-0.756C0.523,-0.756 0.545,-0.752 0.561,-0.744C0.578,-0.736 0.59,-0.724 0.597,-0.707C0.604,-0.69 0.609,-0.668 0.61,-0.641L0.623,-0.641C0.624,-0.676 0.633,-0.704 0.651,-0.725C0.669,-0.745 0.697,-0.756 0.736,-0.756L0.819,-0.756C0.85,-0.756 0.875,-0.751 0.893,-0.741C0.911,-0.73 0.923,-0.714 0.93,-0.694C0.938,-0.673 0.941,-0.646 0.941,-0.613L0.941,-0L0.654,-0L0.654,-0.592C0.654,-0.596 0.653,-0.599 0.651,-0.602C0.648,-0.604 0.645,-0.605 0.641,-0.605L0.635,-0.605C0.626,-0.605 0.622,-0.601 0.622,-0.592L0.622,-0L0.335,-0L0.335,-0.592C0.335,-0.596 0.334,-0.599 0.332,-0.602C0.329,-0.604 0.326,-0.605 0.322,-0.605L0.316,-0.605C0.307,-0.605 0.303,-0.601 0.303,-0.592L0.303,-0L0.016,-0L0.016,-0.744Z" style="fill-rule:nonzero;"/>
        </g>
        <g transform="matrix(410.789,0,0,410.789,2387.87,438.399)">
            <path d="M0.335,-0.591C0.335,-0.595 0.334,-0.598 0.332,-0.6C0.329,-0.603 0.326,-0.604 0.322,-0.604L0.316,-0.604C0.312,-0.604 0.309,-0.603 0.307,-0.6C0.304,-0.598 0.303,-0.595 0.303,-0.591L0.303,-0.512L0.016,-0.512L0.016,-0.612C0.016,-0.661 0.028,-0.698 0.052,-0.721C0.077,-0.745 0.116,-0.757 0.171,-0.757L0.467,-0.757C0.522,-0.757 0.561,-0.745 0.586,-0.722C0.61,-0.698 0.622,-0.661 0.622,-0.612L0.622,-0.42L0.335,-0.42L0.335,-0.591ZM0.016,-0.326C0.016,-0.378 0.029,-0.417 0.055,-0.443C0.082,-0.468 0.124,-0.481 0.181,-0.481L0.622,-0.481L0.622,-0L0.347,-0L0.347,-0.105L0.337,-0.106C0.335,-0.068 0.325,-0.04 0.306,-0.019C0.288,0.001 0.26,0.011 0.222,0.012L0.138,0.012C0.107,0.012 0.082,0.007 0.064,-0.004C0.047,-0.015 0.034,-0.031 0.027,-0.052C0.02,-0.073 0.016,-0.1 0.016,-0.133L0.016,-0.326ZM0.303,-0.154C0.303,-0.15 0.304,-0.147 0.307,-0.144C0.309,-0.142 0.312,-0.141 0.316,-0.141L0.322,-0.141C0.331,-0.141 0.335,-0.145 0.335,-0.154L0.335,-0.392L0.316,-0.392C0.312,-0.392 0.309,-0.391 0.307,-0.388C0.304,-0.386 0.303,-0.383 0.303,-0.379L0.303,-0.154Z" style="fill-rule:nonzero;"/>
        </g>
        <g transform="matrix(410.789,0,0,410.789,2649.95,438.399)">
            <path d="M0.622,-0.396L0.622,-0.132C0.622,-0.083 0.61,-0.046 0.586,-0.022C0.561,0.001 0.522,0.013 0.467,0.013L0.171,0.013C0.116,0.013 0.077,0.001 0.052,-0.023C0.028,-0.046 0.016,-0.083 0.016,-0.132L0.016,-0.254L0.303,-0.254L0.303,-0.145C0.303,-0.141 0.304,-0.138 0.307,-0.135C0.309,-0.133 0.312,-0.132 0.316,-0.132L0.322,-0.132C0.326,-0.132 0.329,-0.133 0.332,-0.135C0.334,-0.138 0.335,-0.141 0.335,-0.145L0.335,-0.396L0.622,-0.396ZM0.016,-0.611C0.016,-0.644 0.02,-0.671 0.027,-0.692C0.034,-0.713 0.047,-0.729 0.064,-0.74C0.082,-0.751 0.107,-0.756 0.138,-0.756L0.222,-0.756C0.26,-0.755 0.288,-0.745 0.306,-0.725C0.325,-0.704 0.335,-0.676 0.337,-0.638L0.347,-0.639L0.347,-0.744L0.622,-0.744L0.622,-0.384L0.324,-0.384C0.323,-0.363 0.32,-0.345 0.313,-0.33C0.306,-0.316 0.295,-0.305 0.28,-0.297C0.265,-0.289 0.245,-0.285 0.221,-0.285L0.136,-0.285C0.105,-0.285 0.081,-0.29 0.063,-0.3C0.046,-0.311 0.034,-0.327 0.027,-0.348C0.02,-0.369 0.016,-0.398 0.016,-0.434L0.016,-0.611ZM0.303,-0.446C0.303,-0.443 0.304,-0.44 0.307,-0.437C0.309,-0.434 0.312,-0.433 0.316,-0.433L0.335,-0.433L0.335,-0.59C0.335,-0.594 0.334,-0.597 0.332,-0.6C0.329,-0.602 0.326,-0.603 0.322,-0.603L0.316,-0.603C0.307,-0.603 0.303,-0.599 0.303,-0.59L0.303,-0.446Z" style="fill-rule:nonzero;"/>
        </g>
        <g transform="matrix(410.789,0,0,410.789,2912.03,438.399)">
            <path d="M0.016,-0.557L0.303,-0.557L0.303,-0L0.016,-0L0.016,-0.557ZM0.304,-0.623C0.299,-0.602 0.282,-0.589 0.253,-0.587C0.234,-0.585 0.203,-0.584 0.16,-0.584C0.117,-0.584 0.085,-0.585 0.066,-0.587C0.051,-0.588 0.039,-0.592 0.031,-0.598C0.022,-0.604 0.017,-0.612 0.015,-0.623C0.012,-0.632 0.011,-0.644 0.011,-0.661L0.011,-0.682C0.011,-0.697 0.012,-0.709 0.015,-0.717C0.019,-0.738 0.036,-0.751 0.065,-0.754C0.085,-0.755 0.117,-0.756 0.16,-0.756C0.203,-0.756 0.234,-0.755 0.253,-0.754C0.282,-0.751 0.299,-0.739 0.304,-0.718C0.307,-0.708 0.308,-0.694 0.308,-0.673L0.308,-0.67C0.308,-0.662 0.307,-0.654 0.307,-0.646C0.306,-0.638 0.306,-0.63 0.304,-0.623Z" style="fill-rule:nonzero;"/>
        </g>
        <g transform="matrix(410.789,0,0,410.789,3043.06,438.399)">
            <path d="M0.622,-0.355L0.622,-0.133C0.622,-0.084 0.611,-0.047 0.589,-0.024C0.567,0 0.532,0.012 0.485,0.012L0.153,0.012C0.105,0.012 0.07,0 0.049,-0.024C0.027,-0.047 0.016,-0.084 0.016,-0.133L0.016,-0.613C0.016,-0.662 0.027,-0.699 0.049,-0.723C0.07,-0.746 0.105,-0.758 0.153,-0.758L0.485,-0.758C0.532,-0.758 0.567,-0.746 0.589,-0.723C0.611,-0.699 0.622,-0.662 0.622,-0.613L0.622,-0.387L0.335,-0.387L0.335,-0.592C0.335,-0.595 0.334,-0.598 0.332,-0.601C0.329,-0.604 0.326,-0.605 0.322,-0.605L0.316,-0.605C0.312,-0.605 0.309,-0.604 0.307,-0.601C0.304,-0.598 0.303,-0.595 0.303,-0.592L0.303,-0.154C0.303,-0.15 0.304,-0.147 0.307,-0.145C0.309,-0.142 0.312,-0.141 0.316,-0.141L0.322,-0.141C0.326,-0.141 0.329,-0.142 0.332,-0.145C0.334,-0.147 0.335,-0.15 0.335,-0.154L0.335,-0.355L0.622,-0.355Z" style="fill-rule:nonzero;"/>
        </g>
        <g transform="matrix(410.789,0,0,410.789,3305.14,438.399)">
        </g>
    </g>
</svg>
