<?xml version="1.0" encoding="UTF-8" standalone="no"?>
<!DOCTYPE svg PUBLIC "-//W3C//DTD SVG 1.1//EN" "http://www.w3.org/Graphics/SVG/1.1/DTD/svg11.dtd">
<svg width="100%" height="100%" viewBox="0 0 1920 915" version="1.1" xmlns="http://www.w3.org/2000/svg" xmlns:xlink="http://www.w3.org/1999/xlink" xml:space="preserve" xmlns:serif="http://www.serif.com/" style="fill-rule:evenodd;clip-rule:evenodd;stroke-linejoin:round;stroke-miterlimit:2;">
    <rect id="Artboard8" x="0" y="0" width="1920" height="914.957" style="fill:none;"/>
    <clipPath id="_clip1">
        <rect x="0" y="0" width="1920" height="914.957"/>
    </clipPath>
    <g clip-path="url(#_clip1)">
        <g transform="matrix(1,-1.16025e-32,0,0.993691,0,-126.219)">
            <g transform="matrix(410.789,0,0,410.789,-6.57262,438.399)">
                <path d="M0.016,-0.744L0.303,-0.744L0.303,-0L0.016,-0L0.016,-0.744ZM0.476,-0.744C0.526,-0.744 0.562,-0.732 0.586,-0.707C0.609,-0.682 0.621,-0.646 0.621,-0.599L0.621,-0.483C0.621,-0.452 0.617,-0.426 0.608,-0.406C0.599,-0.386 0.585,-0.371 0.567,-0.361C0.549,-0.351 0.526,-0.346 0.498,-0.346L0.444,-0.346L0.444,-0.33L0.502,-0.33C0.526,-0.33 0.546,-0.326 0.56,-0.317C0.574,-0.308 0.584,-0.296 0.59,-0.281C0.595,-0.266 0.6,-0.247 0.603,-0.223L0.625,-0L0.348,-0L0.335,-0.228L0.335,-0.577C0.335,-0.581 0.334,-0.585 0.331,-0.588C0.328,-0.59 0.325,-0.592 0.32,-0.592L0.271,-0.592L0.261,-0.744L0.476,-0.744Z" style="fill-rule:nonzero;"/>
            </g>
            <g transform="matrix(410.789,0,0,410.789,-6.57262,438.399)">
            </g>
            <g transform="matrix(410.789,0,0,410.789,252.22,438.399)">
                <path d="M0.293,-0.451L0.524,-0.451L0.524,-0.293L0.293,-0.293L0.293,-0.451ZM0.15,-0C0.107,-0 0.074,-0.012 0.051,-0.035C0.028,-0.058 0.016,-0.091 0.016,-0.134L0.016,-0.61C0.016,-0.654 0.028,-0.687 0.051,-0.71C0.074,-0.733 0.107,-0.744 0.15,-0.744L0.524,-0.744L0.524,-0.579L0.303,-0.579L0.303,-0.165L0.524,-0.165L0.524,-0L0.15,-0Z" style="fill-rule:nonzero;"/>
            </g>
            <g transform="matrix(410.789,0,0,410.789,252.22,438.399)">
            </g>
            <g transform="matrix(410.789,0,0,410.789,473.222,438.399)">
                <path d="M0.622,-0.355L0.622,-0.133C0.622,-0.084 0.611,-0.047 0.589,-0.024C0.567,0 0.532,0.012 0.485,0.012L0.153,0.012C0.105,0.012 0.07,0 0.049,-0.024C0.027,-0.047 0.016,-0.084 0.016,-0.133L0.016,-0.613C0.016,-0.662 0.027,-0.699 0.049,-0.723C0.07,-0.746 0.105,-0.758 0.153,-0.758L0.485,-0.758C0.532,-0.758 0.567,-0.746 0.589,-0.723C0.611,-0.699 0.622,-0.662 0.622,-0.613L0.622,-0.387L0.335,-0.387L0.335,-0.592C0.335,-0.595 0.334,-0.598 0.332,-0.601C0.329,-0.604 0.326,-0.605 0.322,-0.605L0.316,-0.605C0.312,-0.605 0.309,-0.604 0.307,-0.601C0.304,-0.598 0.303,-0.595 0.303,-0.592L0.303,-0.154C0.303,-0.15 0.304,-0.147 0.307,-0.145C0.309,-0.142 0.312,-0.141 0.316,-0.141L0.322,-0.141C0.326,-0.141 0.329,-0.142 0.332,-0.145C0.334,-0.147 0.335,-0.15 0.335,-0.154L0.335,-0.355L0.622,-0.355Z" style="fill-rule:nonzero;"/>
            </g>
            <g transform="matrix(410.789,0,0,410.789,735.3,438.399)">
                <path d="M0.303,-0.3L0.303,-0L0.016,-0L0.016,-0.744L0.303,-0.744L0.303,-0.444L0.321,-0.444L0.347,-0.744L0.644,-0.744L0.611,-0.491C0.607,-0.458 0.6,-0.434 0.592,-0.419C0.583,-0.403 0.57,-0.393 0.554,-0.388C0.537,-0.383 0.514,-0.38 0.483,-0.38L0.427,-0.38L0.427,-0.364L0.483,-0.364C0.511,-0.364 0.534,-0.36 0.551,-0.352C0.568,-0.343 0.581,-0.33 0.59,-0.311C0.599,-0.292 0.606,-0.266 0.611,-0.233L0.644,-0L0.347,-0L0.321,-0.3L0.303,-0.3Z" style="fill-rule:nonzero;"/>
            </g>
            <g transform="matrix(410.789,0,0,410.789,1003.13,438.399)">
                <path d="M0.153,-0C0.106,-0 0.071,-0.012 0.049,-0.035C0.027,-0.059 0.016,-0.095 0.016,-0.145L0.016,-0.744L0.303,-0.744L0.303,-0.166C0.303,-0.162 0.304,-0.159 0.307,-0.157C0.309,-0.155 0.312,-0.153 0.316,-0.153L0.413,-0.153L0.413,-0L0.153,-0Z" style="fill-rule:nonzero;"/>
            </g>
            <g transform="matrix(410.789,0,0,410.789,1181.41,438.399)">
                <path d="M0.293,-0.451L0.524,-0.451L0.524,-0.293L0.293,-0.293L0.293,-0.451ZM0.15,-0C0.107,-0 0.074,-0.012 0.051,-0.035C0.028,-0.058 0.016,-0.091 0.016,-0.134L0.016,-0.61C0.016,-0.654 0.028,-0.687 0.051,-0.71C0.074,-0.733 0.107,-0.744 0.15,-0.744L0.524,-0.744L0.524,-0.579L0.303,-0.579L0.303,-0.165L0.524,-0.165L0.524,-0L0.15,-0Z" style="fill-rule:nonzero;"/>
            </g>
            <g transform="matrix(410.789,0,0,410.789,1181.41,438.399)">
            </g>
            <g transform="matrix(410.789,0,0,410.789,1402.41,438.399)">
                <path d="M0.334,-0.469L0.334,-0.6C0.334,-0.609 0.33,-0.613 0.321,-0.613L0.315,-0.613C0.311,-0.613 0.308,-0.612 0.306,-0.61C0.303,-0.607 0.302,-0.604 0.302,-0.6L0.302,-0.471C0.302,-0.461 0.304,-0.454 0.309,-0.45C0.313,-0.446 0.32,-0.443 0.329,-0.44C0.33,-0.44 0.332,-0.44 0.335,-0.439L0.522,-0.428C0.557,-0.421 0.583,-0.406 0.599,-0.385C0.614,-0.364 0.622,-0.333 0.622,-0.292L0.622,-0.133C0.622,-0.084 0.609,-0.047 0.583,-0.024C0.556,0 0.515,0.012 0.458,0.012L0.178,0.012C0.139,0.012 0.107,0.007 0.084,-0.004C0.06,-0.015 0.043,-0.031 0.032,-0.052C0.021,-0.073 0.016,-0.1 0.016,-0.133L0.016,-0.279L0.303,-0.279L0.303,-0.147C0.303,-0.143 0.304,-0.14 0.307,-0.137C0.309,-0.134 0.312,-0.133 0.316,-0.133L0.322,-0.133C0.326,-0.133 0.329,-0.134 0.332,-0.137C0.334,-0.14 0.335,-0.143 0.335,-0.147L0.335,-0.279C0.335,-0.289 0.333,-0.296 0.328,-0.301C0.323,-0.306 0.315,-0.309 0.305,-0.31L0.302,-0.311L0.118,-0.322C0.083,-0.327 0.058,-0.34 0.041,-0.363C0.024,-0.385 0.016,-0.415 0.016,-0.452L0.016,-0.613C0.016,-0.662 0.028,-0.699 0.053,-0.723C0.077,-0.746 0.116,-0.758 0.171,-0.758L0.464,-0.758C0.519,-0.758 0.56,-0.747 0.585,-0.726C0.61,-0.705 0.622,-0.67 0.622,-0.621L0.622,-0.469L0.334,-0.469Z" style="fill-rule:nonzero;"/>
            </g>
            <g transform="matrix(410.789,0,0,410.789,1664.49,438.399)">
                <path d="M0.334,-0.469L0.334,-0.6C0.334,-0.609 0.33,-0.613 0.321,-0.613L0.315,-0.613C0.311,-0.613 0.308,-0.612 0.306,-0.61C0.303,-0.607 0.302,-0.604 0.302,-0.6L0.302,-0.471C0.302,-0.461 0.304,-0.454 0.309,-0.45C0.313,-0.446 0.32,-0.443 0.329,-0.44C0.33,-0.44 0.332,-0.44 0.335,-0.439L0.522,-0.428C0.557,-0.421 0.583,-0.406 0.599,-0.385C0.614,-0.364 0.622,-0.333 0.622,-0.292L0.622,-0.133C0.622,-0.084 0.609,-0.047 0.583,-0.024C0.556,0 0.515,0.012 0.458,0.012L0.178,0.012C0.139,0.012 0.107,0.007 0.084,-0.004C0.06,-0.015 0.043,-0.031 0.032,-0.052C0.021,-0.073 0.016,-0.1 0.016,-0.133L0.016,-0.279L0.303,-0.279L0.303,-0.147C0.303,-0.143 0.304,-0.14 0.307,-0.137C0.309,-0.134 0.312,-0.133 0.316,-0.133L0.322,-0.133C0.326,-0.133 0.329,-0.134 0.332,-0.137C0.334,-0.14 0.335,-0.143 0.335,-0.147L0.335,-0.279C0.335,-0.289 0.333,-0.296 0.328,-0.301C0.323,-0.306 0.315,-0.309 0.305,-0.31L0.302,-0.311L0.118,-0.322C0.083,-0.327 0.058,-0.34 0.041,-0.363C0.024,-0.385 0.016,-0.415 0.016,-0.452L0.016,-0.613C0.016,-0.662 0.028,-0.699 0.053,-0.723C0.077,-0.746 0.116,-0.758 0.171,-0.758L0.464,-0.758C0.519,-0.758 0.56,-0.747 0.585,-0.726C0.61,-0.705 0.622,-0.67 0.622,-0.621L0.622,-0.469L0.334,-0.469Z" style="fill-rule:nonzero;"/>
            </g>
            <g transform="matrix(410.789,0,0,410.789,1926.57,438.399)">
            </g>
        </g>
        <g transform="matrix(732.274,0,0,732.274,-11.7164,903.122)">
            <path d="M0.016,-0.744L0.237,-0.744L0.237,-0.647L0.246,-0.647C0.248,-0.681 0.258,-0.708 0.275,-0.727C0.291,-0.746 0.317,-0.756 0.352,-0.756L0.401,-0.756C0.426,-0.756 0.445,-0.752 0.46,-0.745C0.475,-0.737 0.485,-0.725 0.492,-0.709C0.499,-0.693 0.503,-0.672 0.504,-0.647L0.515,-0.647C0.516,-0.68 0.525,-0.707 0.541,-0.726C0.558,-0.746 0.583,-0.756 0.617,-0.756L0.67,-0.756C0.698,-0.756 0.72,-0.751 0.736,-0.742C0.752,-0.732 0.763,-0.717 0.77,-0.698C0.777,-0.678 0.78,-0.653 0.78,-0.622L0.78,-0L0.547,-0L0.547,-0.605C0.547,-0.609 0.546,-0.612 0.543,-0.614C0.541,-0.617 0.538,-0.618 0.534,-0.618L0.528,-0.618C0.519,-0.618 0.515,-0.613 0.515,-0.605L0.515,-0L0.281,-0L0.281,-0.605C0.281,-0.609 0.28,-0.612 0.278,-0.614C0.276,-0.617 0.272,-0.618 0.268,-0.618L0.262,-0.618C0.254,-0.618 0.249,-0.613 0.249,-0.605L0.249,-0L0.016,-0L0.016,-0.744Z" style="fill-rule:nonzero;"/>
        </g>
        <g transform="matrix(732.274,0,0,732.274,571.166,903.122)">
            <path d="M0.281,-0.603C0.281,-0.607 0.28,-0.61 0.278,-0.613C0.276,-0.615 0.272,-0.616 0.268,-0.616L0.262,-0.616C0.258,-0.616 0.255,-0.615 0.253,-0.613C0.251,-0.61 0.249,-0.607 0.249,-0.603L0.249,-0.52L0.016,-0.52L0.016,-0.621C0.016,-0.668 0.027,-0.702 0.05,-0.724C0.073,-0.746 0.111,-0.757 0.164,-0.757L0.367,-0.757C0.419,-0.757 0.457,-0.746 0.48,-0.724C0.503,-0.702 0.515,-0.668 0.515,-0.621L0.515,-0.418L0.281,-0.418L0.281,-0.603ZM0.016,-0.343C0.016,-0.392 0.029,-0.429 0.054,-0.453C0.079,-0.477 0.118,-0.489 0.172,-0.489L0.515,-0.489L0.515,-0L0.293,-0L0.293,-0.099L0.285,-0.099C0.283,-0.064 0.273,-0.037 0.256,-0.018C0.239,0.002 0.213,0.012 0.179,0.012L0.126,0.012C0.099,0.012 0.077,0.007 0.061,-0.003C0.044,-0.013 0.033,-0.028 0.026,-0.048C0.019,-0.067 0.016,-0.093 0.016,-0.124L0.016,-0.343ZM0.249,-0.141C0.249,-0.137 0.251,-0.134 0.253,-0.132C0.255,-0.129 0.258,-0.128 0.262,-0.128L0.268,-0.128C0.277,-0.128 0.281,-0.133 0.281,-0.141L0.281,-0.389L0.262,-0.389C0.258,-0.389 0.255,-0.387 0.253,-0.385C0.251,-0.382 0.249,-0.379 0.249,-0.376L0.249,-0.141Z" style="fill-rule:nonzero;"/>
        </g>
        <g transform="matrix(732.274,0,0,732.274,959.997,903.122)">
            <path d="M0.515,-0.398L0.515,-0.123C0.515,-0.076 0.503,-0.042 0.48,-0.02C0.457,0.002 0.419,0.013 0.367,0.013L0.164,0.013C0.111,0.013 0.073,0.002 0.05,-0.02C0.027,-0.042 0.016,-0.076 0.016,-0.123L0.016,-0.256L0.249,-0.256L0.249,-0.136C0.249,-0.132 0.251,-0.129 0.253,-0.126C0.255,-0.124 0.258,-0.123 0.262,-0.123L0.268,-0.123C0.272,-0.123 0.276,-0.124 0.278,-0.126C0.28,-0.129 0.281,-0.132 0.281,-0.136L0.281,-0.398L0.515,-0.398ZM0.016,-0.62C0.016,-0.651 0.019,-0.677 0.026,-0.696C0.033,-0.716 0.044,-0.731 0.061,-0.741C0.077,-0.751 0.099,-0.756 0.126,-0.756L0.179,-0.756C0.213,-0.756 0.239,-0.746 0.256,-0.726C0.273,-0.707 0.283,-0.68 0.285,-0.645L0.293,-0.645L0.293,-0.744L0.515,-0.744L0.515,-0.386L0.272,-0.386C0.272,-0.365 0.268,-0.348 0.261,-0.333C0.255,-0.318 0.244,-0.307 0.23,-0.299C0.217,-0.291 0.199,-0.287 0.178,-0.287L0.124,-0.287C0.097,-0.287 0.075,-0.292 0.059,-0.301C0.044,-0.311 0.033,-0.325 0.026,-0.345C0.019,-0.365 0.016,-0.392 0.016,-0.426L0.016,-0.62ZM0.249,-0.445C0.249,-0.441 0.251,-0.438 0.253,-0.436C0.255,-0.433 0.258,-0.432 0.262,-0.432L0.281,-0.432L0.281,-0.603C0.281,-0.607 0.28,-0.61 0.278,-0.612C0.276,-0.615 0.272,-0.616 0.268,-0.616L0.262,-0.616C0.254,-0.616 0.249,-0.611 0.249,-0.603L0.249,-0.445Z" style="fill-rule:nonzero;"/>
        </g>
        <g transform="matrix(732.274,0,0,732.274,1348.83,903.122)">
            <path d="M0.016,-0.57L0.249,-0.57L0.249,-0L0.016,-0L0.016,-0.57ZM0.251,-0.633C0.246,-0.613 0.232,-0.602 0.207,-0.599C0.191,-0.598 0.166,-0.597 0.133,-0.597C0.099,-0.597 0.074,-0.598 0.058,-0.599C0.046,-0.601 0.035,-0.604 0.028,-0.61C0.021,-0.615 0.016,-0.623 0.014,-0.633C0.012,-0.64 0.011,-0.652 0.011,-0.668L0.011,-0.687C0.011,-0.702 0.012,-0.713 0.014,-0.72C0.018,-0.739 0.032,-0.751 0.058,-0.754C0.074,-0.755 0.099,-0.756 0.133,-0.756C0.166,-0.756 0.191,-0.755 0.206,-0.754C0.231,-0.751 0.246,-0.74 0.251,-0.721C0.253,-0.712 0.254,-0.698 0.254,-0.68L0.254,-0.676C0.254,-0.669 0.254,-0.662 0.253,-0.654C0.253,-0.647 0.252,-0.64 0.251,-0.633Z" style="fill-rule:nonzero;"/>
        </g>
        <g transform="matrix(732.274,0,0,732.274,1542.88,903.122)">
            <path d="M0.515,-0.355L0.515,-0.124C0.515,-0.077 0.505,-0.042 0.485,-0.021C0.465,0.001 0.433,0.012 0.388,0.012L0.143,0.012C0.098,0.012 0.066,0.001 0.046,-0.021C0.026,-0.042 0.016,-0.077 0.016,-0.124L0.016,-0.622C0.016,-0.669 0.026,-0.704 0.046,-0.726C0.066,-0.747 0.098,-0.758 0.143,-0.758L0.388,-0.758C0.433,-0.758 0.465,-0.747 0.485,-0.726C0.505,-0.704 0.515,-0.669 0.515,-0.622L0.515,-0.387L0.281,-0.387L0.281,-0.604C0.281,-0.607 0.28,-0.61 0.278,-0.613C0.275,-0.616 0.272,-0.617 0.268,-0.617L0.262,-0.617C0.258,-0.617 0.255,-0.616 0.253,-0.613C0.25,-0.61 0.249,-0.607 0.249,-0.604L0.249,-0.142C0.249,-0.138 0.25,-0.135 0.253,-0.133C0.255,-0.13 0.258,-0.129 0.262,-0.129L0.268,-0.129C0.272,-0.129 0.275,-0.13 0.278,-0.133C0.28,-0.135 0.281,-0.138 0.281,-0.142L0.281,-0.355L0.515,-0.355Z" style="fill-rule:nonzero;"/>
        </g>
        <g transform="matrix(732.274,0,0,732.274,1931.71,903.122)">
        </g>
    </g>
</svg>
