<?xml version="1.0" encoding="UTF-8" standalone="no"?>
<!DOCTYPE svg PUBLIC "-//W3C//DTD SVG 1.1//EN" "http://www.w3.org/Graphics/SVG/1.1/DTD/svg11.dtd">
<svg width="100%" height="100%" viewBox="0 0 1886 346" version="1.1" xmlns="http://www.w3.org/2000/svg" xmlns:xlink="http://www.w3.org/1999/xlink" xml:space="preserve" xmlns:serif="http://www.serif.com/" style="fill-rule:evenodd;clip-rule:evenodd;stroke-linejoin:round;stroke-miterlimit:2;">
    <g transform="matrix(1,0,0,1,-285.685,-195.009)">
        <path d="M682.369,469.698L795.951,469.698C889.508,469.698 939.222,418.949 939.222,342.308C939.222,262.559 881.223,228.036 806.308,228.036L682.369,228.036C675.12,228.036 671.667,232.869 671.667,238.393C671.667,244.262 675.12,247.714 681.334,252.202L689.274,258.071C696.869,263.595 699.976,268.083 699.976,283.964L699.976,413.771C699.976,429.651 696.869,434.139 689.274,439.663L681.334,445.532C675.12,450.02 671.667,453.472 671.667,459.341C671.667,464.865 675.12,469.698 682.369,469.698ZM766.951,415.842L766.951,281.892C766.951,269.809 770.403,262.559 784.213,262.559L798.367,262.559C837.378,262.559 867.759,293.63 867.759,353.01C867.759,404.104 844.283,435.175 797.677,435.175L784.213,435.175C770.403,435.175 766.951,427.925 766.951,415.842Z" style="fill:white;fill-rule:nonzero;"/>
        <path d="M1025.88,475.222C1081.81,475.222 1120.82,437.592 1120.82,383.39C1120.82,327.463 1081.81,288.797 1025.88,288.797C969.952,288.797 930.941,326.427 930.941,383.39C930.941,437.592 969.607,475.222 1025.88,475.222ZM993.083,354.391C993.083,335.748 999.642,319.522 1015.87,319.522C1040.72,319.522 1057.64,364.403 1057.64,406.176C1057.64,425.854 1052.12,443.461 1034.86,443.461C1010.34,443.461 993.083,400.997 993.083,354.391Z" style="fill:white;fill-rule:nonzero;"/>
        <path d="M1174.67,471.424C1199.87,471.424 1207.47,465.21 1212.64,446.913L1232.67,375.795L1253.04,446.913C1257.87,465.21 1266.5,471.424 1292.05,471.424C1316.9,471.424 1324.15,464.865 1330.02,446.913L1365.24,338.165C1368.35,328.498 1370.76,324.701 1375.6,320.558L1379.05,316.761C1382.15,313.308 1384.23,309.511 1384.23,304.332C1384.23,299.499 1380.43,293.975 1370.76,293.975L1323.81,293.975C1315.52,293.975 1313.11,299.844 1313.11,305.023C1313.11,310.201 1315.52,313.999 1320.36,318.832L1324.15,321.594C1330.37,327.463 1331.75,331.951 1328.64,341.962L1308.27,411.009L1281.69,311.927C1278.93,300.88 1269.95,295.701 1249.93,295.701C1228.53,295.701 1220.93,300.88 1218.17,311.927L1190.55,411.009L1170.87,341.962C1167.77,331.606 1169.84,326.772 1175.7,321.594L1179.16,318.832C1183.99,314.344 1186.41,309.856 1186.41,303.642C1186.41,299.154 1184.34,293.975 1175.7,293.975L1095.96,293.975C1086.64,293.975 1083.18,299.844 1083.18,305.368C1083.18,310.546 1084.56,313.308 1089.74,318.832L1091.81,320.558C1096.65,325.046 1099.06,328.153 1102.17,338.165L1137.38,446.913C1143.25,465.21 1150.85,471.424 1174.67,471.424Z" style="fill:white;fill-rule:nonzero;"/>
        <path d="M1583.42,540.125C1621.39,540.125 1644.87,524.59 1644.87,505.257C1644.87,492.829 1637.28,484.198 1626.23,484.198C1606.55,484.198 1594.47,511.816 1576.86,511.816C1560.63,511.816 1553.38,497.317 1553.38,469.008L1553.38,351.284C1553.38,304.677 1532.67,288.452 1502.64,288.452C1477.09,288.452 1456.38,300.535 1442.57,319.868L1442.57,300.535C1442.57,292.594 1438.42,289.833 1430.83,291.559L1376.97,302.951C1366.96,305.023 1364.89,311.237 1364.89,316.07C1364.89,321.249 1366.96,324.01 1373.17,329.534L1376.28,330.915C1382.15,335.748 1385.26,338.855 1385.26,348.867L1385.26,425.854C1385.26,435.52 1383.19,438.973 1378.01,443.115L1375.25,444.496C1367.65,451.401 1365.58,454.163 1365.58,459.341C1365.58,464.174 1369.03,469.698 1378.35,469.698L1450.16,469.698C1460.52,469.698 1464.32,463.829 1464.32,457.27C1464.32,452.437 1463.28,449.675 1458.79,444.842L1456.03,443.115C1451.54,438.627 1448.78,435.865 1448.78,425.854L1448.78,361.986C1448.78,342.998 1462.59,332.296 1474.33,332.296C1485.37,332.296 1489.86,340.236 1489.86,356.462L1489.86,433.449C1489.86,511.126 1534.05,540.125 1583.42,540.125Z" style="fill:white;fill-rule:nonzero;"/>
        <path d="M1561.33,469.698L1638.32,469.698C1647.98,469.698 1651.44,464.174 1651.44,459.341C1651.44,454.163 1649.02,451.401 1643.5,446.568L1638.66,443.115C1633.83,438.973 1631.76,436.211 1631.76,425.854L1631.76,206.632C1631.76,196.62 1627.27,193.168 1617.6,195.929L1559.6,212.155C1550.63,214.572 1547.87,219.405 1547.87,224.929C1547.87,230.107 1549.94,232.524 1555.46,237.703L1559.26,240.119C1565.13,244.607 1568.24,249.095 1568.24,262.214L1568.24,425.854C1568.24,436.211 1565.82,438.973 1560.99,443.115L1556.15,446.568C1550.97,451.401 1548.56,454.163 1548.56,459.341C1548.56,464.174 1551.66,469.698 1561.33,469.698Z" style="fill:white;fill-rule:nonzero;"/>
        <path d="M1722.9,475.222C1778.83,475.222 1817.84,437.592 1817.84,383.39C1817.84,327.463 1778.83,288.797 1722.9,288.797C1666.97,288.797 1627.96,326.427 1627.96,383.39C1627.96,437.592 1666.63,475.222 1722.9,475.222ZM1690.1,354.391C1690.1,335.748 1696.66,319.522 1712.89,319.522C1737.75,319.522 1754.66,364.403 1754.66,406.176C1754.66,425.854 1749.14,443.461 1731.88,443.461C1707.36,443.461 1690.1,400.997 1690.1,354.391Z" style="fill:white;fill-rule:nonzero;"/>
        <path d="M1934.53,469.698L1976.65,469.698C1985.97,469.698 1989.42,464.174 1989.42,459.341C1989.42,453.818 1987.01,451.056 1980.1,444.496L1977.34,443.115C1972.16,438.627 1969.74,435.52 1969.74,425.854L1969.74,361.641C1969.74,307.785 1944.89,288.452 1898.28,288.797C1862.72,288.797 1809.9,304.677 1809.9,337.129C1809.9,350.593 1818.19,361.295 1834.76,360.95C1848.22,360.605 1856.51,355.427 1866.17,339.891C1874.46,326.082 1882.4,319.177 1892.07,319.177C1900.35,319.177 1906.22,323.665 1906.22,340.927L1906.22,360.95C1841.32,368.891 1806.79,388.224 1806.79,428.616C1806.79,458.306 1825.78,475.567 1856.51,475.222C1883.78,474.877 1902.42,461.758 1913.12,444.496L1913.12,445.877C1913.12,463.484 1918.99,469.698 1934.53,469.698ZM1863.76,417.568C1863.76,402.723 1877.91,390.985 1906.22,385.807L1906.22,396.164C1906.22,421.021 1895.17,434.139 1880.33,434.139C1868.94,434.139 1863.76,427.58 1863.76,417.568Z" style="fill:white;fill-rule:nonzero;"/>
        <path d="M2043.62,475.222C2071.24,475.222 2090.57,461.067 2100.93,442.425L2100.93,454.853C2100.93,463.484 2104.73,469.698 2112.67,469.698L2158.24,469.698C2167.56,469.698 2171.01,464.52 2171.01,458.651C2171.01,452.782 2168.25,450.02 2162.72,445.532L2157.89,442.425C2152.71,438.627 2150.3,434.485 2150.3,425.509L2150.3,206.286C2150.3,196.62 2145.81,193.168 2135.8,195.929L2077.45,212.155C2069.17,214.227 2065.72,218.715 2065.72,224.929C2065.72,230.107 2067.79,232.524 2073.31,237.703L2077.8,240.464C2083.32,244.952 2086.08,249.095 2086.08,262.214L2086.08,302.261C2075.04,293.975 2060.19,288.797 2043.97,288.797C2000.12,288.797 1965.94,322.284 1965.94,385.807C1965.94,443.461 2000.12,475.222 2043.62,475.222ZM2029.12,368.545C2029.12,338.51 2039.13,320.213 2056.05,320.213C2072.27,320.213 2086.08,335.748 2086.08,374.759L2086.08,402.033C2086.08,422.747 2079.18,441.044 2062.26,441.044C2039.48,441.044 2029.12,406.866 2029.12,368.545Z" style="fill:white;fill-rule:nonzero;"/>
        <path d="M338.854,338.549C337.946,338.71 337.013,338.549 336.06,338.549L320.088,338.549C315.309,338.549 310.688,337.081 307.062,333.968C306.535,333.512 305.992,333.075 305.433,332.659L296.457,325.478C289.276,319.644 285.685,316.502 285.685,310.218C285.685,303.808 288.904,298.402 295.342,297.407C296.239,297.287 297.155,297.407 298.085,297.407L335.679,297.407C336.714,297.247 337.774,297.407 338.854,297.407L492.165,297.407C520.634,297.408 544.059,320.833 544.06,349.302L543.972,349.302L543.972,349.306L544.06,349.306C544.06,363.064 538.589,376.273 528.86,386.001C519.132,395.73 505.923,401.201 492.165,401.201L448.413,401.201C424.931,401.201 405.895,420.237 405.895,443.719L405.895,449.466C405.895,460.819 396.678,470.037 385.324,470.037C373.971,470.037 364.753,460.819 364.753,449.466L364.753,443.719C364.753,397.515 402.209,360.059 448.413,360.059L492.165,360.059C495.017,360.059 497.752,358.926 499.768,356.91C501.776,354.902 502.906,352.766 502.918,349.302C502.918,346.451 501.784,343.714 499.768,341.699C497.753,339.683 495.016,338.549 492.165,338.549L338.854,338.549ZM492.165,269.714L402.293,269.714C397.515,269.713 392.892,268 389.267,264.888C388.74,264.432 388.197,263.995 387.638,263.579L378.662,256.398C371.481,250.564 367.89,247.422 367.89,241.138C367.89,234.728 371.109,229.748 377.546,228.753C378.456,228.632 379.372,228.571 380.29,228.571C380.29,228.571 492.166,228.571 492.166,228.571C558.397,228.571 612.896,283.07 612.896,349.301C612.896,349.301 612.896,349.306 612.896,349.306C612.894,415.536 558.395,470.035 492.165,470.037L454.16,470.037C442.807,470.037 433.589,460.819 433.589,449.466C433.589,438.112 442.807,428.895 454.16,428.895L492.165,428.895C535.826,428.894 571.753,392.967 571.754,349.306L571.754,349.302C571.754,328.202 563.363,307.944 548.443,293.024C533.523,278.105 513.265,269.714 492.165,269.714Z" style="fill:white;"/>
        <g transform="matrix(130.946,0,0,130.946,927.609,274.874)">
            <path d="M0.187,0L0.388,0C0.402,0 0.41,-0.009 0.41,-0.018C0.41,-0.026 0.405,-0.035 0.39,-0.042L0.374,-0.051C0.345,-0.065 0.336,-0.073 0.336,-0.106L0.336,-0.472L0.404,-0.472C0.453,-0.472 0.472,-0.46 0.487,-0.421L0.504,-0.378C0.511,-0.362 0.518,-0.356 0.531,-0.356C0.544,-0.356 0.553,-0.364 0.553,-0.382L0.553,-0.499C0.553,-0.526 0.542,-0.533 0.513,-0.533L0.061,-0.533C0.033,-0.533 0.021,-0.526 0.021,-0.499L0.021,-0.382C0.021,-0.363 0.031,-0.356 0.044,-0.356C0.057,-0.356 0.064,-0.363 0.071,-0.378L0.087,-0.421C0.103,-0.459 0.12,-0.472 0.17,-0.472L0.238,-0.472L0.238,-0.106C0.238,-0.074 0.23,-0.065 0.201,-0.051L0.184,-0.042C0.169,-0.034 0.165,-0.026 0.165,-0.018C0.165,-0.008 0.172,0 0.187,0Z" style="fill:white;fill-rule:nonzero;"/>
        </g>
        <g transform="matrix(130.946,0,0,130.946,992.427,274.874)">
            <path d="M0.434,0L0.622,0C0.636,0 0.644,-0.009 0.644,-0.018C0.644,-0.027 0.638,-0.034 0.624,-0.042L0.608,-0.052C0.586,-0.065 0.575,-0.07 0.575,-0.102L0.575,-0.431C0.575,-0.462 0.585,-0.468 0.608,-0.481L0.624,-0.491C0.637,-0.499 0.644,-0.507 0.644,-0.516C0.644,-0.525 0.636,-0.533 0.622,-0.533L0.434,-0.533C0.42,-0.533 0.412,-0.525 0.412,-0.515C0.412,-0.504 0.42,-0.496 0.432,-0.488L0.445,-0.481C0.467,-0.469 0.477,-0.462 0.477,-0.431L0.477,-0.305L0.211,-0.305L0.211,-0.431C0.211,-0.462 0.221,-0.469 0.243,-0.481L0.256,-0.488C0.27,-0.497 0.276,-0.505 0.276,-0.515C0.276,-0.525 0.268,-0.533 0.254,-0.533L0.067,-0.533C0.053,-0.533 0.046,-0.525 0.046,-0.516C0.046,-0.505 0.053,-0.498 0.064,-0.491L0.081,-0.481C0.104,-0.469 0.113,-0.462 0.113,-0.431L0.113,-0.102C0.113,-0.07 0.103,-0.064 0.081,-0.052L0.064,-0.042C0.051,-0.035 0.046,-0.027 0.046,-0.018C0.046,-0.009 0.053,0 0.067,0L0.254,0C0.268,0 0.276,-0.008 0.276,-0.019C0.276,-0.028 0.27,-0.037 0.256,-0.045L0.243,-0.052C0.22,-0.065 0.211,-0.072 0.211,-0.102L0.211,-0.242L0.477,-0.242L0.477,-0.102C0.477,-0.072 0.467,-0.065 0.445,-0.052L0.432,-0.045C0.419,-0.037 0.412,-0.028 0.412,-0.019C0.412,-0.008 0.42,0 0.434,0Z" style="fill:white;fill-rule:nonzero;"/>
        </g>
        <g transform="matrix(134.875,0,0,134.875,1065.63,274.874)">
            <path d="M0.287,0.016C0.373,0.016 0.458,-0.023 0.488,-0.082C0.495,-0.096 0.498,-0.113 0.487,-0.121C0.476,-0.128 0.464,-0.125 0.45,-0.114C0.413,-0.082 0.365,-0.064 0.316,-0.066C0.237,-0.061 0.165,-0.115 0.147,-0.192L0.428,-0.278C0.473,-0.292 0.491,-0.326 0.477,-0.376C0.448,-0.474 0.377,-0.518 0.28,-0.518C0.143,-0.518 0.039,-0.401 0.039,-0.242C0.039,-0.092 0.132,0.016 0.287,0.016ZM0.135,-0.282C0.135,-0.397 0.195,-0.456 0.264,-0.456C0.33,-0.456 0.368,-0.402 0.368,-0.36C0.368,-0.333 0.35,-0.317 0.312,-0.303L0.137,-0.238C0.136,-0.253 0.135,-0.267 0.135,-0.282Z" style="fill:white;fill-rule:nonzero;"/>
        </g>
        <g transform="matrix(130.946,0,0,130.946,1146.12,274.874)">
            <path d="M0.067,0L0.285,0C0.3,0 0.306,-0.009 0.306,-0.019C0.306,-0.028 0.301,-0.038 0.288,-0.043L0.264,-0.052C0.228,-0.065 0.212,-0.073 0.212,-0.106L0.212,-0.201L0.275,-0.201C0.425,-0.201 0.523,-0.262 0.523,-0.385C0.523,-0.491 0.441,-0.533 0.321,-0.533L0.067,-0.533C0.052,-0.533 0.046,-0.525 0.046,-0.515C0.046,-0.507 0.051,-0.5 0.065,-0.491L0.081,-0.481C0.106,-0.467 0.114,-0.459 0.114,-0.43L0.114,-0.106C0.114,-0.074 0.104,-0.065 0.081,-0.052L0.065,-0.042C0.052,-0.035 0.046,-0.027 0.046,-0.018C0.046,-0.008 0.052,0 0.067,0ZM0.212,-0.263L0.212,-0.438C0.212,-0.458 0.218,-0.472 0.24,-0.472L0.295,-0.472C0.368,-0.472 0.423,-0.456 0.423,-0.374C0.423,-0.305 0.371,-0.263 0.265,-0.263L0.212,-0.263Z" style="fill:white;fill-rule:nonzero;"/>
        </g>
        <g transform="matrix(130.946,0,0,130.946,1205.7,274.874)">
            <path d="M0.434,0L0.622,0C0.636,0 0.644,-0.009 0.644,-0.018C0.644,-0.027 0.638,-0.034 0.624,-0.042L0.608,-0.052C0.586,-0.065 0.575,-0.07 0.575,-0.102L0.575,-0.431C0.575,-0.462 0.585,-0.468 0.608,-0.481L0.624,-0.491C0.637,-0.499 0.644,-0.507 0.644,-0.516C0.644,-0.525 0.636,-0.533 0.622,-0.533L0.434,-0.533C0.42,-0.533 0.412,-0.525 0.412,-0.515C0.412,-0.504 0.42,-0.496 0.432,-0.488L0.445,-0.481C0.467,-0.469 0.477,-0.462 0.477,-0.431L0.477,-0.305L0.211,-0.305L0.211,-0.431C0.211,-0.462 0.221,-0.469 0.243,-0.481L0.256,-0.488C0.27,-0.497 0.276,-0.505 0.276,-0.515C0.276,-0.525 0.268,-0.533 0.254,-0.533L0.067,-0.533C0.053,-0.533 0.046,-0.525 0.046,-0.516C0.046,-0.505 0.053,-0.498 0.064,-0.491L0.081,-0.481C0.104,-0.469 0.113,-0.462 0.113,-0.431L0.113,-0.102C0.113,-0.07 0.103,-0.064 0.081,-0.052L0.064,-0.042C0.051,-0.035 0.046,-0.027 0.046,-0.018C0.046,-0.009 0.053,0 0.067,0L0.254,0C0.268,0 0.276,-0.008 0.276,-0.019C0.276,-0.028 0.27,-0.037 0.256,-0.045L0.243,-0.052C0.22,-0.065 0.211,-0.072 0.211,-0.102L0.211,-0.242L0.477,-0.242L0.477,-0.102C0.477,-0.072 0.467,-0.065 0.445,-0.052L0.432,-0.045C0.419,-0.037 0.412,-0.028 0.412,-0.019C0.412,-0.008 0.42,0 0.434,0Z" style="fill:white;fill-rule:nonzero;"/>
        </g>
        <g transform="matrix(130.946,0,0,130.946,1285.45,274.874)">
            <path d="M0.067,0L0.257,0C0.272,0 0.279,-0.008 0.279,-0.018C0.279,-0.029 0.271,-0.035 0.26,-0.042L0.243,-0.052C0.221,-0.064 0.211,-0.071 0.211,-0.102L0.211,-0.431C0.211,-0.463 0.221,-0.469 0.243,-0.481L0.26,-0.491C0.271,-0.498 0.279,-0.505 0.279,-0.515C0.279,-0.525 0.272,-0.533 0.257,-0.533L0.067,-0.533C0.053,-0.533 0.046,-0.525 0.046,-0.515C0.046,-0.506 0.051,-0.499 0.064,-0.491L0.081,-0.481C0.104,-0.469 0.113,-0.463 0.113,-0.431L0.113,-0.102C0.113,-0.071 0.105,-0.065 0.081,-0.052L0.064,-0.042C0.051,-0.035 0.046,-0.027 0.046,-0.018C0.046,-0.008 0.053,0 0.067,0Z" style="fill:white;fill-rule:nonzero;"/>
        </g>
        <g transform="matrix(130.946,0,0,130.946,1317.53,274.874)">
            <path d="M0.067,0L0.468,0C0.498,0 0.505,-0.007 0.509,-0.034L0.527,-0.173C0.53,-0.192 0.517,-0.198 0.506,-0.198C0.493,-0.198 0.483,-0.19 0.474,-0.175L0.438,-0.112C0.416,-0.073 0.402,-0.063 0.342,-0.063L0.246,-0.063C0.218,-0.063 0.211,-0.077 0.211,-0.101L0.211,-0.431C0.211,-0.463 0.22,-0.469 0.249,-0.482L0.267,-0.491C0.279,-0.496 0.287,-0.505 0.287,-0.515C0.287,-0.525 0.279,-0.533 0.265,-0.533L0.067,-0.533C0.053,-0.533 0.046,-0.525 0.046,-0.515C0.046,-0.507 0.051,-0.5 0.065,-0.491L0.081,-0.481C0.103,-0.468 0.114,-0.463 0.114,-0.431L0.114,-0.102C0.114,-0.071 0.104,-0.065 0.081,-0.052L0.065,-0.042C0.052,-0.035 0.046,-0.027 0.046,-0.018C0.046,-0.008 0.053,0 0.067,0Z" style="fill:white;fill-rule:nonzero;"/>
        </g>
        <g transform="matrix(130.946,0,0,130.946,1378.56,274.874)">
            <path d="M0.067,0L0.468,0C0.498,0 0.505,-0.007 0.509,-0.034L0.527,-0.173C0.53,-0.192 0.517,-0.198 0.506,-0.198C0.493,-0.198 0.483,-0.19 0.474,-0.175L0.438,-0.112C0.416,-0.073 0.402,-0.063 0.342,-0.063L0.246,-0.063C0.218,-0.063 0.211,-0.077 0.211,-0.101L0.211,-0.431C0.211,-0.463 0.22,-0.469 0.249,-0.482L0.267,-0.491C0.279,-0.496 0.287,-0.505 0.287,-0.515C0.287,-0.525 0.279,-0.533 0.265,-0.533L0.067,-0.533C0.053,-0.533 0.046,-0.525 0.046,-0.515C0.046,-0.507 0.051,-0.5 0.065,-0.491L0.081,-0.481C0.103,-0.468 0.114,-0.463 0.114,-0.431L0.114,-0.102C0.114,-0.071 0.104,-0.065 0.081,-0.052L0.065,-0.042C0.052,-0.035 0.046,-0.027 0.046,-0.018C0.046,-0.008 0.053,0 0.067,0Z" style="fill:white;fill-rule:nonzero;"/>
        </g>
        <g transform="matrix(130.946,0,0,130.946,1439.57,274.874)">
            <path d="M0.091,-0.427L0.228,-0.238L0.228,-0.102C0.228,-0.071 0.218,-0.064 0.196,-0.052L0.179,-0.042C0.166,-0.035 0.159,-0.027 0.159,-0.018C0.159,-0.009 0.167,0 0.181,0L0.371,0C0.386,0 0.393,-0.009 0.393,-0.018C0.393,-0.027 0.387,-0.035 0.374,-0.042L0.358,-0.052C0.335,-0.064 0.326,-0.07 0.326,-0.102L0.326,-0.233L0.466,-0.425C0.481,-0.449 0.5,-0.469 0.523,-0.486L0.527,-0.489C0.541,-0.499 0.545,-0.506 0.545,-0.515C0.545,-0.524 0.537,-0.533 0.522,-0.533L0.381,-0.533C0.365,-0.533 0.358,-0.523 0.358,-0.514C0.358,-0.503 0.365,-0.496 0.376,-0.489L0.39,-0.481C0.413,-0.469 0.41,-0.446 0.389,-0.418L0.302,-0.296L0.211,-0.423C0.187,-0.456 0.194,-0.471 0.214,-0.481L0.233,-0.489C0.247,-0.497 0.251,-0.506 0.251,-0.514C0.251,-0.524 0.242,-0.533 0.226,-0.533L0.031,-0.533C0.016,-0.533 0.008,-0.525 0.008,-0.515C0.008,-0.506 0.013,-0.498 0.026,-0.489L0.038,-0.482C0.053,-0.471 0.065,-0.462 0.091,-0.427Z" style="fill:white;fill-rule:nonzero;"/>
        </g>
    </g>
</svg>
