<?xml version="1.0" encoding="UTF-8" standalone="no"?>
<!DOCTYPE svg PUBLIC "-//W3C//DTD SVG 1.1//EN" "http://www.w3.org/Graphics/SVG/1.1/DTD/svg11.dtd">
<svg width="100%" height="100%" viewBox="0 0 1107 514" version="1.1" xmlns="http://www.w3.org/2000/svg" xmlns:xlink="http://www.w3.org/1999/xlink" xml:space="preserve" xmlns:serif="http://www.serif.com/" style="fill-rule:evenodd;clip-rule:evenodd;stroke-linejoin:round;stroke-miterlimit:2;">
    <g transform="matrix(1,0,0,1,-5521.12,-1658.43)">
        <g id="Artboard1" transform="matrix(1,0,0,3.16662,5353.98,0)">
            <rect x="0" y="0" width="1920" height="1080" style="fill:none;"/>
            <g transform="matrix(1,0,0,0.315794,164.187,602.43)">
                <g transform="matrix(421.714,0,0,421.714,0,0)">
                    <path d="M0.314,-0L0.212,-0.58L0.091,-0.58L0.007,-0L0.102,-0L0.109,-0.064L0.176,-0.064L0.184,-0L0.314,-0ZM0.163,-0.136L0.116,-0.136L0.14,-0.306L0.141,-0.306L0.163,-0.136Z" style="fill-rule:nonzero;"/>
                </g>
                <g transform="matrix(421.714,0,0,421.714,131.575,0)">
                    <path d="M0.44,-0.58L0.285,-0.58L0.24,-0.369L0.187,-0.58L0.027,-0.58L0.027,-0L0.133,-0L0.133,-0.28L0.195,-0L0.249,-0L0.311,-0.28L0.311,-0L0.44,-0L0.44,-0.58Z" style="fill-rule:nonzero;"/>
                </g>
                <g transform="matrix(421.714,0,0,421.714,328.515,0)">
                    <path d="M0.16,-0.458L0.292,-0.458L0.292,-0.58L0.027,-0.58L0.027,-0L0.292,-0L0.292,-0.118L0.161,-0.118L0.161,-0.233L0.231,-0.233L0.231,-0.34L0.16,-0.34L0.16,-0.458Z" style="fill-rule:nonzero;"/>
                </g>
                <g transform="matrix(421.714,0,0,421.714,457.981,0)">
                    <path d="M0.027,-0L0.155,-0L0.155,-0.252L0.179,-0.252C0.197,-0.252 0.209,-0.239 0.209,-0.221L0.208,-0.081C0.208,-0.054 0.213,-0.015 0.225,-0L0.348,-0C0.348,-0 0.334,-0.041 0.333,-0.075C0.332,-0.098 0.332,-0.109 0.335,-0.225C0.336,-0.265 0.314,-0.295 0.275,-0.312L0.275,-0.314C0.314,-0.33 0.333,-0.352 0.333,-0.436C0.333,-0.514 0.283,-0.58 0.194,-0.58L0.027,-0.58L0.027,-0ZM0.153,-0.351L0.153,-0.473L0.166,-0.473C0.196,-0.473 0.21,-0.456 0.21,-0.42L0.21,-0.402C0.21,-0.373 0.194,-0.353 0.166,-0.351L0.153,-0.351Z" style="fill-rule:nonzero;"/>
                </g>
                <g transform="matrix(421.714,0,0,421.714,608.533,0)">
                    <rect x="0.027" y="-0.58" width="0.136" height="0.58" style="fill-rule:nonzero;"/>
                </g>
                <g transform="matrix(421.714,0,0,421.714,688.659,0)">
                    <path d="M0.327,-0.35L0.327,-0.427C0.327,-0.506 0.289,-0.591 0.18,-0.591L0.175,-0.591C0.086,-0.591 0.022,-0.526 0.022,-0.447L0.022,-0.154C0.022,-0.065 0.075,0.01 0.174,0.01L0.18,0.01C0.269,0.01 0.326,-0.054 0.326,-0.133L0.326,-0.228L0.228,-0.228L0.228,-0.144C0.228,-0.124 0.212,-0.108 0.192,-0.108C0.172,-0.108 0.156,-0.124 0.156,-0.144L0.156,-0.433C0.156,-0.453 0.172,-0.471 0.192,-0.471C0.212,-0.471 0.228,-0.453 0.228,-0.433L0.228,-0.35L0.327,-0.35Z" style="fill-rule:nonzero;"/>
                </g>
                <g transform="matrix(421.714,0,0,421.714,831.198,0)">
                    <path d="M0.314,-0L0.212,-0.58L0.091,-0.58L0.007,-0L0.102,-0L0.109,-0.064L0.176,-0.064L0.184,-0L0.314,-0ZM0.163,-0.136L0.116,-0.136L0.14,-0.306L0.141,-0.306L0.163,-0.136Z" style="fill-rule:nonzero;"/>
                </g>
                <g transform="matrix(421.714,0,0,421.714,962.773,0)">
                    <path d="M0.342,-0.58L0.236,-0.58L0.236,-0.358L0.136,-0.58L0.027,-0.58L0.027,-0L0.133,-0L0.133,-0.29L0.254,-0L0.342,-0L0.342,-0.58Z" style="fill-rule:nonzero;"/>
                </g>
                <g transform="matrix(421.714,0,0,421.714,592.508,260)">
                    <path d="M0.16,-0.458L0.292,-0.458L0.292,-0.58L0.027,-0.58L0.027,-0L0.161,-0L0.161,-0.233L0.231,-0.233L0.231,-0.34L0.16,-0.34L0.16,-0.458Z" style="fill-rule:nonzero;"/>
                </g>
                <g transform="matrix(421.714,0,0,421.714,718.179,260)">
                    <path d="M0.288,-0.122L0.157,-0.122L0.157,-0.58L0.028,-0.58L0.027,-0L0.288,-0L0.288,-0.122Z" style="fill-rule:nonzero;"/>
                </g>
                <g transform="matrix(421.714,0,0,421.714,841.319,260)">
                    <path d="M0.314,-0L0.212,-0.58L0.091,-0.58L0.007,-0L0.102,-0L0.109,-0.064L0.176,-0.064L0.184,-0L0.314,-0ZM0.163,-0.136L0.116,-0.136L0.14,-0.306L0.141,-0.306L0.163,-0.136Z" style="fill-rule:nonzero;"/>
                </g>
                <g transform="matrix(421.714,0,0,421.714,969.52,260)">
                    <path d="M0.332,-0.291L0.18,-0.291L0.18,-0.192L0.212,-0.192L0.212,-0.138C0.212,-0.12 0.197,-0.105 0.179,-0.105C0.162,-0.105 0.146,-0.12 0.146,-0.138L0.146,-0.427C0.146,-0.451 0.166,-0.471 0.188,-0.471C0.211,-0.471 0.231,-0.451 0.231,-0.427L0.231,-0.365L0.324,-0.365L0.324,-0.437C0.324,-0.51 0.264,-0.59 0.186,-0.59L0.179,-0.59C0.112,-0.59 0.02,-0.539 0.02,-0.413L0.02,-0.189C0.02,-0.022 0.113,0.01 0.161,0.01C0.2,0.01 0.237,-0.009 0.25,-0.024L0.263,-0L0.332,-0L0.332,-0.291Z" style="fill-rule:nonzero;"/>
                </g>
            </g>
            <g transform="matrix(2.03842,0,0,0.322891,-6939.48,-69.2683)">
                <rect x="3487.33" y="2095.01" width="285.565" height="241.219"/>
            </g>
        </g>
    </g>
</svg>
